{"glyphs":{"0":{"ha":985,"x_min":94,"x_max":890,"o":"m 890 754 l 890 110 q 781 0 890 0 l 204 0 q 94 110 94 0 l 94 754 q 204 864 94 864 l 781 864 q 890 754 890 864 m 622 125 l 622 739 q 614 774 622 767 q 579 782 606 782 l 407 782 q 372 774 381 782 q 364 739 364 767 l 364 125 q 372 90 364 97 q 407 82 381 82 l 579 82 q 614 90 606 82 q 622 125 622 97 z "},"1":{"ha":571,"x_min":24,"x_max":478,"o":"m 478 864 l 478 0 l 200 0 l 200 782 l 24 782 l 24 864 l 478 864 z "},"2":{"ha":918,"x_min":67,"x_max":861,"o":"m 339 739 l 339 568 l 68 568 l 68 754 q 178 864 68 864 l 747 864 q 857 754 857 864 l 857 632 q 839 495 857 540 q 768 401 821 450 l 414 82 l 861 82 l 861 0 l 67 0 l 67 82 l 517 490 q 574 558 558 529 q 590 633 590 588 l 590 739 q 583 774 590 767 q 547 782 575 782 l 382 782 q 347 774 356 782 q 339 739 339 767 z "},"3":{"ha":956,"x_min":76,"x_max":871,"o":"m 344 739 l 344 588 l 76 588 l 76 754 q 186 864 76 864 l 761 864 q 871 754 871 864 l 871 538 q 788 442 871 446 q 871 346 871 436 l 871 110 q 761 0 871 0 l 186 0 q 76 110 76 0 l 76 275 l 344 275 l 344 125 q 353 90 344 97 q 388 82 361 82 l 560 82 q 594 90 586 82 q 603 125 603 97 l 603 353 q 594 388 603 381 q 560 396 586 396 l 388 396 l 388 479 l 560 479 q 594 487 586 479 q 603 522 603 494 l 603 739 q 594 774 603 767 q 560 782 586 782 l 388 782 q 353 774 361 782 q 344 739 344 767 z "},"4":{"ha":975,"x_min":38,"x_max":956,"o":"m 956 222 l 956 140 l 819 140 l 819 0 l 567 0 l 567 140 l 38 140 l 38 258 l 417 864 l 692 864 l 303 222 l 567 222 l 567 456 l 819 456 l 819 222 l 956 222 z "},"5":{"ha":933,"x_min":90,"x_max":868,"o":"m 379 526 l 758 526 q 868 417 868 526 l 868 110 q 758 0 868 0 l 200 0 q 90 110 90 0 l 90 292 l 358 292 l 358 125 q 367 90 358 97 q 401 82 375 82 l 557 82 q 592 90 583 82 q 600 125 600 97 l 600 401 q 592 436 600 428 q 557 444 583 444 l 101 444 l 101 864 l 851 864 l 851 782 l 379 782 l 379 526 z "},"6":{"ha":954,"x_min":94,"x_max":869,"o":"m 601 125 l 601 375 q 594 410 601 403 q 558 418 586 418 l 364 418 l 364 125 q 372 90 364 97 q 407 82 381 82 l 558 82 q 594 90 586 82 q 601 125 601 97 m 364 500 l 760 500 q 869 390 869 500 l 869 110 q 760 0 869 0 l 204 0 q 94 110 94 0 l 94 754 q 204 864 94 864 l 746 864 q 856 754 856 864 l 856 597 l 588 597 l 588 739 q 580 774 588 767 q 544 782 572 782 l 407 782 q 372 774 381 782 q 364 739 364 767 l 364 500 z "},"7":{"ha":789,"x_min":33,"x_max":769,"o":"m 769 864 l 769 757 l 401 0 l 117 0 l 507 782 l 33 782 l 33 864 l 769 864 z "},"8":{"ha":956,"x_min":90,"x_max":867,"o":"m 200 864 l 757 864 q 867 754 867 864 l 867 532 q 782 436 867 440 q 867 340 867 429 l 867 110 q 757 0 867 0 l 200 0 q 90 110 90 0 l 90 340 q 174 436 90 431 q 90 532 90 440 l 90 754 q 200 864 90 864 m 358 350 l 358 125 q 367 90 358 97 q 401 82 375 82 l 556 82 q 591 90 583 82 q 599 125 599 97 l 599 350 q 591 385 599 378 q 556 393 583 393 l 401 393 q 367 385 375 393 q 358 350 358 378 m 599 518 l 599 739 q 591 774 599 767 q 556 782 583 782 l 401 782 q 367 774 375 782 q 358 739 358 767 l 358 518 q 367 483 358 492 q 401 475 375 475 l 556 475 q 591 483 583 475 q 599 518 599 492 z "},"9":{"ha":957,"x_min":88,"x_max":863,"o":"m 399 442 l 593 442 l 593 739 q 585 774 593 767 q 550 782 578 782 l 399 782 q 364 774 372 782 q 356 739 356 767 l 356 485 q 364 450 356 458 q 399 442 372 442 m 197 864 l 753 864 q 863 754 863 864 l 863 110 q 753 0 863 0 l 210 0 q 100 110 100 0 l 100 261 l 368 261 l 368 125 q 376 90 368 97 q 411 82 383 82 l 550 82 q 585 90 578 82 q 593 125 593 97 l 593 360 l 197 360 q 88 469 88 360 l 88 754 q 197 864 88 864 z "},"\u0000":{"ha":0,"x_min":0,"x_max":0,"o":""},"\r":{"ha":0,"x_min":0,"x_max":0,"o":""}," ":{"ha":381,"x_min":0,"x_max":0,"o":""},"!":{"ha":489,"x_min":96,"x_max":393,"o":"m 96 864 l 393 864 l 349 290 l 142 290 l 96 864 m 107 0 l 107 190 l 382 190 l 382 0 l 107 0 z "},"\"":{"ha":700,"x_min":75,"x_max":625,"o":"m 75 864 l 304 864 l 304 517 l 75 517 l 75 864 m 396 864 l 625 864 l 625 517 l 396 517 l 396 864 z "},"#":{"ha":1321,"x_min":65,"x_max":1254,"o":"m 763 329 l 829 533 l 567 533 l 500 329 l 763 329 m 1254 533 l 1050 533 l 982 329 l 1174 329 l 1174 204 l 940 204 l 874 0 l 654 0 l 721 204 l 458 204 l 392 0 l 172 0 l 239 204 l 65 204 l 65 329 l 281 329 l 349 533 l 147 533 l 147 660 l 390 660 l 457 864 l 675 864 l 608 660 l 871 660 l 938 864 l 1158 864 l 1092 660 l 1254 660 l 1254 533 z "},"$":{"ha":940,"x_min":76,"x_max":860,"o":"m 382 476 l 750 476 q 860 367 860 476 l 860 110 q 750 0 860 0 l 597 0 l 597 -125 l 336 -125 l 336 0 l 190 0 q 81 110 81 0 l 81 263 l 343 263 l 343 125 q 351 90 343 97 q 386 82 358 82 l 556 82 q 591 90 583 82 q 599 125 599 97 l 599 351 q 591 386 599 378 q 556 394 583 394 l 186 394 q 76 504 76 394 l 76 754 q 186 864 76 864 l 336 864 l 336 992 l 597 992 l 597 864 l 746 864 q 856 754 856 864 l 856 601 l 593 601 l 593 739 q 585 774 593 767 q 550 782 578 782 l 382 782 q 347 774 356 782 q 339 739 339 767 l 339 519 q 347 484 339 492 q 382 476 356 476 z "},"%":{"ha":1660,"x_min":57,"x_max":1603,"o":"m 1603 419 l 1603 79 q 1528 1 1603 1 l 1101 1 q 1026 79 1026 1 l 1026 419 q 1101 497 1026 497 l 1528 497 q 1603 419 1603 497 m 1406 99 l 1406 399 q 1400 424 1406 418 q 1375 429 1394 429 l 1254 429 q 1229 424 1235 429 q 1224 399 1224 418 l 1224 99 q 1229 74 1224 79 q 1254 68 1235 68 l 1375 68 q 1400 74 1394 68 q 1406 99 1406 79 m 1054 864 l 1254 864 l 601 0 l 404 0 l 1054 864 m 633 786 l 633 446 q 558 368 633 368 l 132 368 q 57 446 57 368 l 57 786 q 132 864 57 864 l 558 864 q 633 786 633 864 m 438 465 l 438 765 q 432 790 438 785 q 407 796 426 796 l 285 796 q 260 790 265 796 q 256 765 256 785 l 256 465 q 261 440 256 446 q 285 435 267 435 l 407 435 q 432 440 426 435 q 438 465 438 446 z "},"&":{"ha":1211,"x_min":81,"x_max":1179,"o":"m 378 82 l 713 82 l 433 317 l 386 300 q 347 275 358 289 q 335 235 335 261 l 335 125 q 342 90 335 97 q 378 82 350 82 m 429 739 l 429 628 q 448 562 429 589 q 521 489 467 535 l 569 507 q 642 544 621 525 q 663 593 663 563 l 663 739 q 655 774 663 767 q 619 782 647 782 l 472 782 q 437 774 444 782 q 429 739 429 767 m 190 0 q 81 110 81 0 l 81 229 q 113 323 81 290 q 232 385 144 356 l 317 415 q 233 489 256 467 q 174 619 174 543 l 174 754 q 283 864 174 864 l 808 864 q 918 754 918 864 l 918 619 q 876 506 918 546 q 740 431 833 465 l 636 393 l 938 140 l 938 329 l 1144 329 l 1144 128 q 1088 15 1144 44 l 1179 -62 l 883 -62 l 810 0 l 190 0 z "},"'":{"ha":381,"x_min":75,"x_max":307,"o":"m 75 864 l 307 864 l 307 517 l 75 517 l 75 864 z "},"(":{"ha":518,"x_min":94,"x_max":597,"o":"m 94 157 l 94 536 q 212 881 94 765 q 540 997 329 997 l 597 997 l 597 915 l 571 915 q 363 581 363 911 l 363 111 q 571 -224 363 -218 l 597 -224 l 597 -306 l 540 -306 q 212 -189 329 -306 q 94 157 94 -72 z "},")":{"ha":518,"x_min":-79,"x_max":424,"o":"m 424 536 l 424 157 q 306 -189 424 -72 q -24 -306 189 -306 l -79 -306 l -79 -224 l -53 -224 q 156 111 156 -218 l 156 581 q -53 915 156 911 l -79 915 l -79 997 l -24 997 q 306 881 189 997 q 424 536 424 765 z "},"*":{"ha":779,"x_min":71,"x_max":711,"o":"m 299 919 l 489 919 l 489 835 q 465 713 489 774 q 571 768 517 750 l 650 794 l 711 613 l 629 586 q 553 571 585 571 q 507 572 521 571 q 592 489 561 533 l 642 421 l 488 307 l 438 376 q 386 490 404 425 q 333 382 365 428 l 283 314 l 129 426 l 179 494 q 271 578 211 539 q 151 596 200 581 l 71 622 l 131 804 l 211 778 q 319 717 264 760 q 299 835 299 775 l 299 919 z "},"+":{"ha":996,"x_min":75,"x_max":921,"o":"m 921 510 l 921 351 l 621 351 l 621 147 l 375 147 l 375 351 l 75 351 l 75 510 l 375 510 l 375 714 l 621 714 l 621 510 l 921 510 z "},",":{"ha":422,"x_min":79,"x_max":353,"o":"m 79 -194 l 79 208 l 353 208 l 353 92 l 169 -194 l 79 -194 z "},"-":{"ha":600,"x_min":79,"x_max":521,"o":"m 79 336 l 79 418 l 521 418 l 521 336 l 79 336 z "},".":{"ha":432,"x_min":79,"x_max":353,"o":"m 79 0 l 79 190 l 353 190 l 353 0 l 79 0 z "},"/":{"ha":675,"x_min":-37,"x_max":775,"o":"m 551 971 l 775 971 l 186 -189 l -37 -189 l 551 971 z "},":":{"ha":432,"x_min":79,"x_max":353,"o":"m 79 503 l 353 503 l 353 171 l 79 171 l 79 503 z "},";":{"ha":422,"x_min":79,"x_max":353,"o":"m 79 483 l 79 674 l 353 674 l 353 483 l 79 483 m 79 -194 l 79 208 l 353 208 l 353 92 l 169 -194 l 79 -194 z "},"<":{"ha":989,"x_min":47,"x_max":932,"o":"m 932 542 l 258 433 l 932 321 l 932 150 l 47 351 l 47 519 l 932 711 l 932 542 z "},"=":{"ha":1015,"x_min":85,"x_max":931,"o":"m 85 493 l 85 653 l 931 653 l 931 493 l 85 493 m 85 208 l 85 368 l 931 368 l 931 208 l 85 208 z "},">":{"ha":989,"x_min":57,"x_max":942,"o":"m 729 433 l 57 542 l 57 711 l 942 519 l 942 351 l 57 150 l 57 321 l 729 433 z "},"?":{"ha":860,"x_min":33,"x_max":813,"o":"m 271 0 l 271 190 l 544 190 l 544 0 l 271 0 m 143 864 l 703 864 q 813 756 813 864 l 813 494 q 703 386 813 386 l 531 386 l 518 290 l 303 290 l 282 476 l 511 476 q 545 485 538 476 q 553 521 553 494 l 553 739 q 545 774 553 765 q 511 782 538 782 l 335 782 q 300 774 308 782 q 292 739 292 765 l 292 593 l 33 593 l 33 756 q 143 864 33 864 z "},"@":{"ha":1606,"x_min":99,"x_max":1517,"o":"m 569 592 l 829 592 q 894 557 881 592 l 894 592 l 1106 592 l 1106 164 l 1271 164 q 1301 171 1294 164 q 1307 200 1307 178 l 1307 663 q 1301 692 1307 686 q 1271 699 1294 699 l 344 699 q 315 692 322 699 q 308 663 308 686 l 308 21 q 315 -9 308 -3 q 344 -15 322 -15 l 1188 -15 l 1188 -99 l 190 -99 q 99 -7 99 -99 l 99 690 q 190 782 99 782 l 1425 782 q 1517 690 1517 782 l 1517 174 q 1425 82 1517 82 l 900 82 l 900 151 q 829 108 890 108 l 569 108 q 478 200 478 108 l 478 500 q 569 592 478 592 m 688 474 l 688 226 q 694 197 688 203 q 724 190 700 190 l 853 190 q 894 224 893 190 l 894 476 q 853 510 893 510 l 724 510 q 694 503 700 510 q 688 474 688 497 z "},"A":{"ha":1025,"x_min":19,"x_max":1006,"o":"m 361 253 l 660 253 l 511 706 l 361 253 m 742 0 l 686 171 l 335 171 l 278 0 l 19 0 l 347 864 l 676 864 l 1006 0 l 742 0 z "},"B":{"ha":1001,"x_min":104,"x_max":907,"o":"m 104 864 l 797 864 q 907 754 907 864 l 907 529 q 822 433 907 438 q 907 339 907 426 l 907 110 q 797 0 907 0 l 104 0 l 104 864 m 650 117 l 650 349 q 642 383 650 375 q 607 392 633 392 l 372 392 l 372 82 l 603 82 q 650 117 650 82 m 650 517 l 650 739 q 642 774 650 767 q 607 782 633 782 l 372 782 l 372 474 l 607 474 q 642 481 633 474 q 650 517 650 489 z "},"C":{"ha":956,"x_min":94,"x_max":886,"o":"m 886 553 l 618 553 l 618 739 q 610 774 618 767 q 575 782 603 782 l 406 782 q 370 774 378 782 q 363 739 363 767 l 363 125 q 370 90 363 97 q 406 82 378 82 l 575 82 q 610 90 603 82 q 618 125 618 97 l 618 308 l 886 308 l 886 110 q 776 0 886 0 l 204 0 q 94 110 94 0 l 94 754 q 204 864 94 864 l 776 864 q 886 754 886 864 l 886 553 z "},"D":{"ha":1004,"x_min":104,"x_max":910,"o":"m 642 125 l 642 739 q 633 774 642 767 q 599 782 625 782 l 372 782 l 372 82 l 599 82 q 633 90 625 82 q 642 125 642 97 m 104 864 l 800 864 q 910 754 910 864 l 910 110 q 800 0 910 0 l 104 0 l 104 864 z "},"E":{"ha":863,"x_min":104,"x_max":815,"o":"m 382 82 l 815 82 l 815 0 l 104 0 l 104 864 l 797 864 l 797 782 l 382 782 l 382 483 l 740 483 l 740 401 l 382 401 l 382 82 z "},"F":{"ha":835,"x_min":104,"x_max":797,"o":"m 797 782 l 382 782 l 382 450 l 743 450 l 743 368 l 382 368 l 382 0 l 104 0 l 104 864 l 797 864 l 797 782 z "},"G":{"ha":972,"x_min":94,"x_max":888,"o":"m 888 581 l 619 581 l 619 739 q 611 774 619 767 q 576 782 603 782 l 406 782 q 370 774 378 782 q 363 739 363 767 l 363 125 q 370 90 363 97 q 406 82 378 82 l 576 82 q 611 90 603 82 q 619 125 619 97 l 619 363 l 478 363 l 478 444 l 888 444 l 888 110 q 778 0 888 0 l 204 0 q 94 110 94 0 l 94 754 q 204 864 94 864 l 778 864 q 888 754 888 864 l 888 581 z "},"H":{"ha":1068,"x_min":104,"x_max":964,"o":"m 696 864 l 964 864 l 964 0 l 696 0 l 696 392 l 372 392 l 372 0 l 104 0 l 104 864 l 372 864 l 372 474 l 696 474 l 696 864 z "},"I":{"ha":504,"x_min":113,"x_max":390,"o":"m 113 864 l 390 864 l 390 0 l 113 0 l 113 864 z "},"J":{"ha":878,"x_min":38,"x_max":785,"o":"m 38 331 l 307 331 l 307 125 q 315 90 307 97 q 350 82 322 82 l 472 82 q 508 90 500 82 q 515 125 515 97 l 515 864 l 785 864 l 785 110 q 675 0 785 0 l 147 0 q 38 110 38 0 l 38 331 z "},"K":{"ha":1007,"x_min":104,"x_max":982,"o":"m 685 864 l 974 864 l 661 442 l 982 0 l 692 0 l 381 442 l 685 864 m 104 864 l 365 864 l 365 0 l 104 0 l 104 864 z "},"L":{"ha":800,"x_min":104,"x_max":776,"o":"m 372 82 l 776 82 l 776 0 l 104 0 l 104 864 l 372 864 l 372 82 z "},"M":{"ha":1276,"x_min":104,"x_max":1174,"o":"m 344 0 l 104 0 l 104 864 l 390 864 l 636 336 l 888 864 l 1174 864 l 1174 0 l 932 0 l 932 625 l 722 188 l 551 188 l 344 622 l 344 0 z "},"N":{"ha":1033,"x_min":104,"x_max":931,"o":"m 682 864 l 931 864 l 931 0 l 700 0 l 351 614 l 351 0 l 104 0 l 104 864 l 338 864 l 682 249 l 682 864 z "},"O":{"ha":983,"x_min":94,"x_max":889,"o":"m 889 754 l 889 110 q 779 0 889 0 l 204 0 q 94 110 94 0 l 94 754 q 204 864 94 864 l 779 864 q 889 754 889 864 m 622 125 l 622 739 q 614 774 622 767 q 579 782 606 782 l 406 782 q 370 774 378 782 q 363 739 363 767 l 363 125 q 370 90 363 97 q 406 82 378 82 l 579 82 q 614 90 606 82 q 622 125 622 97 z "},"P":{"ha":969,"x_min":104,"x_max":913,"o":"m 644 407 l 644 739 q 636 774 644 767 q 601 782 628 782 l 372 782 l 372 364 l 601 364 q 636 372 628 364 q 644 407 644 381 m 104 864 l 803 864 q 913 754 913 864 l 913 392 q 803 282 913 282 l 372 282 l 372 0 l 104 0 l 104 864 z "},"Q":{"ha":965,"x_min":83,"x_max":894,"o":"m 347 739 l 347 125 q 356 90 347 97 q 390 82 364 82 l 574 82 q 608 90 600 82 q 617 125 617 97 l 617 739 q 608 774 617 767 q 574 782 600 782 l 390 782 q 356 774 364 782 q 347 739 347 767 m 193 0 q 83 110 83 0 l 83 754 q 193 864 83 864 l 769 864 q 879 754 879 864 l 879 110 q 769 0 879 0 l 721 0 l 894 -135 l 593 -135 l 435 0 l 193 0 z "},"R":{"ha":994,"x_min":104,"x_max":936,"o":"m 372 782 l 372 392 l 601 392 q 636 400 628 392 q 644 435 644 408 l 644 739 q 636 774 644 767 q 601 782 628 782 l 372 782 m 372 310 l 372 0 l 104 0 l 104 864 l 803 864 q 913 754 913 864 l 913 419 q 803 310 913 310 l 740 310 l 936 0 l 657 0 l 472 310 l 372 310 z "},"S":{"ha":942,"x_min":78,"x_max":861,"o":"m 593 125 l 593 351 q 585 386 593 378 q 550 394 578 394 l 188 394 q 78 504 78 394 l 78 754 q 188 864 78 864 l 747 864 q 857 754 857 864 l 857 593 l 589 593 l 589 739 q 581 774 589 767 q 546 782 572 782 l 389 782 q 353 774 361 782 q 346 739 346 767 l 346 519 q 353 484 346 492 q 389 476 361 476 l 751 476 q 861 367 861 476 l 861 110 q 751 0 861 0 l 192 0 q 82 110 82 0 l 82 271 l 350 271 l 350 125 q 358 90 350 97 q 393 82 367 82 l 550 82 q 585 90 578 82 q 593 125 593 97 z "},"T":{"ha":819,"x_min":10,"x_max":811,"o":"m 811 864 l 811 782 l 543 782 l 543 0 l 275 0 l 275 782 l 10 782 l 10 864 l 811 864 z "},"U":{"ha":993,"x_min":94,"x_max":899,"o":"m 363 864 l 363 125 q 370 90 363 97 q 406 82 378 82 l 588 82 q 622 90 614 82 q 631 125 631 97 l 631 864 l 899 864 l 899 110 q 789 0 899 0 l 204 0 q 94 110 94 0 l 94 864 l 363 864 z "},"V":{"ha":1001,"x_min":22,"x_max":979,"o":"m 708 864 l 979 864 l 658 0 l 342 0 l 22 864 l 293 864 l 500 176 l 708 864 z "},"W":{"ha":1554,"x_min":24,"x_max":1531,"o":"m 1272 864 l 1531 864 l 1254 0 l 942 0 l 776 592 l 611 0 l 300 0 l 24 864 l 294 864 l 456 188 l 644 864 l 907 864 l 1096 188 l 1272 864 z "},"X":{"ha":988,"x_min":18,"x_max":969,"o":"m 632 449 l 969 0 l 683 0 l 488 290 l 290 0 l 18 0 l 343 431 l 29 864 l 315 864 l 488 594 l 660 864 l 933 864 l 632 449 z "},"Y":{"ha":971,"x_min":7,"x_max":963,"o":"m 628 0 l 360 0 l 360 285 l 7 864 l 271 864 l 492 429 l 701 864 l 963 864 l 628 286 l 628 0 z "},"Z":{"ha":899,"x_min":57,"x_max":842,"o":"m 842 864 l 842 782 l 361 82 l 828 82 l 828 0 l 57 0 l 57 82 l 538 782 l 79 782 l 79 864 l 842 864 z "},"[":{"ha":513,"x_min":99,"x_max":563,"o":"m 563 917 l 368 917 l 368 -224 l 563 -224 l 563 -306 l 99 -306 l 99 999 l 563 999 l 563 917 z "},"\\":{"ha":671,"x_min":-99,"x_max":713,"o":"m -99 971 l 124 971 l 713 -189 l 489 -189 l -99 971 z "},"]":{"ha":513,"x_min":-50,"x_max":414,"o":"m 414 999 l 414 -306 l -50 -306 l -50 -224 l 144 -224 l 144 917 l -50 917 l -50 999 l 414 999 z "},"^":{"ha":908,"x_min":32,"x_max":876,"o":"m 301 928 l 607 928 l 876 456 l 639 456 l 454 788 l 268 456 l 32 456 l 301 928 z "},"_":{"ha":897,"x_min":8,"x_max":889,"o":"m 8 -82 l 8 0 l 889 0 l 889 -82 l 8 -82 z "},"`":{"ha":840,"x_min":224,"x_max":672,"o":"m 481 913 l 672 703 l 463 703 l 224 913 l 481 913 z "},"a":{"ha":919,"x_min":85,"x_max":825,"o":"m 383 82 l 519 82 q 569 125 569 82 l 569 549 q 519 592 569 592 l 383 592 q 348 583 356 592 q 340 549 340 575 l 340 125 q 348 90 340 97 q 383 82 356 82 m 569 674 l 825 674 l 825 0 l 569 0 l 569 40 q 490 0 550 0 l 194 0 q 85 110 85 0 l 85 564 q 194 674 85 674 l 490 674 q 569 633 550 674 l 569 674 z "},"b":{"ha":919,"x_min":94,"x_max":835,"o":"m 579 125 l 579 549 q 572 583 579 575 q 536 592 564 592 l 400 592 q 350 549 350 592 l 350 125 q 400 82 350 82 l 536 82 q 572 90 564 82 q 579 125 579 97 m 429 674 l 725 674 q 835 564 835 674 l 835 110 q 725 0 835 0 l 429 0 q 350 40 369 0 l 350 0 l 94 0 l 94 929 l 350 929 l 350 633 q 429 674 369 674 z "},"c":{"ha":871,"x_min":85,"x_max":810,"o":"m 810 433 l 561 433 l 561 549 q 553 583 561 575 q 518 592 544 592 l 383 592 q 348 583 356 592 q 340 549 340 575 l 340 125 q 348 90 340 97 q 383 82 356 82 l 518 82 q 553 90 544 82 q 561 125 561 97 l 561 238 l 810 238 l 810 110 q 700 0 810 0 l 194 0 q 85 110 85 0 l 85 564 q 194 674 85 674 l 700 674 q 810 564 810 674 l 810 433 z "},"d":{"ha":919,"x_min":85,"x_max":825,"o":"m 383 82 l 519 82 q 569 125 569 82 l 569 549 q 519 592 569 592 l 383 592 q 348 583 356 592 q 340 549 340 575 l 340 125 q 348 90 340 97 q 383 82 356 82 m 569 929 l 825 929 l 825 0 l 569 0 l 569 40 q 490 0 550 0 l 194 0 q 85 110 85 0 l 85 564 q 194 674 85 674 l 490 674 q 569 633 550 674 l 569 929 z "},"e":{"ha":914,"x_min":85,"x_max":839,"o":"m 340 386 l 592 386 l 592 549 q 583 583 592 575 q 549 592 575 592 l 383 592 q 348 583 356 592 q 340 549 340 575 l 340 386 m 194 674 l 729 674 q 839 564 839 674 l 839 304 l 340 304 l 340 125 q 348 90 340 97 q 383 82 356 82 l 547 82 q 583 90 575 82 q 590 125 590 97 l 590 214 l 838 214 l 838 110 q 728 0 838 0 l 194 0 q 85 110 85 0 l 85 564 q 194 674 85 674 z "},"f":{"ha":574,"x_min":39,"x_max":564,"o":"m 564 846 l 438 846 q 403 838 411 846 q 394 803 394 831 l 394 674 l 564 674 l 564 592 l 394 592 l 394 0 l 139 0 l 139 592 l 39 592 l 39 674 l 139 674 l 139 819 q 249 929 139 929 l 564 929 l 564 846 z "},"g":{"ha":914,"x_min":85,"x_max":826,"o":"m 383 82 l 519 82 q 569 125 569 82 l 569 549 q 519 592 569 592 l 383 592 q 348 583 356 592 q 340 549 340 575 l 340 125 q 348 90 340 97 q 383 82 356 82 m 825 42 l 826 42 l 826 -86 q 717 -196 826 -196 l 122 -196 l 122 -114 l 528 -114 q 563 -106 556 -114 q 571 -71 571 -97 l 571 31 l 569 31 l 569 40 q 490 0 550 0 l 194 0 q 85 110 85 0 l 85 564 q 194 674 85 674 l 490 674 q 569 633 550 674 l 569 674 l 825 674 l 825 42 z "},"h":{"ha":919,"x_min":94,"x_max":835,"o":"m 429 674 l 725 674 q 835 564 835 674 l 835 0 l 581 0 l 581 549 q 572 583 581 575 q 538 592 564 592 l 400 592 q 350 549 350 592 l 350 0 l 94 0 l 94 929 l 350 929 l 350 633 q 429 674 369 674 z "},"i":{"ha":454,"x_min":94,"x_max":360,"o":"m 354 0 l 99 0 l 99 674 l 354 674 l 354 0 m 94 775 l 94 929 l 360 929 l 360 775 l 94 775 z "},"j":{"ha":449,"x_min":-43,"x_max":360,"o":"m 99 -71 l 99 674 l 356 674 l 356 -86 q 246 -196 356 -196 l -43 -196 l -43 -114 l 56 -114 q 91 -106 83 -114 q 99 -71 99 -97 m 94 775 l 94 929 l 360 929 l 360 775 l 94 775 z "},"k":{"ha":908,"x_min":94,"x_max":883,"o":"m 94 0 l 94 929 l 350 929 l 350 0 l 94 0 m 883 674 l 624 340 l 883 0 l 614 0 l 365 340 l 615 674 l 883 674 z "},"l":{"ha":463,"x_min":104,"x_max":358,"o":"m 358 0 l 104 0 l 104 929 l 358 929 l 358 0 z "},"m":{"ha":1388,"x_min":94,"x_max":1303,"o":"m 914 674 l 1193 674 q 1303 564 1303 674 l 1303 0 l 1047 0 l 1047 549 q 1039 583 1047 575 q 1004 592 1031 592 l 882 592 q 829 539 829 592 l 829 0 l 575 0 l 575 549 q 567 583 575 575 q 532 592 558 592 l 400 592 q 350 549 350 592 l 350 0 l 94 0 l 94 674 l 350 674 l 350 635 q 428 674 367 674 l 719 674 q 822 611 803 674 q 914 674 839 674 z "},"n":{"ha":919,"x_min":94,"x_max":835,"o":"m 429 674 l 725 674 q 835 564 835 674 l 835 0 l 579 0 l 579 549 q 572 583 579 575 q 536 592 564 592 l 400 592 q 350 549 350 592 l 350 0 l 94 0 l 94 674 l 350 674 l 350 633 q 429 674 369 674 z "},"o":{"ha":914,"x_min":85,"x_max":829,"o":"m 575 125 l 575 549 q 567 583 575 575 q 532 592 558 592 l 382 592 q 347 583 356 592 q 339 549 339 575 l 339 125 q 347 90 339 97 q 382 82 356 82 l 532 82 q 567 90 558 82 q 575 125 575 97 m 194 674 l 719 674 q 829 564 829 674 l 829 110 q 719 0 829 0 l 194 0 q 85 110 85 0 l 85 564 q 194 674 85 674 z "},"p":{"ha":925,"x_min":94,"x_max":840,"o":"m 585 125 l 585 547 q 577 583 585 575 q 542 590 569 590 l 400 590 q 350 547 350 590 l 350 125 q 400 82 350 82 l 542 82 q 577 90 569 82 q 585 125 585 97 m 428 672 l 731 672 q 840 563 840 672 l 840 110 q 731 0 840 0 l 428 0 q 350 39 367 0 l 350 -196 l 94 -196 l 94 672 l 344 672 l 344 618 q 428 672 358 672 z "},"q":{"ha":921,"x_min":103,"x_max":849,"o":"m 401 82 l 542 82 q 593 125 593 82 l 593 547 q 581 581 593 571 q 542 590 569 590 l 401 590 q 367 583 375 590 q 358 547 358 575 l 358 125 q 367 90 358 97 q 401 82 375 82 m 597 672 l 849 672 l 849 -196 l 593 -196 l 593 42 q 514 0 576 0 l 213 0 q 103 110 103 0 l 103 563 q 213 672 103 672 l 514 672 q 597 619 582 672 l 597 672 z "},"r":{"ha":600,"x_min":94,"x_max":590,"o":"m 501 676 l 590 676 l 590 581 l 451 581 q 350 475 350 581 l 350 0 l 94 0 l 94 674 l 350 674 l 350 593 q 501 676 382 676 z "},"s":{"ha":850,"x_min":71,"x_max":779,"o":"m 525 125 l 525 251 q 517 286 525 278 q 482 294 508 294 l 181 294 q 71 404 71 294 l 71 564 q 181 674 71 674 l 660 674 q 769 564 769 674 l 769 464 l 522 464 l 522 549 q 514 583 522 575 q 479 592 506 592 l 369 592 q 334 583 342 592 q 326 549 326 575 l 326 419 q 334 384 326 392 q 369 376 342 376 l 669 376 q 779 267 779 376 l 779 110 q 669 0 779 0 l 186 0 q 76 110 76 0 l 76 210 l 325 210 l 325 125 q 333 90 325 97 q 368 82 342 82 l 482 82 q 517 90 508 82 q 525 125 525 97 z "},"t":{"ha":565,"x_min":25,"x_max":528,"o":"m 528 592 l 389 592 l 389 128 q 397 92 389 100 q 432 85 406 85 l 526 85 l 526 0 l 243 0 q 133 110 133 0 l 133 592 l 25 592 l 25 674 l 133 674 l 133 828 l 389 828 l 389 674 l 528 674 l 528 592 z "},"u":{"ha":919,"x_min":85,"x_max":825,"o":"m 569 674 l 825 674 l 825 0 l 569 0 l 569 40 q 490 0 550 0 l 194 0 q 85 110 85 0 l 85 674 l 340 674 l 340 125 q 348 90 340 97 q 383 82 356 82 l 519 82 q 569 125 569 82 l 569 674 z "},"v":{"ha":879,"x_min":17,"x_max":861,"o":"m 17 674 l 268 674 l 438 158 l 610 674 l 861 674 l 597 0 l 281 0 l 17 674 z "},"w":{"ha":1286,"x_min":18,"x_max":1268,"o":"m 1028 674 l 1268 674 l 1053 0 l 763 0 l 643 500 l 524 0 l 235 0 l 18 674 l 258 674 l 393 158 l 528 674 l 758 674 l 893 158 l 1028 674 z "},"x":{"ha":867,"x_min":14,"x_max":863,"o":"m 557 372 l 863 0 l 563 0 l 389 215 l 197 0 l 22 0 l 304 315 l 14 674 l 311 674 l 471 469 l 649 674 l 828 674 l 557 372 z "},"y":{"ha":874,"x_min":19,"x_max":868,"o":"m 329 -196 l 153 -196 l 153 -114 l 246 -114 q 322 -99 296 -114 q 363 -47 347 -83 l 383 0 l 286 0 l 19 674 l 286 674 l 447 165 l 611 674 l 868 674 l 590 -22 q 555 -97 572 -69 q 508 -150 538 -125 q 329 -196 457 -196 z "},"z":{"ha":754,"x_min":49,"x_max":707,"o":"m 707 82 l 707 0 l 49 0 l 49 82 l 421 592 l 71 592 l 71 674 l 694 674 l 694 592 l 317 82 l 707 82 z "},"{":{"ha":597,"x_min":58,"x_max":629,"o":"m 472 789 l 472 521 q 439 397 472 444 q 343 346 406 349 q 439 294 406 342 q 472 171 472 246 l 472 -97 q 488 -194 472 -162 q 551 -225 504 -225 l 629 -225 l 629 -307 l 507 -307 q 276 -251 349 -307 q 204 -50 204 -196 l 204 182 q 174 278 204 249 q 75 307 144 307 l 58 307 l 58 389 l 75 389 q 174 419 144 389 q 204 517 204 450 l 204 742 q 276 943 204 888 q 507 999 349 999 l 629 999 l 629 917 l 551 917 q 488 886 504 917 q 472 789 472 856 z "},"|":{"ha":451,"x_min":108,"x_max":344,"o":"m 108 1081 l 344 1081 l 344 -219 l 108 -219 l 108 1081 z "},"}":{"ha":614,"x_min":-15,"x_max":556,"o":"m 143 521 l 143 789 q 127 886 143 856 q 64 917 111 917 l -15 917 l -15 999 l 107 999 q 338 943 267 999 q 410 742 410 888 l 410 517 q 440 419 410 450 q 539 389 469 389 l 556 389 l 556 307 l 539 307 q 440 278 469 307 q 410 182 410 249 l 410 -50 q 338 -251 410 -196 q 107 -307 267 -307 l -15 -307 l -15 -225 l 64 -225 q 127 -194 111 -225 q 143 -97 143 -162 l 143 171 q 176 294 143 246 q 272 346 208 342 q 176 397 208 349 q 143 521 143 444 z "},"~":{"ha":1115,"x_min":76,"x_max":1039,"o":"m 614 259 q 585 276 614 259 q 497 327 556 293 q 396 361 439 361 q 341 351 353 361 q 329 311 329 340 l 329 226 l 76 226 l 76 357 q 185 465 76 465 l 388 465 q 492 444 442 465 q 575 397 543 422 q 731 329 663 329 q 774 340 763 329 q 786 379 786 350 l 786 465 l 1039 465 l 1039 335 q 931 225 1039 225 l 729 225 q 614 259 672 225 z "},"¡":{"ha":501,"x_min":101,"x_max":399,"o":"m 147 382 l 354 382 l 399 -192 l 101 -192 l 147 382 m 113 672 l 388 672 l 388 482 l 113 482 l 113 672 z "},"¢":{"ha":858,"x_min":78,"x_max":803,"o":"m 803 433 l 554 433 l 554 549 q 547 583 554 575 q 511 592 539 592 l 376 592 q 342 583 350 592 q 333 549 333 575 l 333 125 q 342 90 333 97 q 376 82 350 82 l 511 82 q 547 90 539 82 q 554 125 554 97 l 554 238 l 803 238 l 803 110 q 693 0 803 0 l 571 0 l 571 -110 l 311 -110 l 311 0 l 188 0 q 78 110 78 0 l 78 564 q 188 674 78 674 l 311 674 l 311 781 l 571 781 l 571 674 l 693 674 q 803 564 803 674 l 803 433 z "},"£":{"ha":981,"x_min":60,"x_max":931,"o":"m 931 140 l 931 0 l 65 0 l 65 111 q 141 166 121 121 q 161 289 161 211 l 161 375 l 60 375 l 60 457 l 161 457 l 161 754 q 271 864 161 864 l 810 864 q 919 754 919 864 l 919 585 l 651 585 l 651 739 q 644 774 651 767 q 608 782 636 782 l 472 782 q 437 774 444 782 q 429 739 429 767 l 429 457 l 757 457 l 757 375 l 429 375 l 429 300 q 418 192 429 231 q 372 140 407 153 l 931 140 z "},"¤":{"ha":1097,"x_min":82,"x_max":1015,"o":"m 481 232 l 619 232 q 726 252 699 232 q 754 344 754 272 l 754 461 q 724 566 754 536 q 619 596 694 596 l 481 596 q 375 566 406 596 q 344 461 344 536 l 344 344 q 372 252 344 272 q 481 232 400 232 m 949 479 l 949 350 q 935 258 949 296 l 1015 179 l 881 42 l 767 153 q 703 150 728 150 l 396 150 q 331 153 372 150 l 217 42 l 82 179 l 164 260 q 150 350 150 296 l 150 479 q 164 567 150 531 l 82 647 l 217 785 l 331 674 q 396 678 360 678 l 703 678 q 768 675 726 678 l 881 785 l 1015 647 l 935 568 q 949 479 949 531 z "},"¥":{"ha":1018,"x_min":31,"x_max":988,"o":"m 922 456 l 922 374 l 703 374 l 651 286 l 651 278 l 922 278 l 922 196 l 651 196 l 651 0 l 383 0 l 383 196 l 108 196 l 108 278 l 383 278 l 383 285 l 329 374 l 108 374 l 108 456 l 279 456 l 31 864 l 294 864 l 515 429 l 725 864 l 988 864 l 750 456 l 922 456 z "},"¦":{"ha":442,"x_min":103,"x_max":339,"o":"m 103 350 l 339 350 l 339 -219 l 103 -219 l 103 350 m 339 513 l 103 513 l 103 1081 l 339 1081 l 339 513 z "},"§":{"ha":1206,"x_min":268,"x_max":1018,"o":"m 988 171 l 988 26 q 878 -83 988 -83 l 378 -83 q 268 26 268 -83 l 268 117 l 531 117 l 531 42 q 539 6 531 14 q 574 -1 547 -1 l 683 -1 q 719 6 711 -1 q 726 42 726 14 l 726 165 q 719 200 726 192 q 683 208 711 208 l 388 208 q 278 318 278 208 l 278 447 q 302 526 278 496 q 358 561 326 556 q 297 644 297 578 l 297 800 q 407 910 297 910 l 908 910 q 1018 800 1018 910 l 1018 710 l 757 710 l 757 785 q 749 819 757 811 q 714 828 742 828 l 603 828 q 567 819 575 828 q 560 785 560 811 l 560 660 q 567 625 560 633 q 603 617 575 617 l 899 617 q 1008 507 1008 617 l 1008 369 q 985 295 1008 321 q 928 264 961 269 q 969 232 950 256 q 988 171 988 208 m 704 535 l 583 535 q 548 527 556 535 q 540 492 540 519 l 540 333 q 548 298 540 306 q 583 290 556 290 l 704 290 q 739 298 731 290 q 747 333 747 306 l 747 492 q 739 527 747 519 q 704 535 731 535 z "},"¨":{"ha":926,"x_min":119,"x_max":807,"o":"m 533 897 l 807 897 l 807 731 l 533 731 l 533 897 m 119 897 l 393 897 l 393 731 l 119 731 l 119 897 z "},"©":{"ha":1490,"x_min":83,"x_max":1406,"o":"m 1406 471 l 1406 389 q 1309 96 1406 192 q 972 0 1213 0 l 517 0 q 180 96 276 0 q 83 389 83 192 l 83 471 q 180 766 83 668 q 517 864 276 864 l 972 864 q 1309 766 1213 864 q 1406 471 1406 668 m 561 82 l 929 82 q 1131 151 1072 82 q 1190 372 1190 221 l 1190 488 q 1131 711 1190 640 q 929 782 1071 782 l 561 782 q 359 710 419 782 q 299 488 299 639 l 299 372 q 358 151 299 221 q 561 82 418 82 m 836 333 l 836 386 l 1022 386 l 1022 318 q 913 208 1022 208 l 581 208 q 471 318 471 208 l 471 553 q 581 663 471 663 l 913 663 q 1022 553 1022 663 l 1022 486 l 836 486 l 836 538 q 828 572 836 564 q 793 581 819 581 l 699 581 q 664 572 672 581 q 656 538 656 564 l 656 333 q 664 298 656 306 q 699 290 672 290 l 793 290 q 828 298 819 290 q 836 333 836 306 z "},"ª":{"ha":635,"x_min":61,"x_max":571,"o":"m 272 447 l 353 447 q 390 478 390 447 l 390 775 q 353 806 390 806 l 272 806 q 247 801 253 806 q 242 776 242 796 l 242 478 q 247 453 242 458 q 272 447 253 447 m 390 864 l 571 864 l 571 389 l 390 389 l 390 418 q 335 389 378 389 l 139 389 q 61 465 61 389 l 61 786 q 139 864 61 864 l 335 864 q 390 835 378 864 l 390 864 z "},"«":{"ha":964,"x_min":153,"x_max":807,"o":"m 807 553 l 618 344 l 807 135 l 344 135 l 153 344 l 344 553 l 807 553 z "},"¬":{"ha":1082,"x_min":92,"x_max":978,"o":"m 978 557 l 978 172 l 828 172 l 828 368 l 92 368 l 92 557 l 978 557 z "},"­":{"ha":560,"x_min":76,"x_max":483,"o":"m 76 346 l 76 428 l 483 428 l 483 346 l 76 346 z "},"®":{"ha":904,"x_min":68,"x_max":836,"o":"m 836 747 l 836 701 q 781 532 836 588 q 586 476 725 476 l 319 476 q 124 532 181 476 q 68 701 68 588 l 68 747 q 124 917 68 861 q 319 974 181 974 l 586 974 q 781 917 725 974 q 836 747 836 861 m 346 529 l 560 529 q 673 568 639 529 q 707 692 707 607 l 707 757 q 673 883 707 843 q 560 922 639 922 l 346 922 q 233 883 267 922 q 199 757 199 843 l 199 692 q 233 568 199 607 q 346 529 267 529 m 317 857 l 549 857 q 588 819 588 857 l 588 729 q 550 692 588 692 l 538 692 l 599 597 l 494 597 l 440 689 l 415 689 l 415 597 l 317 597 l 317 857 m 488 739 l 488 810 q 475 824 488 824 l 415 824 l 415 726 l 475 726 q 488 739 488 726 z "},"¯":{"ha":926,"x_min":133,"x_max":792,"o":"m 133 764 l 133 844 l 792 844 l 792 764 l 133 764 z "},"°":{"ha":879,"x_min":82,"x_max":799,"o":"m 799 756 l 799 539 q 690 431 799 431 l 190 431 q 82 539 82 431 l 82 756 q 190 864 82 864 l 690 864 q 799 756 799 864 m 557 554 l 557 740 q 549 775 557 767 q 514 783 542 783 l 369 783 q 334 775 342 783 q 326 740 326 767 l 326 554 q 334 519 326 528 q 369 511 342 511 l 514 511 q 549 519 542 511 q 557 554 557 528 z "},"±":{"ha":1008,"x_min":71,"x_max":917,"o":"m 71 179 l 71 300 l 917 300 l 917 179 l 71 179 m 608 599 l 917 599 l 917 458 l 608 458 l 608 356 l 381 356 l 381 458 l 71 458 l 71 599 l 381 599 l 381 714 l 608 714 l 608 599 z "},"²":{"ha":543,"x_min":50,"x_max":496,"o":"m 211 782 l 211 704 l 50 704 l 50 804 q 110 864 50 864 l 436 864 q 496 804 496 864 l 496 739 q 443 596 496 643 l 261 449 l 494 449 l 494 389 l 58 389 l 58 449 l 296 650 q 335 739 335 683 l 335 782 q 331 801 335 797 q 311 806 326 806 l 235 806 q 215 801 219 806 q 211 782 211 797 z "},"³":{"ha":560,"x_min":63,"x_max":515,"o":"m 224 782 l 224 711 l 63 711 l 63 804 q 122 864 63 864 l 454 864 q 515 804 515 864 l 515 685 q 469 632 515 635 q 515 579 515 628 l 515 449 q 454 389 515 389 l 122 389 q 63 449 63 389 l 63 540 l 224 540 l 224 471 q 228 451 224 456 q 247 447 233 447 l 329 447 q 349 451 344 447 q 353 471 353 456 l 353 576 q 349 596 353 592 q 329 600 344 600 l 233 600 l 233 658 l 329 658 q 349 663 344 658 q 353 682 353 667 l 353 782 q 349 801 353 797 q 329 806 344 806 l 247 806 q 228 801 233 806 q 224 782 224 797 z "},"´":{"ha":926,"x_min":232,"x_max":681,"o":"m 232 703 l 424 913 l 681 913 l 442 703 l 232 703 z "},"µ":{"ha":931,"x_min":94,"x_max":836,"o":"m 581 674 l 836 674 l 836 0 l 581 0 l 581 42 q 501 0 564 0 l 350 0 l 350 -196 l 94 -196 l 94 674 l 350 674 l 350 125 q 358 90 350 97 q 393 82 367 82 l 529 82 q 569 92 557 82 q 581 125 581 101 l 581 674 z "},"¶":{"ha":1079,"x_min":74,"x_max":986,"o":"m 625 864 l 625 -196 l 397 -196 l 397 294 l 183 294 q 74 404 74 294 l 74 754 q 183 864 74 864 l 625 864 m 758 864 l 986 864 l 986 -196 l 758 -196 l 758 864 z "},"·":{"ha":453,"x_min":96,"x_max":369,"o":"m 96 339 l 96 529 l 369 529 l 369 339 l 96 339 z "},"¸":{"ha":926,"x_min":243,"x_max":658,"o":"m 418 -206 l 418 -65 l 658 -65 l 658 -218 q 544 -332 658 -332 l 243 -332 l 243 -251 l 374 -251 q 409 -242 400 -251 q 418 -206 418 -233 z "},"¹":{"ha":393,"x_min":24,"x_max":314,"o":"m 314 864 l 314 389 l 133 389 l 133 806 l 24 806 l 24 864 l 314 864 z "},"º":{"ha":629,"x_min":67,"x_max":549,"o":"m 549 799 l 549 454 q 483 389 549 389 l 132 389 q 67 454 67 389 l 67 799 q 132 864 67 864 l 483 864 q 549 799 549 864 m 376 474 l 376 781 q 372 801 376 796 q 351 806 368 806 l 264 806 q 242 801 247 806 q 238 781 238 796 l 238 474 q 242 452 238 457 q 264 447 247 447 l 351 447 q 372 452 368 447 q 376 474 376 457 z "},"»":{"ha":947,"x_min":143,"x_max":797,"o":"m 606 553 l 797 344 l 606 135 l 143 135 l 332 344 l 143 553 l 606 553 z "},"¿":{"ha":894,"x_min":85,"x_max":864,"o":"m 626 672 l 626 482 l 351 482 l 351 672 l 626 672 m 604 79 l 864 79 l 864 -83 q 754 -192 864 -192 l 194 -192 q 85 -83 85 -192 l 85 178 q 194 286 85 286 l 367 286 l 378 382 l 594 382 l 615 196 l 385 196 q 351 187 360 196 q 343 151 343 178 l 343 -67 q 351 -101 343 -93 q 385 -110 358 -110 l 563 -110 q 597 -101 589 -110 q 604 -67 604 -93 l 604 79 z "},"À":{"ha":1021,"x_min":18,"x_max":1004,"o":"m 607 929 l 399 929 l 160 1139 l 415 1139 l 607 929 m 360 253 l 658 253 l 510 706 l 360 253 m 740 0 l 685 171 l 333 171 l 276 0 l 18 0 l 346 864 l 675 864 l 1004 0 l 740 0 z "},"Á":{"ha":1021,"x_min":18,"x_max":1004,"o":"m 865 1139 l 626 929 l 417 929 l 608 1139 l 865 1139 m 360 253 l 658 253 l 510 706 l 360 253 m 740 0 l 685 171 l 333 171 l 276 0 l 18 0 l 346 864 l 675 864 l 1004 0 l 740 0 z "},"Â":{"ha":1021,"x_min":18,"x_max":1004,"o":"m 510 1053 l 386 928 l 139 928 l 389 1144 l 631 1144 l 881 928 l 635 928 l 510 1053 m 360 253 l 658 253 l 510 706 l 360 253 m 740 0 l 685 171 l 333 171 l 276 0 l 18 0 l 346 864 l 675 864 l 1004 0 l 740 0 z "},"Ã":{"ha":1021,"x_min":18,"x_max":1004,"o":"m 360 1007 l 360 929 l 154 929 l 154 1018 q 260 1126 154 1126 l 344 1126 q 502 1074 404 1126 q 619 1021 600 1021 q 647 1050 647 1021 l 647 1126 l 851 1126 l 851 1039 q 746 929 851 929 l 660 929 q 557 956 614 929 q 453 1010 500 983 q 386 1036 407 1036 q 360 1007 360 1036 m 360 253 l 658 253 l 510 706 l 360 253 m 740 0 l 685 171 l 333 171 l 276 0 l 18 0 l 346 864 l 675 864 l 1004 0 l 740 0 z "},"Ä":{"ha":1021,"x_min":18,"x_max":1004,"o":"m 854 1096 l 854 929 l 582 929 l 582 1096 l 854 1096 m 442 1096 l 442 929 l 168 929 l 168 1096 l 442 1096 m 360 253 l 658 253 l 510 706 l 360 253 m 740 0 l 685 171 l 333 171 l 276 0 l 18 0 l 346 864 l 675 864 l 1004 0 l 740 0 z "},"Å":{"ha":1021,"x_min":18,"x_max":1004,"o":"m 415 1065 l 415 1047 q 423 1013 415 1021 q 457 1006 431 1006 l 565 1006 q 599 1013 592 1006 q 607 1047 607 1021 l 607 1065 q 599 1099 607 1092 q 565 1107 592 1107 l 457 1107 q 423 1099 431 1107 q 415 1065 415 1092 m 667 929 l 356 929 q 253 1033 253 929 l 253 1081 q 356 1183 253 1183 l 667 1183 q 769 1081 769 1183 l 769 1033 q 667 929 769 929 m 360 253 l 658 253 l 510 706 l 360 253 m 740 0 l 685 171 l 333 171 l 276 0 l 18 0 l 346 864 l 675 864 l 1004 0 l 740 0 z "},"Æ":{"ha":1489,"x_min":18,"x_max":1432,"o":"m 735 264 l 735 719 l 457 264 l 735 264 m 1004 82 l 1432 82 l 1432 0 l 735 0 l 735 182 l 408 182 l 297 0 l 18 0 l 564 864 l 1414 864 l 1414 782 l 1004 782 l 1004 483 l 1363 483 l 1363 401 l 1004 401 l 1004 82 z "},"Ç":{"ha":942,"x_min":89,"x_max":881,"o":"m 357 -206 l 357 -65 l 597 -65 l 597 -218 q 483 -332 597 -332 l 182 -332 l 182 -251 l 313 -251 q 348 -242 339 -251 q 357 -206 357 -233 m 881 553 l 613 553 l 613 739 q 605 774 613 767 q 569 782 597 782 l 400 782 q 365 774 372 782 q 357 739 357 767 l 357 125 q 365 90 357 97 q 400 82 372 82 l 569 82 q 605 90 597 82 q 613 125 613 97 l 613 308 l 881 308 l 881 110 q 771 0 881 0 l 199 0 q 89 110 89 0 l 89 754 q 199 864 89 864 l 771 864 q 881 754 881 864 l 881 553 z "},"È":{"ha":856,"x_min":100,"x_max":811,"o":"m 565 928 l 356 928 l 117 1138 l 374 1138 l 565 928 m 378 82 l 811 82 l 811 0 l 100 0 l 100 864 l 793 864 l 793 782 l 378 782 l 378 483 l 736 483 l 736 401 l 378 401 l 378 82 z "},"É":{"ha":856,"x_min":100,"x_max":811,"o":"m 799 1138 l 560 928 l 350 928 l 542 1138 l 799 1138 m 378 82 l 811 82 l 811 0 l 100 0 l 100 864 l 793 864 l 793 782 l 378 782 l 378 483 l 736 483 l 736 401 l 378 401 l 378 82 z "},"Ê":{"ha":856,"x_min":83,"x_max":825,"o":"m 454 1054 l 331 929 l 83 929 l 333 1146 l 575 1146 l 825 929 l 579 929 l 454 1054 m 378 401 l 378 82 l 811 82 l 811 0 l 100 0 l 100 864 l 793 864 l 793 782 l 378 782 l 378 483 l 736 483 l 736 401 l 378 401 z "},"Ë":{"ha":919,"x_min":100,"x_max":813,"o":"m 792 1096 l 792 929 l 519 929 l 519 1096 l 792 1096 m 379 1096 l 379 929 l 106 929 l 106 1096 l 379 1096 m 378 82 l 813 82 l 813 0 l 100 0 l 100 864 l 793 864 l 793 782 l 378 782 l 378 483 l 736 483 l 736 401 l 378 401 l 378 82 z "},"Ì":{"ha":474,"x_min":-106,"x_max":382,"o":"m 104 864 l 382 864 l 382 0 l 104 0 l 104 864 m 151 1139 l 343 929 l 133 929 l -106 1139 l 151 1139 z "},"Í":{"ha":474,"x_min":104,"x_max":596,"o":"m 104 864 l 382 864 l 382 0 l 104 0 l 104 864 m 147 928 l 339 1138 l 596 1138 l 357 928 l 147 928 z "},"Î":{"ha":474,"x_min":-124,"x_max":618,"o":"m 104 864 l 382 864 l 382 0 l 104 0 l 104 864 m -124 929 l 126 1146 l 368 1146 l 618 929 l 372 929 l 247 1054 l 124 929 l -124 929 z "},"Ï":{"ha":474,"x_min":-97,"x_max":589,"o":"m 106 864 l 382 864 l 382 0 l 106 0 l 106 864 m -97 1094 l 176 1094 l 176 928 l -97 928 l -97 1094 m 317 1094 l 589 1094 l 589 928 l 317 928 l 317 1094 z "},"Ð":{"ha":1017,"x_min":28,"x_max":928,"o":"m 660 125 l 660 739 q 652 774 660 767 q 617 782 644 782 l 392 782 l 392 481 l 558 481 l 558 394 l 392 394 l 392 82 l 617 82 q 652 90 644 82 q 660 125 660 97 m 122 864 l 818 864 q 928 754 928 864 l 928 110 q 818 0 928 0 l 122 0 l 122 394 l 28 394 l 28 481 l 122 481 l 122 864 z "},"Ñ":{"ha":1028,"x_min":100,"x_max":926,"o":"m 678 864 l 926 864 l 926 0 l 696 0 l 347 614 l 347 0 l 100 0 l 100 864 l 333 864 l 678 249 l 678 864 m 400 1036 q 374 1007 374 1036 l 374 929 l 168 929 l 168 1018 q 274 1126 168 1126 l 358 1126 q 516 1074 418 1126 q 633 1021 614 1021 q 661 1050 661 1021 l 661 1126 l 865 1126 l 865 1039 q 760 929 865 929 l 674 929 q 571 956 628 929 q 467 1010 514 983 q 400 1036 421 1036 z "},"Ò":{"ha":979,"x_min":92,"x_max":886,"o":"m 886 754 l 886 110 q 776 0 886 0 l 201 0 q 92 110 92 0 l 92 754 q 201 864 92 864 l 776 864 q 886 754 886 864 m 619 125 l 619 739 q 611 774 619 767 q 576 782 603 782 l 403 782 q 367 774 375 782 q 360 739 360 767 l 360 125 q 367 90 360 97 q 403 82 375 82 l 576 82 q 611 90 603 82 q 619 125 619 97 m 410 1140 l 601 931 l 392 931 l 153 1140 l 410 1140 z "},"Ó":{"ha":979,"x_min":92,"x_max":886,"o":"m 396 929 l 588 1139 l 844 1139 l 606 929 l 396 929 m 886 754 l 886 110 q 776 0 886 0 l 201 0 q 92 110 92 0 l 92 754 q 201 864 92 864 l 776 864 q 886 754 886 864 m 619 125 l 619 739 q 611 774 619 767 q 576 782 603 782 l 403 782 q 367 774 375 782 q 360 739 360 767 l 360 125 q 367 90 360 97 q 403 82 375 82 l 576 82 q 611 90 603 82 q 619 125 619 97 z "},"Ô":{"ha":979,"x_min":92,"x_max":886,"o":"m 119 929 l 369 1146 l 611 1146 l 861 929 l 615 929 l 490 1054 l 367 929 l 119 929 m 886 754 l 886 110 q 776 0 886 0 l 201 0 q 92 110 92 0 l 92 754 q 201 864 92 864 l 776 864 q 886 754 886 864 m 619 125 l 619 739 q 611 774 619 767 q 576 782 603 782 l 403 782 q 367 774 375 782 q 360 739 360 767 l 360 125 q 367 90 360 97 q 403 82 375 82 l 576 82 q 611 90 603 82 q 619 125 619 97 z "},"Õ":{"ha":979,"x_min":92,"x_max":886,"o":"m 886 754 l 886 110 q 776 0 886 0 l 201 0 q 92 110 92 0 l 92 754 q 201 864 92 864 l 776 864 q 886 754 886 864 m 619 125 l 619 739 q 611 774 619 767 q 576 782 603 782 l 403 782 q 367 774 375 782 q 360 739 360 767 l 360 125 q 367 90 360 97 q 403 82 375 82 l 576 82 q 611 90 603 82 q 619 125 619 97 m 368 1036 q 342 1007 342 1036 l 342 929 l 136 929 l 136 1018 q 242 1126 136 1126 l 326 1126 q 484 1074 386 1126 q 601 1021 582 1021 q 629 1050 629 1021 l 629 1126 l 833 1126 l 833 1039 q 728 929 833 929 l 642 929 q 539 956 596 929 q 435 1010 482 983 q 368 1036 389 1036 z "},"Ö":{"ha":958,"x_min":92,"x_max":888,"o":"m 888 754 l 888 110 q 778 0 888 0 l 201 0 q 92 110 92 0 l 92 754 q 201 864 92 864 l 778 864 q 888 754 888 864 m 619 125 l 619 739 q 611 774 619 767 q 576 782 603 782 l 403 782 q 367 774 375 782 q 360 739 360 767 l 360 125 q 367 90 360 97 q 403 82 375 82 l 576 82 q 611 90 603 82 q 619 125 619 97 m 561 1096 l 833 1096 l 833 931 l 561 931 l 561 1096 m 147 1096 l 421 1096 l 421 931 l 147 931 l 147 1096 z "},"×":{"ha":933,"x_min":111,"x_max":860,"o":"m 860 606 l 622 433 l 857 263 l 746 146 l 485 335 l 224 146 l 114 264 l 347 433 l 111 604 l 222 724 l 485 533 l 747 724 l 860 606 z "},"Ø":{"ha":999,"x_min":68,"x_max":938,"o":"m 642 124 l 642 532 l 354 165 l 354 124 q 362 89 354 97 q 397 81 369 81 l 599 81 q 633 89 625 81 q 642 124 642 97 m 354 740 l 354 319 l 642 686 l 642 740 q 633 775 642 767 q 599 783 625 783 l 397 783 q 362 775 369 783 q 354 740 354 767 m 900 754 l 900 110 q 790 0 900 0 l 225 0 l 189 -46 l 68 -46 l 125 26 q 97 110 97 54 l 97 754 q 207 864 97 864 l 781 864 l 817 910 l 938 910 l 876 832 q 900 754 900 804 z "},"Ù":{"ha":996,"x_min":96,"x_max":900,"o":"m 364 864 l 364 125 q 372 90 364 97 q 407 82 381 82 l 589 82 q 624 90 617 82 q 632 125 632 97 l 632 864 l 900 864 l 900 110 q 790 0 900 0 l 206 0 q 96 110 96 0 l 96 864 l 364 864 m 424 1140 l 615 931 l 406 931 l 167 1140 l 424 1140 z "},"Ú":{"ha":996,"x_min":96,"x_max":900,"o":"m 397 929 l 589 1139 l 846 1139 l 607 929 l 397 929 m 364 864 l 364 125 q 372 90 364 97 q 407 82 381 82 l 589 82 q 624 90 617 82 q 632 125 632 97 l 632 864 l 900 864 l 900 110 q 790 0 900 0 l 206 0 q 96 110 96 0 l 96 864 l 364 864 z "},"Û":{"ha":996,"x_min":96,"x_max":900,"o":"m 125 929 l 375 1146 l 617 1146 l 867 929 l 621 929 l 496 1054 l 372 929 l 125 929 m 364 864 l 364 125 q 372 90 364 97 q 407 82 381 82 l 589 82 q 624 90 617 82 q 632 125 632 97 l 632 864 l 900 864 l 900 110 q 790 0 900 0 l 206 0 q 96 110 96 0 l 96 864 l 364 864 z "},"Ü":{"ha":996,"x_min":94,"x_max":900,"o":"m 632 864 l 900 864 l 900 110 q 790 0 900 0 l 204 0 q 94 110 94 0 l 94 864 l 363 864 l 363 125 q 370 90 363 97 q 406 82 378 82 l 589 82 q 624 90 617 82 q 632 125 632 97 l 632 864 m 151 1096 l 424 1096 l 424 929 l 151 929 l 151 1096 m 564 1096 l 838 1096 l 838 929 l 564 929 l 564 1096 z "},"Ý":{"ha":965,"x_min":4,"x_max":960,"o":"m 832 1139 l 593 929 l 383 929 l 575 1139 l 832 1139 m 625 0 l 357 0 l 357 285 l 4 864 l 268 864 l 489 429 l 699 864 l 960 864 l 625 286 l 625 0 z "},"Þ":{"ha":969,"x_min":107,"x_max":901,"o":"m 633 267 l 633 597 q 625 633 633 625 q 590 640 617 640 l 375 640 l 375 224 l 590 224 q 625 231 617 224 q 633 267 633 239 m 375 722 l 792 722 q 901 613 901 722 l 901 251 q 792 142 901 142 l 375 142 l 375 0 l 107 0 l 107 864 l 375 864 l 375 722 z "},"ß":{"ha":1253,"x_min":107,"x_max":1207,"o":"m 486 222 l 740 222 l 740 125 q 748 90 740 97 q 783 82 756 82 l 910 82 q 944 90 936 82 q 953 125 953 97 l 953 279 q 944 314 953 306 q 910 322 936 322 l 600 322 q 490 432 490 322 l 490 528 q 599 638 490 638 l 806 638 q 843 644 835 638 q 851 678 851 651 l 851 738 q 844 772 851 764 q 808 781 836 781 l 411 781 q 376 772 383 781 q 368 738 368 764 l 368 0 l 107 0 l 107 754 q 217 864 107 864 l 1015 864 q 1125 754 1125 864 l 1125 658 q 1019 556 1125 556 l 783 556 q 748 547 756 556 q 740 513 740 539 l 740 447 q 748 412 740 419 q 783 404 756 404 l 1097 404 q 1207 294 1207 404 l 1207 110 q 1097 0 1207 0 l 596 0 q 486 110 486 0 l 486 222 z "},"à":{"ha":913,"x_min":78,"x_max":818,"o":"m 606 739 l 396 739 l 157 949 l 414 949 l 606 739 m 376 82 l 513 82 q 563 125 563 82 l 563 549 q 513 592 563 592 l 376 592 q 342 583 350 592 q 333 549 333 575 l 333 125 q 342 90 333 97 q 376 82 350 82 m 563 674 l 818 674 l 818 0 l 563 0 l 563 40 q 483 0 543 0 l 188 0 q 78 110 78 0 l 78 564 q 188 674 78 674 l 483 674 q 563 633 543 674 l 563 674 z "},"á":{"ha":913,"x_min":78,"x_max":818,"o":"m 806 949 l 567 739 l 357 739 l 549 949 l 806 949 m 376 82 l 513 82 q 563 125 563 82 l 563 549 q 513 592 563 592 l 376 592 q 342 583 350 592 q 333 549 333 575 l 333 125 q 342 90 333 97 q 376 82 350 82 m 563 674 l 818 674 l 818 0 l 563 0 l 563 40 q 483 0 543 0 l 188 0 q 78 110 78 0 l 78 564 q 188 674 78 674 l 483 674 q 563 633 543 674 l 563 674 z "},"â":{"ha":913,"x_min":78,"x_max":826,"o":"m 456 864 l 332 739 l 85 739 l 335 956 l 576 956 l 826 739 l 581 739 l 456 864 m 376 82 l 513 82 q 563 125 563 82 l 563 549 q 513 592 563 592 l 376 592 q 342 583 350 592 q 333 549 333 575 l 333 125 q 342 90 333 97 q 376 82 350 82 m 563 674 l 818 674 l 818 0 l 563 0 l 563 40 q 483 0 543 0 l 188 0 q 78 110 78 0 l 78 564 q 188 674 78 674 l 483 674 q 563 633 543 674 l 563 674 z "},"ã":{"ha":913,"x_min":78,"x_max":818,"o":"m 311 817 l 311 739 l 106 739 l 106 828 q 211 936 106 936 l 296 936 q 453 883 356 936 q 571 831 551 831 q 599 860 599 831 l 599 936 l 803 936 l 803 849 q 697 739 803 739 l 611 739 q 406 819 542 739 q 338 846 358 846 q 311 817 311 846 m 376 82 l 513 82 q 563 125 563 82 l 563 549 q 513 592 563 592 l 376 592 q 342 583 350 592 q 333 549 333 575 l 333 125 q 342 90 333 97 q 376 82 350 82 m 563 674 l 818 674 l 818 0 l 563 0 l 563 40 q 483 0 543 0 l 188 0 q 78 110 78 0 l 78 564 q 188 674 78 674 l 483 674 q 563 633 543 674 l 563 674 z "},"ä":{"ha":913,"x_min":78,"x_max":818,"o":"m 814 904 l 814 738 l 540 738 l 540 904 l 814 904 m 400 904 l 400 738 l 126 738 l 126 904 l 400 904 m 376 82 l 513 82 q 563 125 563 82 l 563 549 q 513 592 563 592 l 376 592 q 342 583 350 592 q 333 549 333 575 l 333 125 q 342 90 333 97 q 376 82 350 82 m 563 674 l 818 674 l 818 0 l 563 0 l 563 40 q 483 0 543 0 l 188 0 q 78 110 78 0 l 78 564 q 188 674 78 674 l 483 674 q 563 633 543 674 l 563 674 z "},"å":{"ha":913,"x_min":78,"x_max":818,"o":"m 358 875 l 358 857 q 366 823 358 831 q 400 815 374 815 l 508 815 q 542 823 535 815 q 550 857 550 831 l 550 875 q 542 909 550 901 q 508 917 535 917 l 400 917 q 366 909 374 917 q 358 875 358 901 m 610 739 l 299 739 q 196 843 196 739 l 196 890 q 299 993 196 993 l 610 993 q 713 890 713 993 l 713 843 q 610 739 713 739 m 376 82 l 513 82 q 563 125 563 82 l 563 549 q 513 592 563 592 l 376 592 q 342 583 350 592 q 333 549 333 575 l 333 125 q 342 90 333 97 q 376 82 350 82 m 563 674 l 818 674 l 818 0 l 563 0 l 563 40 q 483 0 543 0 l 188 0 q 78 110 78 0 l 78 564 q 188 674 78 674 l 483 674 q 563 633 543 674 l 563 674 z "},"æ":{"ha":1404,"x_min":83,"x_max":1307,"o":"m 1015 592 l 850 592 q 815 583 822 592 q 807 549 807 575 l 807 386 l 1058 386 l 1058 549 q 1050 583 1058 575 q 1015 592 1042 592 m 382 82 l 514 82 q 549 90 540 82 q 558 125 558 99 l 558 299 l 339 247 l 339 125 q 347 90 339 97 q 382 82 356 82 m 1301 304 l 807 304 l 807 125 q 815 90 807 97 q 850 82 822 82 l 1013 82 q 1047 90 1039 82 q 1056 125 1056 97 l 1056 213 l 1304 213 l 1304 110 q 1194 0 1304 0 l 815 0 q 717 12 743 0 q 683 51 692 24 q 642 13 675 25 q 535 0 610 0 l 193 0 q 83 110 83 0 l 83 279 l 558 389 l 558 551 q 549 585 558 576 q 514 593 540 593 l 382 593 q 347 585 356 593 q 339 550 339 578 l 339 421 l 83 421 l 83 564 q 193 674 83 674 l 535 674 q 642 661 610 674 q 683 622 675 649 q 717 662 692 650 q 815 674 743 674 l 1197 674 q 1307 564 1307 674 l 1307 310 l 1301 310 l 1301 304 z "},"ç":{"ha":858,"x_min":78,"x_max":803,"o":"m 325 -206 l 325 -65 l 565 -65 l 565 -218 q 451 -332 565 -332 l 150 -332 l 150 -251 l 281 -251 q 316 -242 307 -251 q 325 -206 325 -233 m 803 433 l 554 433 l 554 549 q 547 583 554 575 q 511 592 539 592 l 376 592 q 342 583 350 592 q 333 549 333 575 l 333 125 q 342 90 333 97 q 376 82 350 82 l 511 82 q 547 90 539 82 q 554 125 554 97 l 554 238 l 803 238 l 803 110 q 693 0 803 0 l 188 0 q 78 110 78 0 l 78 564 q 188 674 78 674 l 693 674 q 803 564 803 674 l 803 433 z "},"è":{"ha":899,"x_min":78,"x_max":832,"o":"m 569 739 l 360 739 l 121 949 l 378 949 l 569 739 m 333 386 l 585 386 l 585 549 q 577 583 585 575 q 542 592 569 592 l 376 592 q 342 583 350 592 q 333 549 333 575 l 333 386 m 188 674 l 722 674 q 832 564 832 674 l 832 304 l 333 304 l 333 125 q 342 90 333 97 q 376 82 350 82 l 540 82 q 575 90 567 82 q 583 125 583 97 l 583 214 l 831 214 l 831 110 q 721 0 831 0 l 188 0 q 78 110 78 0 l 78 564 q 188 674 78 674 z "},"é":{"ha":899,"x_min":78,"x_max":832,"o":"m 807 949 l 568 739 l 358 739 l 550 949 l 807 949 m 333 386 l 585 386 l 585 549 q 577 583 585 575 q 542 592 569 592 l 376 592 q 342 583 350 592 q 333 549 333 575 l 333 386 m 188 674 l 722 674 q 832 564 832 674 l 832 304 l 333 304 l 333 125 q 342 90 333 97 q 376 82 350 82 l 540 82 q 575 90 567 82 q 583 125 583 97 l 583 214 l 831 214 l 831 110 q 721 0 831 0 l 188 0 q 78 110 78 0 l 78 564 q 188 674 78 674 z "},"ê":{"ha":899,"x_min":78,"x_max":832,"o":"m 458 864 l 335 739 l 88 739 l 338 956 l 579 956 l 829 739 l 583 739 l 458 864 m 333 386 l 585 386 l 585 549 q 577 583 585 575 q 542 592 569 592 l 376 592 q 342 583 350 592 q 333 549 333 575 l 333 386 m 188 674 l 722 674 q 832 564 832 674 l 832 304 l 333 304 l 333 125 q 342 90 333 97 q 376 82 350 82 l 540 82 q 575 90 567 82 q 583 125 583 97 l 583 214 l 831 214 l 831 110 q 721 0 831 0 l 188 0 q 78 110 78 0 l 78 564 q 188 674 78 674 z "},"ë":{"ha":899,"x_min":78,"x_max":832,"o":"m 389 906 l 389 739 l 117 739 l 117 906 l 389 906 m 803 906 l 803 739 l 529 739 l 529 906 l 803 906 m 188 674 l 722 674 q 832 564 832 674 l 832 304 l 333 304 l 333 125 q 342 90 333 97 q 376 82 350 82 l 540 82 q 575 90 567 82 q 583 125 583 97 l 583 214 l 831 214 l 831 110 q 721 0 831 0 l 188 0 q 78 110 78 0 l 78 564 q 188 674 78 674 m 333 386 l 585 386 l 585 549 q 577 583 585 575 q 542 592 569 592 l 376 592 q 342 583 350 592 q 333 549 333 575 l 333 386 z "},"ì":{"ha":456,"x_min":-125,"x_max":356,"o":"m 356 0 l 100 0 l 100 674 l 356 674 l 356 0 m 132 949 l 324 739 l 114 739 l -125 949 l 132 949 z "},"í":{"ha":456,"x_min":100,"x_max":579,"o":"m 356 0 l 100 0 l 100 674 l 356 674 l 356 0 m 131 739 l 322 949 l 579 949 l 340 739 l 131 739 z "},"î":{"ha":456,"x_min":-140,"x_max":601,"o":"m 356 0 l 100 0 l 100 672 l 356 672 l 356 0 m -140 739 l 110 956 l 351 956 l 601 739 l 356 739 l 231 864 l 107 739 l -140 739 z "},"ï":{"ha":456,"x_min":-115,"x_max":572,"o":"m 356 0 l 100 0 l 100 672 l 356 672 l 356 0 m 299 907 l 572 907 l 572 740 l 299 740 l 299 907 m -115 907 l 158 907 l 158 740 l -115 740 l -115 907 z "},"ð":{"ha":808,"x_min":89,"x_max":864,"o":"m 608 125 l 608 439 l 388 439 q 353 431 361 439 q 344 396 344 422 l 344 125 q 353 90 344 97 q 388 82 361 82 l 565 82 q 600 90 592 82 q 608 125 608 97 m 864 424 l 864 110 q 754 0 864 0 l 199 0 q 89 110 89 0 l 89 411 q 199 521 89 521 l 593 521 q 510 657 571 589 l 286 606 l 286 692 l 436 726 q 215 864 358 790 l 565 864 q 679 782 619 832 l 839 818 l 839 732 l 749 711 q 864 424 864 578 z "},"ñ":{"ha":919,"x_min":96,"x_max":836,"o":"m 319 815 l 319 738 l 114 738 l 114 826 q 219 935 114 935 l 304 935 q 462 882 364 935 q 579 829 560 829 q 607 858 607 829 l 607 935 l 811 935 l 811 847 q 706 738 811 738 l 619 738 q 517 765 574 738 q 413 818 460 792 q 346 844 367 844 q 319 815 319 844 m 431 674 l 726 674 q 836 564 836 674 l 836 0 l 581 0 l 581 549 q 572 583 581 575 q 538 592 564 592 l 401 592 q 351 549 351 592 l 351 0 l 96 0 l 96 674 l 351 674 l 351 633 q 431 674 371 674 z "},"ò":{"ha":913,"x_min":83,"x_max":828,"o":"m 567 738 l 357 738 l 118 947 l 375 947 l 567 738 m 574 125 l 574 549 q 566 583 574 575 q 531 592 558 592 l 381 592 q 345 583 353 592 q 338 549 338 575 l 338 125 q 345 90 338 97 q 381 82 353 82 l 531 82 q 566 90 558 82 q 574 125 574 97 m 193 674 l 718 674 q 828 564 828 674 l 828 110 q 718 0 828 0 l 193 0 q 83 110 83 0 l 83 564 q 193 674 83 674 z "},"ó":{"ha":913,"x_min":83,"x_max":828,"o":"m 815 947 l 576 738 l 367 738 l 558 947 l 815 947 m 574 125 l 574 549 q 566 583 574 575 q 531 592 558 592 l 381 592 q 345 583 353 592 q 338 549 338 575 l 338 125 q 345 90 338 97 q 381 82 353 82 l 531 82 q 566 90 558 82 q 574 125 574 97 m 193 674 l 718 674 q 828 564 828 674 l 828 110 q 718 0 828 0 l 193 0 q 83 110 83 0 l 83 564 q 193 674 83 674 z "},"ô":{"ha":913,"x_min":83,"x_max":829,"o":"m 458 865 l 335 740 l 88 740 l 338 957 l 579 957 l 829 740 l 583 740 l 458 865 m 574 125 l 574 549 q 566 583 574 575 q 531 592 558 592 l 381 592 q 345 583 353 592 q 338 549 338 575 l 338 125 q 345 90 338 97 q 381 82 353 82 l 531 82 q 566 90 558 82 q 574 125 574 97 m 193 674 l 718 674 q 828 564 828 674 l 828 110 q 718 0 828 0 l 193 0 q 83 110 83 0 l 83 564 q 193 674 83 674 z "},"õ":{"ha":913,"x_min":83,"x_max":828,"o":"m 314 817 l 314 739 l 108 739 l 108 828 q 214 936 108 936 l 299 936 q 456 883 358 936 q 574 831 554 831 q 601 860 601 831 l 601 936 l 806 936 l 806 849 q 700 739 806 739 l 614 739 q 408 819 544 739 q 340 846 361 846 q 314 817 314 846 m 574 125 l 574 549 q 566 583 574 575 q 531 592 558 592 l 381 592 q 345 583 353 592 q 338 549 338 575 l 338 125 q 345 90 338 97 q 381 82 353 82 l 531 82 q 566 90 558 82 q 574 125 574 97 m 193 674 l 718 674 q 828 564 828 674 l 828 110 q 718 0 828 0 l 193 0 q 83 110 83 0 l 83 564 q 193 674 83 674 z "},"ö":{"ha":913,"x_min":83,"x_max":829,"o":"m 193 674 l 719 674 q 829 564 829 674 l 829 110 q 719 0 829 0 l 193 0 q 83 110 83 0 l 83 564 q 193 674 83 674 m 574 549 q 566 583 574 575 q 531 592 558 592 l 382 592 q 347 583 356 592 q 339 549 339 575 l 339 125 q 347 90 339 97 q 382 82 356 82 l 531 82 q 566 90 558 82 q 574 125 574 97 l 574 549 m 118 906 l 390 906 l 390 739 l 118 739 l 118 906 m 531 906 l 804 906 l 804 739 l 531 739 l 531 906 z "},"÷":{"ha":988,"x_min":58,"x_max":904,"o":"m 58 351 l 58 510 l 904 510 l 904 351 l 58 351 m 349 714 l 614 714 l 614 583 l 349 583 l 349 714 m 349 278 l 614 278 l 614 147 l 349 147 l 349 278 z "},"ø":{"ha":922,"x_min":54,"x_max":874,"o":"m 589 124 l 589 406 l 333 124 q 342 88 333 96 q 378 79 350 79 l 546 79 q 581 88 574 79 q 589 124 589 96 m 333 551 l 333 261 l 589 542 l 589 551 q 581 586 589 578 q 546 594 572 594 l 378 594 q 342 587 350 594 q 333 551 333 579 m 833 564 l 833 110 q 724 0 833 0 l 221 0 l 179 -46 l 54 -46 l 118 25 q 89 110 89 53 l 89 564 q 199 674 89 674 l 710 674 l 750 718 l 874 718 l 807 644 q 833 564 833 618 z "},"ù":{"ha":919,"x_min":83,"x_max":824,"o":"m 585 739 l 375 739 l 136 949 l 393 949 l 585 739 m 568 674 l 824 674 l 824 0 l 568 0 l 568 40 q 489 0 549 0 l 193 0 q 83 110 83 0 l 83 674 l 339 674 l 339 125 q 347 90 339 97 q 382 82 356 82 l 518 82 q 568 125 568 82 l 568 674 z "},"ú":{"ha":919,"x_min":83,"x_max":824,"o":"m 797 950 l 558 740 l 349 740 l 540 950 l 797 950 m 568 674 l 824 674 l 824 0 l 568 0 l 568 40 q 489 0 549 0 l 193 0 q 83 110 83 0 l 83 674 l 339 674 l 339 125 q 347 90 339 97 q 382 82 356 82 l 518 82 q 568 125 568 82 l 568 674 z "},"û":{"ha":919,"x_min":83,"x_max":825,"o":"m 454 864 l 331 739 l 83 739 l 333 956 l 575 956 l 825 739 l 579 739 l 454 864 m 568 674 l 824 674 l 824 0 l 568 0 l 568 40 q 489 0 549 0 l 193 0 q 83 110 83 0 l 83 674 l 339 674 l 339 125 q 347 90 339 97 q 382 82 356 82 l 518 82 q 568 125 568 82 l 568 674 z "},"ü":{"ha":940,"x_min":83,"x_max":825,"o":"m 797 906 l 797 739 l 525 739 l 525 906 l 797 906 m 385 906 l 385 739 l 111 739 l 111 906 l 385 906 m 569 674 l 825 674 l 825 0 l 569 0 l 569 42 q 490 0 553 0 l 193 0 q 83 110 83 0 l 83 674 l 339 674 l 339 125 q 347 90 339 97 q 382 82 356 82 l 518 82 q 569 125 569 82 l 569 674 z "},"ý":{"ha":869,"x_min":18,"x_max":867,"o":"m 328 -196 l 151 -196 l 151 -114 l 244 -114 q 320 -99 294 -114 q 361 -47 346 -83 l 382 0 l 285 0 l 18 674 l 285 674 l 446 165 l 610 674 l 867 674 l 589 -22 q 553 -97 571 -69 q 508 -150 536 -125 q 328 -196 456 -196 m 349 740 l 540 950 l 797 950 l 558 740 l 349 740 z "},"þ":{"ha":919,"x_min":94,"x_max":835,"o":"m 579 139 l 579 561 q 572 597 579 589 q 536 604 564 604 l 400 604 q 350 561 350 604 l 350 139 q 400 96 350 96 l 536 96 q 572 103 564 96 q 579 139 579 111 m 428 686 l 725 686 q 835 576 835 686 l 835 124 q 725 14 835 14 l 428 14 q 350 53 367 14 l 350 -196 l 94 -196 l 94 929 l 344 929 l 344 631 q 428 686 360 686 z "},"ÿ":{"ha":914,"x_min":18,"x_max":865,"o":"m 328 -196 l 151 -196 l 151 -114 l 243 -114 q 319 -99 293 -114 q 361 -47 346 -83 l 382 0 l 285 0 l 18 674 l 283 674 l 444 165 l 610 674 l 865 674 l 589 -22 q 553 -97 571 -69 q 508 -150 536 -125 q 328 -196 456 -196 m 522 904 l 796 904 l 796 738 l 522 738 l 522 904 m 110 904 l 382 904 l 382 738 l 110 738 l 110 904 z "},"Ā":{"ha":1021,"x_min":18,"x_max":1004,"o":"m 846 1010 l 846 929 l 188 929 l 188 1010 l 846 1010 m 360 253 l 658 253 l 510 706 l 360 253 m 740 0 l 685 171 l 333 171 l 276 0 l 18 0 l 346 864 l 675 864 l 1004 0 l 740 0 z "},"ā":{"ha":913,"x_min":78,"x_max":818,"o":"m 778 828 l 778 747 l 119 747 l 119 828 l 778 828 m 376 82 l 513 82 q 563 125 563 82 l 563 549 q 513 592 563 592 l 376 592 q 342 583 350 592 q 333 549 333 575 l 333 125 q 342 90 333 97 q 376 82 350 82 m 563 674 l 818 674 l 818 0 l 563 0 l 563 40 q 483 0 543 0 l 188 0 q 78 110 78 0 l 78 564 q 188 674 78 674 l 483 674 q 563 633 543 674 l 563 674 z "},"Ă":{"ha":1021,"x_min":18,"x_max":1004,"o":"m 744 929 l 275 929 q 165 1039 165 929 l 165 1128 l 392 1128 l 392 1053 q 400 1017 392 1025 q 435 1010 408 1010 l 586 1010 q 622 1017 614 1010 q 629 1053 629 1025 l 629 1128 l 854 1128 l 854 1039 q 744 929 854 929 m 360 253 l 658 253 l 510 706 l 360 253 m 740 0 l 685 171 l 333 171 l 276 0 l 18 0 l 346 864 l 675 864 l 1004 0 l 740 0 z "},"ă":{"ha":913,"x_min":78,"x_max":818,"o":"m 690 739 l 221 739 q 111 849 111 739 l 111 938 l 338 938 l 338 863 q 345 828 338 836 q 381 819 353 819 l 532 819 q 567 828 558 819 q 575 863 575 836 l 575 938 l 800 938 l 800 849 q 690 739 800 739 m 376 82 l 513 82 q 563 125 563 82 l 563 549 q 513 592 563 592 l 376 592 q 342 583 350 592 q 333 549 333 575 l 333 125 q 342 90 333 97 q 376 82 350 82 m 563 674 l 818 674 l 818 0 l 563 0 l 563 40 q 483 0 543 0 l 188 0 q 78 110 78 0 l 78 564 q 188 674 78 674 l 483 674 q 563 633 543 674 l 563 674 z "},"Ą":{"ha":1021,"x_min":18,"x_max":1026,"o":"m 360 253 l 658 253 l 510 706 l 360 253 m 804 -271 l 1026 -271 l 1026 -350 l 688 -350 q 578 -240 578 -350 l 578 -156 q 688 -46 578 -46 l 740 -46 l 740 0 l 685 171 l 333 171 l 276 0 l 18 0 l 346 864 l 675 864 l 1004 0 l 994 0 l 994 -125 l 804 -125 q 769 -133 776 -125 q 761 -167 761 -140 l 761 -228 q 769 -263 761 -256 q 804 -271 778 -271 z "},"ą":{"ha":913,"x_min":78,"x_max":849,"o":"m 376 82 l 513 82 q 563 125 563 82 l 563 549 q 513 592 563 592 l 376 592 q 342 583 350 592 q 333 549 333 575 l 333 125 q 342 90 333 97 q 376 82 350 82 m 626 -271 l 849 -271 l 849 -350 l 510 -350 q 400 -240 400 -350 l 400 -156 q 510 -46 400 -46 l 563 -46 l 563 40 q 483 0 543 0 l 188 0 q 78 110 78 0 l 78 564 q 188 674 78 674 l 483 674 q 563 633 543 674 l 563 674 l 818 674 l 818 0 l 817 0 l 817 -125 l 626 -125 q 591 -133 599 -125 q 583 -167 583 -140 l 583 -228 q 592 -263 583 -256 q 626 -271 600 -271 z "},"Ć":{"ha":942,"x_min":89,"x_max":881,"o":"m 824 1139 l 585 929 l 375 929 l 567 1139 l 824 1139 m 881 553 l 613 553 l 613 739 q 605 774 613 767 q 569 782 597 782 l 400 782 q 365 774 372 782 q 357 739 357 767 l 357 125 q 365 90 357 97 q 400 82 372 82 l 569 82 q 605 90 597 82 q 613 125 613 97 l 613 308 l 881 308 l 881 110 q 771 0 881 0 l 199 0 q 89 110 89 0 l 89 754 q 199 864 89 864 l 771 864 q 881 754 881 864 l 881 553 z "},"ć":{"ha":858,"x_min":78,"x_max":803,"o":"m 793 949 l 554 739 l 344 739 l 536 949 l 793 949 m 803 433 l 554 433 l 554 549 q 547 583 554 575 q 511 592 539 592 l 376 592 q 342 583 350 592 q 333 549 333 575 l 333 125 q 342 90 333 97 q 376 82 350 82 l 511 82 q 547 90 539 82 q 554 125 554 97 l 554 238 l 803 238 l 803 110 q 693 0 803 0 l 188 0 q 78 110 78 0 l 78 564 q 188 674 78 674 l 693 674 q 803 564 803 674 l 803 433 z "},"Č":{"ha":942,"x_min":89,"x_max":881,"o":"m 604 929 l 363 929 l 113 1144 l 360 1144 l 483 1019 l 608 1144 l 854 1144 l 604 929 m 881 553 l 613 553 l 613 739 q 605 774 613 767 q 569 782 597 782 l 400 782 q 365 774 372 782 q 357 739 357 767 l 357 125 q 365 90 357 97 q 400 82 372 82 l 569 82 q 605 90 597 82 q 613 125 613 97 l 613 308 l 881 308 l 881 110 q 771 0 881 0 l 199 0 q 89 110 89 0 l 89 754 q 199 864 89 864 l 771 864 q 881 754 881 864 l 881 553 z "},"č":{"ha":858,"x_min":61,"x_max":803,"o":"m 553 739 l 311 739 l 61 954 l 308 954 l 432 829 l 557 954 l 803 954 l 553 739 m 188 674 l 693 674 q 803 564 803 674 l 803 433 l 554 433 l 554 549 q 547 583 554 575 q 511 592 539 592 l 376 592 q 342 583 350 592 q 333 549 333 575 l 333 125 q 342 90 333 97 q 376 82 350 82 l 511 82 q 547 90 539 82 q 554 125 554 97 l 554 238 l 803 238 l 803 110 q 693 0 803 0 l 188 0 q 78 110 78 0 l 78 564 q 188 674 78 674 z "},"Ď":{"ha":1010,"x_min":113,"x_max":918,"o":"m 615 929 l 374 929 l 124 1144 l 371 1144 l 494 1019 l 619 1144 l 865 1144 l 615 929 m 650 125 l 650 739 q 642 774 650 767 q 607 782 633 782 l 381 782 l 381 82 l 607 82 q 642 90 633 82 q 650 125 650 97 m 113 864 l 808 864 q 918 754 918 864 l 918 110 q 808 0 918 0 l 113 0 l 113 864 z "},"ď":{"ha":964,"x_min":78,"x_max":1108,"o":"m 563 929 l 818 929 l 818 0 l 563 0 l 563 39 q 483 0 544 0 l 188 0 q 78 110 78 0 l 78 564 q 188 674 78 674 l 483 674 q 563 635 544 674 l 563 929 m 915 929 l 1108 929 l 1108 842 l 982 663 l 915 663 l 915 929 m 376 82 l 513 82 q 563 125 563 82 l 563 549 q 513 592 563 592 l 376 592 q 342 583 350 592 q 333 549 333 575 l 333 125 q 342 90 333 97 q 376 82 350 82 z "},"Đ":{"ha":1050,"x_min":50,"x_max":949,"o":"m 681 125 l 681 739 q 672 774 681 767 q 638 782 664 782 l 413 782 l 413 481 l 579 481 l 579 394 l 413 394 l 413 82 l 638 82 q 672 90 664 82 q 681 125 681 97 m 144 864 l 839 864 q 949 754 949 864 l 949 110 q 839 0 949 0 l 144 0 l 144 394 l 50 394 l 50 481 l 144 481 l 144 864 z "},"đ":{"ha":919,"x_min":83,"x_max":921,"o":"m 382 82 l 518 82 q 569 125 569 82 l 569 549 q 518 592 569 592 l 382 592 q 347 583 356 592 q 339 549 339 575 l 339 125 q 347 90 339 97 q 382 82 356 82 m 921 832 l 921 750 l 825 750 l 825 0 l 569 0 l 569 42 q 490 0 553 0 l 193 0 q 83 110 83 0 l 83 564 q 193 674 83 674 l 490 674 q 569 632 553 674 l 569 750 l 361 750 l 361 832 l 569 832 l 569 929 l 825 929 l 825 832 l 921 832 z "},"Ē":{"ha":856,"x_min":100,"x_max":811,"o":"m 776 1010 l 776 929 l 118 929 l 118 1010 l 776 1010 m 378 82 l 811 82 l 811 0 l 100 0 l 100 864 l 793 864 l 793 782 l 378 782 l 378 483 l 736 483 l 736 401 l 378 401 l 378 82 z "},"ē":{"ha":899,"x_min":78,"x_max":832,"o":"m 785 828 l 785 747 l 126 747 l 126 828 l 785 828 m 333 386 l 585 386 l 585 549 q 577 583 585 575 q 542 592 569 592 l 376 592 q 342 583 350 592 q 333 549 333 575 l 333 386 m 188 674 l 722 674 q 832 564 832 674 l 832 304 l 333 304 l 333 125 q 342 90 333 97 q 376 82 350 82 l 540 82 q 575 90 567 82 q 583 125 583 97 l 583 214 l 831 214 l 831 110 q 721 0 831 0 l 188 0 q 78 110 78 0 l 78 564 q 188 674 78 674 z "},"Ė":{"ha":856,"x_min":100,"x_max":811,"o":"m 601 1100 l 601 929 l 336 929 l 336 1100 l 601 1100 m 378 82 l 811 82 l 811 0 l 100 0 l 100 864 l 793 864 l 793 782 l 378 782 l 378 483 l 736 483 l 736 401 l 378 401 l 378 82 z "},"ė":{"ha":899,"x_min":78,"x_max":832,"o":"m 593 910 l 593 739 l 328 739 l 328 910 l 593 910 m 333 386 l 585 386 l 585 549 q 577 583 585 575 q 542 592 569 592 l 376 592 q 342 583 350 592 q 333 549 333 575 l 333 386 m 188 674 l 722 674 q 832 564 832 674 l 832 304 l 333 304 l 333 125 q 342 90 333 97 q 376 82 350 82 l 540 82 q 575 90 567 82 q 583 125 583 97 l 583 214 l 831 214 l 831 110 q 721 0 831 0 l 188 0 q 78 110 78 0 l 78 564 q 188 674 78 674 z "},"Ę":{"ha":856,"x_min":100,"x_max":844,"o":"m 622 -271 l 844 -271 l 844 -350 l 506 -350 q 396 -240 396 -350 l 396 -156 q 506 -46 396 -46 l 558 -46 l 558 0 l 100 0 l 100 864 l 793 864 l 793 782 l 378 782 l 378 483 l 736 483 l 736 401 l 378 401 l 378 82 l 811 82 l 811 19 l 813 19 l 813 -125 l 622 -125 q 587 -133 594 -125 q 579 -167 579 -140 l 579 -228 q 587 -263 579 -256 q 622 -271 594 -271 z "},"ę":{"ha":899,"x_min":78,"x_max":832,"o":"m 333 386 l 585 386 l 585 549 q 577 583 585 575 q 542 592 569 592 l 376 592 q 342 583 350 592 q 333 549 333 575 l 333 386 m 188 674 l 722 674 q 832 564 832 674 l 832 304 l 333 304 l 333 125 q 342 90 333 97 q 376 82 350 82 l 540 82 q 575 90 567 82 q 583 125 583 97 l 583 214 l 831 214 l 831 110 q 721 0 831 0 l 589 0 l 589 -125 l 399 -125 q 363 -133 371 -125 q 356 -167 356 -140 l 356 -228 q 364 -263 356 -256 q 399 -271 372 -271 l 621 -271 l 621 -350 l 282 -350 q 172 -240 172 -350 l 172 -156 q 282 -46 172 -46 l 335 -46 l 335 0 l 188 0 q 78 110 78 0 l 78 564 q 188 674 78 674 z "},"Ě":{"ha":856,"x_min":93,"x_max":835,"o":"m 585 929 l 343 929 l 93 1144 l 340 1144 l 464 1019 l 589 1144 l 835 1144 l 585 929 m 378 401 l 378 82 l 811 82 l 811 0 l 100 0 l 100 864 l 793 864 l 793 782 l 378 782 l 378 483 l 736 483 l 736 401 l 378 401 z "},"ě":{"ha":899,"x_min":78,"x_max":832,"o":"m 575 739 l 333 739 l 83 954 l 331 954 l 454 829 l 579 954 l 825 954 l 575 739 m 333 386 l 585 386 l 585 549 q 577 583 585 575 q 542 592 569 592 l 376 592 q 342 583 350 592 q 333 549 333 575 l 333 386 m 188 674 l 722 674 q 832 564 832 674 l 832 304 l 333 304 l 333 125 q 342 90 333 97 q 376 82 350 82 l 540 82 q 575 90 567 82 q 583 125 583 97 l 583 214 l 831 214 l 831 110 q 721 0 831 0 l 188 0 q 78 110 78 0 l 78 564 q 188 674 78 674 z "},"Ğ":{"ha":960,"x_min":89,"x_max":882,"o":"m 717 929 l 247 929 q 138 1039 138 929 l 138 1128 l 364 1128 l 364 1053 q 372 1017 364 1025 q 407 1010 381 1010 l 558 1010 q 594 1017 586 1010 q 601 1053 601 1025 l 601 1128 l 826 1128 l 826 1039 q 717 929 826 929 m 882 581 l 614 581 l 614 739 q 606 774 614 767 q 571 782 597 782 l 400 782 q 365 774 372 782 q 357 739 357 767 l 357 125 q 365 90 357 97 q 400 82 372 82 l 571 82 q 606 90 597 82 q 614 125 614 97 l 614 363 l 472 363 l 472 444 l 882 444 l 882 110 q 772 0 882 0 l 199 0 q 89 110 89 0 l 89 754 q 199 864 89 864 l 772 864 q 882 754 882 864 l 882 581 z "},"ğ":{"ha":908,"x_min":78,"x_max":819,"o":"m 693 739 l 224 739 q 114 849 114 739 l 114 938 l 340 938 l 340 863 q 348 828 340 836 q 383 819 356 819 l 535 819 q 569 828 561 819 q 578 863 578 836 l 578 938 l 803 938 l 803 849 q 693 739 803 739 m 376 82 l 513 82 q 563 125 563 82 l 563 549 q 513 592 563 592 l 376 592 q 342 583 350 592 q 333 549 333 575 l 333 125 q 342 90 333 97 q 376 82 350 82 m 818 42 l 819 42 l 819 -86 q 710 -196 819 -196 l 115 -196 l 115 -114 l 521 -114 q 556 -106 547 -114 q 564 -71 564 -97 l 564 31 l 563 31 l 563 40 q 483 0 543 0 l 188 0 q 78 110 78 0 l 78 564 q 188 674 78 674 l 483 674 q 563 633 543 674 l 563 674 l 818 674 l 818 42 z "},"Ģ":{"ha":960,"x_min":89,"x_max":882,"o":"m 358 -367 l 358 -65 l 614 -65 l 614 -161 l 439 -367 l 358 -367 m 882 581 l 614 581 l 614 739 q 606 774 614 767 q 571 782 597 782 l 400 782 q 365 774 372 782 q 357 739 357 767 l 357 125 q 365 90 357 97 q 400 82 372 82 l 571 82 q 606 90 597 82 q 614 125 614 97 l 614 363 l 472 363 l 472 444 l 882 444 l 882 110 q 772 0 882 0 l 199 0 q 89 110 89 0 l 89 754 q 199 864 89 864 l 772 864 q 882 754 882 864 l 882 581 z "},"ģ":{"ha":908,"x_min":85,"x_max":826,"o":"m 618 1040 l 618 739 l 363 739 l 363 835 l 538 1040 l 618 1040 m 383 82 l 519 82 q 569 125 569 82 l 569 549 q 519 592 569 592 l 383 592 q 348 583 356 592 q 340 549 340 575 l 340 125 q 348 90 340 97 q 383 82 356 82 m 825 42 l 826 42 l 826 -86 q 717 -196 826 -196 l 122 -196 l 122 -114 l 528 -114 q 563 -106 556 -114 q 571 -71 571 -97 l 571 31 l 569 31 l 569 40 q 490 0 550 0 l 194 0 q 85 110 85 0 l 85 564 q 194 674 85 674 l 490 674 q 569 633 550 674 l 569 674 l 825 674 l 825 42 z "},"Ī":{"ha":474,"x_min":-82,"x_max":576,"o":"m 104 864 l 382 864 l 382 0 l 104 0 l 104 864 m -82 929 l -82 1010 l 576 1010 l 576 929 l -82 929 z "},"ī":{"ha":456,"x_min":-99,"x_max":560,"o":"m 356 0 l 100 0 l 100 674 l 356 674 l 356 0 m -99 747 l -99 828 l 560 828 l 560 747 l -99 747 z "},"Į":{"ha":474,"x_min":-36,"x_max":413,"o":"m 190 -271 l 413 -271 l 413 -350 l 74 -350 q -36 -240 -36 -350 l -36 -156 q 74 -46 -36 -46 l 126 -46 l 126 0 l 104 0 l 104 864 l 382 864 l 382 0 l 381 0 l 381 -125 l 190 -125 q 155 -133 163 -125 q 147 -167 147 -140 l 147 -228 q 156 -263 147 -256 q 190 -271 164 -271 z "},"į":{"ha":456,"x_min":-62,"x_max":386,"o":"m 361 929 l 361 775 l 96 775 l 96 929 l 361 929 m 164 -271 l 386 -271 l 386 -350 l 47 -350 q -62 -240 -62 -350 l -62 -156 q 47 -46 -62 -46 l 100 -46 l 100 674 l 356 674 l 356 0 l 354 0 l 354 -125 l 164 -125 q 128 -133 136 -125 q 121 -167 121 -140 l 121 -228 q 128 -263 121 -256 q 164 -271 136 -271 z "},"İ":{"ha":463,"x_min":100,"x_max":376,"o":"m 100 794 l 376 794 l 376 0 l 100 0 l 100 794 m 103 1031 l 368 1031 l 368 860 l 103 860 l 103 1031 z "},"ı":{"ha":456,"x_min":99,"x_max":354,"o":"m 99 674 l 354 674 l 354 0 l 99 0 l 99 674 z "},"Ķ":{"ha":997,"x_min":100,"x_max":978,"o":"m 100 864 l 361 864 l 361 0 l 100 0 l 100 864 m 681 864 l 969 864 l 657 442 l 978 0 l 688 0 l 376 442 l 681 864 m 378 -367 l 378 -65 l 633 -65 l 633 -161 l 458 -367 l 378 -367 z "},"ķ":{"ha":897,"x_min":96,"x_max":885,"o":"m 351 929 l 351 0 l 96 0 l 96 929 l 351 929 m 332 -367 l 332 -65 l 588 -65 l 588 -161 l 413 -367 l 332 -367 m 885 674 l 625 340 l 885 0 l 615 0 l 367 340 l 617 674 l 885 674 z "},"Ĺ":{"ha":789,"x_min":100,"x_max":772,"o":"m 588 1138 l 349 928 l 139 928 l 331 1138 l 588 1138 m 368 82 l 772 82 l 772 0 l 100 0 l 100 864 l 368 864 l 368 82 z "},"ĺ":{"ha":456,"x_min":100,"x_max":581,"o":"m 132 994 l 324 1204 l 581 1204 l 342 994 l 132 994 m 354 0 l 100 0 l 100 929 l 354 929 l 354 0 z "},"Ļ":{"ha":789,"x_min":100,"x_max":772,"o":"m 301 -367 l 301 -65 l 557 -65 l 557 -161 l 382 -367 l 301 -367 m 368 82 l 772 82 l 772 0 l 100 0 l 100 864 l 368 864 l 368 82 z "},"ļ":{"ha":456,"x_min":97,"x_max":354,"o":"m 354 0 l 100 0 l 100 929 l 354 929 l 354 0 m 97 -367 l 97 -65 l 353 -65 l 353 -161 l 178 -367 l 97 -367 z "},"Ľ":{"ha":789,"x_min":-139,"x_max":772,"o":"m 353 931 l 111 931 l -139 1146 l 108 1146 l 232 1021 l 357 1146 l 603 1146 l 353 931 m 368 82 l 772 82 l 772 0 l 100 0 l 100 864 l 368 864 l 368 82 z "},"ľ":{"ha":518,"x_min":100,"x_max":647,"o":"m 100 929 l 356 929 l 356 0 l 100 0 l 100 929 m 453 929 l 647 929 l 647 842 l 519 661 l 453 661 l 453 929 z "},"Ł":{"ha":813,"x_min":-60,"x_max":785,"o":"m 381 82 l 785 82 l 785 0 l 113 0 l 113 326 l -60 269 l -60 364 l 113 421 l 113 864 l 381 864 l 381 510 l 597 582 l 597 488 l 381 415 l 381 82 z "},"ł":{"ha":468,"x_min":-74,"x_max":551,"o":"m 361 0 l 107 0 l 107 390 l -74 331 l -74 424 l 107 483 l 107 929 l 361 929 l 361 568 l 551 632 l 551 538 l 361 475 l 361 0 z "},"Ń":{"ha":1028,"x_min":100,"x_max":926,"o":"m 411 928 l 603 1138 l 860 1138 l 621 928 l 411 928 m 678 864 l 926 864 l 926 0 l 696 0 l 347 614 l 347 0 l 100 0 l 100 864 l 333 864 l 678 249 l 678 864 z "},"ń":{"ha":919,"x_min":96,"x_max":836,"o":"m 833 949 l 594 739 l 385 739 l 576 949 l 833 949 m 431 674 l 726 674 q 836 564 836 674 l 836 0 l 581 0 l 581 549 q 572 583 581 575 q 538 592 564 592 l 401 592 q 351 549 351 592 l 351 0 l 96 0 l 96 674 l 351 674 l 351 633 q 431 674 371 674 z "},"Ņ":{"ha":1028,"x_min":100,"x_max":926,"o":"m 678 864 l 926 864 l 926 0 l 696 0 l 347 614 l 347 0 l 100 0 l 100 864 l 333 864 l 678 249 l 678 864 m 392 -367 l 392 -65 l 647 -65 l 647 -161 l 472 -367 l 392 -367 z "},"ņ":{"ha":919,"x_min":96,"x_max":836,"o":"m 343 -367 l 343 -65 l 599 -65 l 599 -161 l 424 -367 l 343 -367 m 431 674 l 726 674 q 836 564 836 674 l 836 0 l 581 0 l 581 549 q 572 583 581 575 q 538 592 564 592 l 401 592 q 351 549 351 592 l 351 0 l 96 0 l 96 674 l 351 674 l 351 633 q 431 674 371 674 z "},"Ň":{"ha":1028,"x_min":100,"x_max":926,"o":"m 394 929 l 144 1144 l 392 1144 l 515 1019 l 640 1144 l 886 1144 l 636 929 l 394 929 m 678 864 l 926 864 l 926 0 l 696 0 l 347 614 l 347 0 l 100 0 l 100 864 l 333 864 l 678 249 l 678 864 z "},"ň":{"ha":919,"x_min":93,"x_max":836,"o":"m 585 739 l 343 739 l 93 954 l 340 954 l 464 829 l 589 954 l 835 954 l 585 739 m 431 674 l 726 674 q 836 564 836 674 l 836 0 l 581 0 l 581 549 q 572 583 581 575 q 538 592 564 592 l 401 592 q 351 549 351 592 l 351 0 l 96 0 l 96 674 l 351 674 l 351 633 q 431 674 371 674 z "},"Ō":{"ha":979,"x_min":92,"x_max":886,"o":"m 158 929 l 158 1010 l 817 1010 l 817 929 l 158 929 m 886 754 l 886 110 q 776 0 886 0 l 201 0 q 92 110 92 0 l 92 754 q 201 864 92 864 l 776 864 q 886 754 886 864 m 619 125 l 619 739 q 611 774 619 767 q 576 782 603 782 l 403 782 q 367 774 375 782 q 360 739 360 767 l 360 125 q 367 90 360 97 q 403 82 375 82 l 576 82 q 611 90 603 82 q 619 125 619 97 z "},"ō":{"ha":913,"x_min":83,"x_max":828,"o":"m 783 828 l 783 747 l 125 747 l 125 828 l 783 828 m 574 125 l 574 549 q 566 583 574 575 q 531 592 558 592 l 381 592 q 345 583 353 592 q 338 549 338 575 l 338 125 q 345 90 338 97 q 381 82 353 82 l 531 82 q 566 90 558 82 q 574 125 574 97 m 193 674 l 718 674 q 828 564 828 674 l 828 110 q 718 0 828 0 l 193 0 q 83 110 83 0 l 83 564 q 193 674 83 674 z "},"Ő":{"ha":958,"x_min":92,"x_max":1019,"o":"m 201 864 l 778 864 q 888 754 888 864 l 888 110 q 778 0 888 0 l 201 0 q 92 110 92 0 l 92 754 q 201 864 92 864 m 619 739 q 611 774 619 767 q 576 782 603 782 l 403 782 q 367 774 375 782 q 360 739 360 767 l 360 125 q 367 90 360 97 q 403 82 375 82 l 576 82 q 611 90 603 82 q 619 125 619 97 l 619 739 m 443 1150 l 678 1150 l 433 931 l 247 931 l 443 1150 m 785 1150 l 1019 1150 l 767 931 l 581 931 l 785 1150 z "},"ő":{"ha":913,"x_min":83,"x_max":981,"o":"m 193 674 l 719 674 q 829 564 829 674 l 829 110 q 719 0 829 0 l 193 0 q 83 110 83 0 l 83 564 q 193 674 83 674 m 574 549 q 566 583 574 575 q 531 592 558 592 l 382 592 q 347 583 356 592 q 339 549 339 575 l 339 125 q 347 90 339 97 q 382 82 356 82 l 531 82 q 566 90 558 82 q 574 125 574 97 l 574 549 m 404 958 l 639 958 l 394 739 l 208 739 l 404 958 m 747 958 l 981 958 l 728 739 l 542 739 l 747 958 z "},"Œ":{"ha":1374,"x_min":94,"x_max":1318,"o":"m 632 125 l 632 739 q 624 774 632 767 q 589 782 617 782 l 406 782 q 370 774 378 782 q 363 739 363 767 l 363 125 q 370 90 363 97 q 406 82 378 82 l 589 82 q 624 90 617 82 q 632 125 632 97 m 903 82 l 1318 82 l 1318 0 l 704 0 l 704 17 q 614 0 669 0 l 204 0 q 94 110 94 0 l 94 754 q 204 864 94 864 l 614 864 q 704 846 665 864 l 704 864 l 1300 864 l 1300 782 l 903 782 l 903 483 l 1249 483 l 1249 401 l 903 401 l 903 82 z "},"œ":{"ha":1382,"x_min":85,"x_max":1311,"o":"m 822 386 l 1064 386 l 1064 549 q 1056 583 1064 575 q 1021 592 1047 592 l 865 592 q 831 583 839 592 q 822 549 822 575 l 822 386 m 568 125 l 568 549 q 558 583 568 574 q 524 592 549 592 l 383 592 q 348 583 356 592 q 340 549 340 575 l 340 125 q 348 90 340 97 q 383 82 356 82 l 524 82 q 558 91 549 82 q 568 125 568 100 m 821 674 l 1201 674 q 1311 564 1311 674 l 1311 304 l 822 304 l 822 125 q 831 90 822 97 q 865 82 839 82 l 1019 82 q 1055 90 1047 82 q 1063 125 1063 97 l 1063 214 l 1310 214 l 1310 110 q 1200 0 1310 0 l 818 0 q 720 12 746 0 q 686 51 694 24 q 646 13 678 25 q 539 0 614 0 l 194 0 q 85 110 85 0 l 85 564 q 194 674 85 674 l 540 674 q 647 661 615 674 q 688 622 679 649 q 722 662 696 650 q 821 674 747 674 z "},"Ŕ":{"ha":988,"x_min":100,"x_max":932,"o":"m 826 1138 l 588 928 l 378 928 l 569 1138 l 826 1138 m 368 782 l 368 392 l 597 392 q 633 400 625 392 q 640 435 640 408 l 640 739 q 633 774 640 767 q 597 782 625 782 l 368 782 m 368 310 l 368 0 l 100 0 l 100 864 l 799 864 q 908 754 908 864 l 908 419 q 799 310 908 310 l 736 310 l 932 0 l 653 0 l 468 310 l 368 310 z "},"ŕ":{"ha":603,"x_min":96,"x_max":710,"o":"m 710 949 l 471 739 l 261 739 l 453 949 l 710 949 m 351 674 l 351 593 q 503 676 383 676 l 592 676 l 592 581 l 453 581 q 351 475 351 581 l 351 0 l 96 0 l 96 674 l 351 674 z "},"Ŗ":{"ha":988,"x_min":100,"x_max":932,"o":"m 369 -367 l 369 -65 l 625 -65 l 625 -161 l 450 -367 l 369 -367 m 368 782 l 368 392 l 597 392 q 633 400 625 392 q 640 435 640 408 l 640 739 q 633 774 640 767 q 597 782 625 782 l 368 782 m 368 310 l 368 0 l 100 0 l 100 864 l 799 864 q 908 754 908 864 l 908 419 q 799 310 908 310 l 736 310 l 932 0 l 653 0 l 468 310 l 368 310 z "},"ŗ":{"ha":603,"x_min":93,"x_max":592,"o":"m 93 -367 l 93 -65 l 349 -65 l 349 -161 l 174 -367 l 93 -367 m 503 676 l 592 676 l 592 581 l 453 581 q 351 475 351 581 l 351 0 l 96 0 l 96 674 l 351 674 l 351 593 q 503 676 383 676 z "},"Ř":{"ha":988,"x_min":100,"x_max":932,"o":"m 614 929 l 372 929 l 122 1144 l 369 1144 l 493 1019 l 618 1144 l 864 1144 l 614 929 m 368 782 l 368 392 l 597 392 q 633 400 625 392 q 640 435 640 408 l 640 739 q 633 774 640 767 q 597 782 625 782 l 368 782 m 368 310 l 368 0 l 100 0 l 100 864 l 799 864 q 908 754 908 864 l 908 419 q 799 310 908 310 l 736 310 l 932 0 l 653 0 l 468 310 l 368 310 z "},"ř":{"ha":603,"x_min":-25,"x_max":717,"o":"m 467 740 l 225 740 l -25 956 l 222 956 l 346 831 l 471 956 l 717 956 l 467 740 m 351 674 l 351 593 q 503 676 383 676 l 592 676 l 592 581 l 453 581 q 351 475 351 581 l 351 0 l 96 0 l 96 674 l 351 674 z "},"Ś":{"ha":939,"x_min":78,"x_max":861,"o":"m 382 928 l 574 1138 l 831 1138 l 592 928 l 382 928 m 593 125 l 593 351 q 585 386 593 378 q 550 394 578 394 l 188 394 q 78 504 78 394 l 78 754 q 188 864 78 864 l 747 864 q 857 754 857 864 l 857 593 l 589 593 l 589 739 q 581 774 589 767 q 546 782 572 782 l 389 782 q 353 774 361 782 q 346 739 346 767 l 346 519 q 353 484 346 492 q 389 476 361 476 l 751 476 q 861 367 861 476 l 861 110 q 751 0 861 0 l 192 0 q 82 110 82 0 l 82 271 l 350 271 l 350 125 q 358 90 350 97 q 393 82 367 82 l 550 82 q 585 90 578 82 q 593 125 593 97 z "},"ś":{"ha":844,"x_min":69,"x_max":789,"o":"m 340 739 l 532 949 l 789 949 l 550 739 l 340 739 m 524 125 l 524 251 q 516 286 524 278 q 481 294 508 294 l 179 294 q 69 404 69 294 l 69 564 q 179 674 69 674 l 658 674 q 768 564 768 674 l 768 464 l 521 464 l 521 549 q 513 583 521 575 q 478 592 506 592 l 368 592 q 333 583 342 592 q 325 549 325 575 l 325 419 q 333 384 325 392 q 368 376 342 376 l 668 376 q 778 267 778 376 l 778 110 q 668 0 778 0 l 185 0 q 75 110 75 0 l 75 210 l 324 210 l 324 125 q 331 90 324 97 q 367 82 339 82 l 481 82 q 516 90 508 82 q 524 125 524 97 z "},"Ş":{"ha":939,"x_min":78,"x_max":861,"o":"m 593 125 l 593 351 q 585 386 593 378 q 550 394 578 394 l 188 394 q 78 504 78 394 l 78 754 q 188 864 78 864 l 747 864 q 857 754 857 864 l 857 593 l 589 593 l 589 739 q 581 774 589 767 q 546 782 572 782 l 389 782 q 353 774 361 782 q 346 739 346 767 l 346 519 q 353 484 346 492 q 389 476 361 476 l 751 476 q 861 367 861 476 l 861 110 q 751 0 861 0 l 192 0 q 82 110 82 0 l 82 271 l 350 271 l 350 125 q 358 90 350 97 q 393 82 367 82 l 550 82 q 585 90 578 82 q 593 125 593 97 m 339 -367 l 339 -65 l 594 -65 l 594 -161 l 419 -367 l 339 -367 z "},"ş":{"ha":844,"x_min":69,"x_max":778,"o":"m 524 125 l 524 251 q 516 286 524 278 q 481 294 508 294 l 179 294 q 69 404 69 294 l 69 564 q 179 674 69 674 l 658 674 q 768 564 768 674 l 768 464 l 521 464 l 521 549 q 513 583 521 575 q 478 592 506 592 l 368 592 q 333 583 342 592 q 325 549 325 575 l 325 419 q 333 384 325 392 q 368 376 342 376 l 668 376 q 778 267 778 376 l 778 110 q 668 0 778 0 l 185 0 q 75 110 75 0 l 75 210 l 324 210 l 324 125 q 331 90 324 97 q 367 82 339 82 l 481 82 q 516 90 508 82 q 524 125 524 97 m 294 -367 l 294 -65 l 550 -65 l 550 -161 l 375 -367 l 294 -367 z "},"Š":{"ha":939,"x_min":78,"x_max":861,"o":"m 351 929 l 101 1144 l 349 1144 l 472 1019 l 597 1144 l 843 1144 l 593 929 l 351 929 m 593 125 l 593 351 q 585 386 593 378 q 550 394 578 394 l 188 394 q 78 504 78 394 l 78 754 q 188 864 78 864 l 747 864 q 857 754 857 864 l 857 593 l 589 593 l 589 739 q 581 774 589 767 q 546 782 572 782 l 389 782 q 353 774 361 782 q 346 739 346 767 l 346 519 q 353 484 346 492 q 389 476 361 476 l 751 476 q 861 367 861 476 l 861 110 q 751 0 861 0 l 192 0 q 82 110 82 0 l 82 271 l 350 271 l 350 125 q 358 90 350 97 q 393 82 367 82 l 550 82 q 585 90 578 82 q 593 125 593 97 z "},"š":{"ha":844,"x_min":57,"x_max":799,"o":"m 307 739 l 57 954 l 304 954 l 428 829 l 553 954 l 799 954 l 549 739 l 307 739 m 524 125 l 524 251 q 516 286 524 278 q 481 294 508 294 l 179 294 q 69 404 69 294 l 69 564 q 179 674 69 674 l 658 674 q 768 564 768 674 l 768 464 l 521 464 l 521 549 q 513 583 521 575 q 478 592 506 592 l 368 592 q 333 583 342 592 q 325 549 325 575 l 325 419 q 333 384 325 392 q 368 376 342 376 l 668 376 q 778 267 778 376 l 778 110 q 668 0 778 0 l 185 0 q 75 110 75 0 l 75 210 l 324 210 l 324 125 q 331 90 324 97 q 367 82 339 82 l 481 82 q 516 90 508 82 q 524 125 524 97 z "},"Ţ":{"ha":824,"x_min":11,"x_max":813,"o":"m 279 -367 l 279 -65 l 535 -65 l 535 -161 l 360 -367 l 279 -367 m 813 864 l 813 782 l 544 782 l 544 0 l 276 0 l 276 782 l 11 782 l 11 864 l 813 864 z "},"ţ":{"ha":824,"x_min":11,"x_max":813,"o":"m 279 -367 l 279 -65 l 535 -65 l 535 -161 l 360 -367 l 279 -367 m 813 864 l 813 782 l 544 782 l 544 0 l 276 0 l 276 782 l 11 782 l 11 864 l 813 864 z "},"Ť":{"ha":824,"x_min":11,"x_max":813,"o":"m 531 929 l 289 929 l 39 1144 l 286 1144 l 410 1019 l 535 1144 l 781 1144 l 531 929 m 813 864 l 813 782 l 544 782 l 544 0 l 276 0 l 276 782 l 11 782 l 11 864 l 813 864 z "},"ť":{"ha":563,"x_min":26,"x_max":665,"o":"m 390 828 l 390 674 l 529 674 l 529 592 l 390 592 l 390 128 q 398 92 390 100 q 433 85 406 85 l 528 85 l 528 0 l 244 0 q 135 110 135 0 l 135 592 l 26 592 l 26 674 l 135 674 l 135 828 l 390 828 m 472 1018 l 665 1018 l 665 929 l 538 765 l 472 765 l 472 1018 z "},"Ū":{"ha":996,"x_min":96,"x_max":900,"o":"m 364 864 l 364 125 q 372 90 364 97 q 407 82 381 82 l 589 82 q 624 90 617 82 q 632 125 632 97 l 632 864 l 900 864 l 900 110 q 790 0 900 0 l 206 0 q 96 110 96 0 l 96 864 l 364 864 m 168 929 l 168 1010 l 826 1010 l 826 929 l 168 929 z "},"ū":{"ha":919,"x_min":83,"x_max":824,"o":"m 783 829 l 783 749 l 125 749 l 125 829 l 783 829 m 568 674 l 824 674 l 824 0 l 568 0 l 568 40 q 489 0 549 0 l 193 0 q 83 110 83 0 l 83 674 l 339 674 l 339 125 q 347 90 339 97 q 382 82 356 82 l 518 82 q 568 125 568 82 l 568 674 z "},"Ů":{"ha":996,"x_min":96,"x_max":900,"o":"m 760 1081 l 760 1033 q 657 929 760 929 l 346 929 q 243 1033 243 929 l 243 1081 q 346 1183 243 1183 l 657 1183 q 760 1081 760 1183 m 597 1047 l 597 1065 q 590 1099 597 1092 q 556 1107 582 1107 l 447 1107 q 413 1099 421 1107 q 406 1065 406 1092 l 406 1047 q 413 1013 406 1021 q 447 1006 421 1006 l 556 1006 q 590 1013 582 1006 q 597 1047 597 1021 m 364 864 l 364 125 q 372 90 364 97 q 407 82 381 82 l 589 82 q 624 90 617 82 q 632 125 632 97 l 632 864 l 900 864 l 900 110 q 790 0 900 0 l 206 0 q 96 110 96 0 l 96 864 l 364 864 z "},"ů":{"ha":919,"x_min":83,"x_max":824,"o":"m 361 872 l 361 854 q 369 820 361 828 q 403 813 376 813 l 511 813 q 545 820 538 813 q 553 854 553 828 l 553 872 q 545 906 553 899 q 511 914 538 914 l 403 914 q 369 906 376 914 q 361 872 361 899 m 613 736 l 301 736 q 199 840 199 736 l 199 888 q 301 990 199 990 l 613 990 q 715 888 715 990 l 715 840 q 613 736 715 736 m 568 674 l 824 674 l 824 0 l 568 0 l 568 40 q 489 0 549 0 l 193 0 q 83 110 83 0 l 83 674 l 339 674 l 339 125 q 347 90 339 97 q 382 82 356 82 l 518 82 q 568 125 568 82 l 568 674 z "},"Ű":{"ha":968,"x_min":94,"x_max":1017,"o":"m 363 864 l 363 125 q 370 90 363 97 q 406 82 378 82 l 589 82 q 624 90 617 82 q 632 125 632 97 l 632 864 l 900 864 l 900 110 q 790 0 900 0 l 204 0 q 94 110 94 0 l 94 864 l 363 864 m 782 1147 l 1017 1147 l 764 928 l 578 928 l 782 1147 m 440 1147 l 675 1147 l 431 928 l 244 928 l 440 1147 z "},"ű":{"ha":919,"x_min":83,"x_max":968,"o":"m 715 740 l 529 740 l 735 960 l 968 960 l 715 740 m 626 960 l 382 740 l 196 740 l 392 960 l 626 960 m 569 674 l 825 674 l 825 0 l 569 0 l 569 42 q 490 0 553 0 l 193 0 q 83 110 83 0 l 83 674 l 339 674 l 339 125 q 347 90 339 97 q 382 82 356 82 l 518 82 q 569 125 569 82 l 569 674 z "},"Ų":{"ha":996,"x_min":96,"x_max":900,"o":"m 632 864 l 900 864 l 900 110 q 790 0 900 0 l 624 0 l 624 -125 l 433 -125 q 398 -133 406 -125 q 390 -167 390 -140 l 390 -228 q 398 -263 390 -256 q 433 -271 406 -271 l 656 -271 l 656 -350 l 317 -350 q 207 -240 207 -350 l 207 -156 q 317 -46 207 -46 l 369 -46 l 369 0 l 206 0 q 96 110 96 0 l 96 864 l 364 864 l 364 125 q 372 90 364 97 q 407 82 381 82 l 589 82 q 624 90 617 82 q 632 125 632 97 l 632 864 z "},"ų":{"ha":919,"x_min":83,"x_max":856,"o":"m 633 -271 l 856 -271 l 856 -350 l 517 -350 q 407 -240 407 -350 l 407 -156 q 517 -46 407 -46 l 569 -46 l 569 0 l 568 0 l 568 40 q 489 0 549 0 l 193 0 q 83 110 83 0 l 83 674 l 339 674 l 339 125 q 347 90 339 97 q 382 82 356 82 l 518 82 q 568 125 568 82 l 568 674 l 824 674 l 824 -125 l 633 -125 q 598 -133 606 -125 q 590 -167 590 -140 l 590 -228 q 598 -263 590 -256 q 633 -271 606 -271 z "},"Ÿ":{"ha":971,"x_min":7,"x_max":963,"o":"m 424 1096 l 424 929 l 150 929 l 150 1096 l 424 1096 m 836 1096 l 836 929 l 564 929 l 564 1096 l 836 1096 m 628 0 l 360 0 l 360 285 l 7 864 l 271 864 l 492 429 l 701 864 l 963 864 l 628 288 l 628 0 z "},"Ź":{"ha":896,"x_min":56,"x_max":840,"o":"m 810 1139 l 571 929 l 361 929 l 553 1139 l 810 1139 m 840 864 l 840 782 l 360 82 l 826 82 l 826 0 l 56 0 l 56 82 l 536 782 l 78 782 l 78 864 l 840 864 z "},"ź":{"ha":744,"x_min":43,"x_max":746,"o":"m 746 949 l 507 739 l 297 739 l 489 949 l 746 949 m 701 82 l 701 0 l 43 0 l 43 82 l 415 592 l 65 592 l 65 674 l 689 674 l 689 592 l 311 82 l 701 82 z "},"Ż":{"ha":896,"x_min":56,"x_max":840,"o":"m 608 1100 l 608 929 l 343 929 l 343 1100 l 608 1100 m 840 864 l 840 782 l 360 82 l 826 82 l 826 0 l 56 0 l 56 82 l 536 782 l 78 782 l 78 864 l 840 864 z "},"ż":{"ha":744,"x_min":43,"x_max":701,"o":"m 524 910 l 524 739 l 258 739 l 258 910 l 524 910 m 701 82 l 701 0 l 43 0 l 43 82 l 415 592 l 65 592 l 65 674 l 689 674 l 689 592 l 311 82 l 701 82 z "},"Ž":{"ha":896,"x_min":56,"x_max":843,"o":"m 593 929 l 351 929 l 101 1144 l 349 1144 l 472 1019 l 597 1144 l 843 1144 l 593 929 m 78 782 l 78 864 l 840 864 l 840 782 l 360 82 l 826 82 l 826 0 l 56 0 l 56 82 l 536 782 l 78 782 z "},"ž":{"ha":744,"x_min":18,"x_max":760,"o":"m 510 739 l 268 739 l 18 954 l 265 954 l 389 829 l 514 954 l 760 954 l 510 739 m 701 82 l 701 0 l 43 0 l 43 82 l 415 592 l 65 592 l 65 674 l 689 674 l 689 592 l 311 82 l 701 82 z "},"ƒ":{"ha":774,"x_min":25,"x_max":728,"o":"m 728 825 l 653 825 q 604 813 619 825 q 583 767 589 800 l 567 674 l 707 674 l 707 592 l 551 592 l 433 -49 q 369 -160 418 -124 q 204 -196 321 -196 l 25 -196 l 25 -112 l 100 -112 q 149 -100 133 -112 q 171 -53 164 -87 l 289 592 l 160 592 l 160 674 l 303 674 l 319 761 q 383 873 333 836 q 549 910 432 910 l 728 910 l 728 825 z "},"Ș":{"ha":939,"x_min":78,"x_max":861,"o":"m 593 125 l 593 351 q 585 386 593 378 q 550 394 578 394 l 188 394 q 78 504 78 394 l 78 754 q 188 864 78 864 l 747 864 q 857 754 857 864 l 857 593 l 589 593 l 589 739 q 581 774 589 767 q 546 782 572 782 l 389 782 q 353 774 361 782 q 346 739 346 767 l 346 519 q 353 484 346 492 q 389 476 361 476 l 751 476 q 861 367 861 476 l 861 110 q 751 0 861 0 l 192 0 q 82 110 82 0 l 82 271 l 350 271 l 350 125 q 358 90 350 97 q 393 82 367 82 l 550 82 q 585 90 578 82 q 593 125 593 97 m 336 -367 l 336 -65 l 592 -65 l 592 -161 l 417 -367 l 336 -367 z "},"ș":{"ha":844,"x_min":69,"x_max":778,"o":"m 524 125 l 524 251 q 516 286 524 278 q 481 294 508 294 l 179 294 q 69 404 69 294 l 69 564 q 179 674 69 674 l 658 674 q 768 564 768 674 l 768 464 l 521 464 l 521 549 q 513 583 521 575 q 478 592 506 592 l 368 592 q 333 583 342 592 q 325 549 325 575 l 325 419 q 333 384 325 392 q 368 376 342 376 l 668 376 q 778 267 778 376 l 778 110 q 668 0 778 0 l 185 0 q 75 110 75 0 l 75 210 l 324 210 l 324 125 q 331 90 324 97 q 367 82 339 82 l 481 82 q 516 90 508 82 q 524 125 524 97 m 282 -367 l 282 -65 l 538 -65 l 538 -161 l 363 -367 l 282 -367 z "},"Ț":{"ha":824,"x_min":11,"x_max":813,"o":"m 283 -367 l 283 -65 l 539 -65 l 539 -161 l 364 -367 l 283 -367 m 813 864 l 813 782 l 544 782 l 544 0 l 276 0 l 276 782 l 11 782 l 11 864 l 813 864 z "},"ț":{"ha":563,"x_min":26,"x_max":529,"o":"m 153 -367 l 153 -65 l 408 -65 l 408 -161 l 233 -367 l 153 -367 m 529 592 l 390 592 l 390 128 q 398 92 390 100 q 433 85 406 85 l 528 85 l 528 0 l 244 0 q 135 110 135 0 l 135 592 l 26 592 l 26 674 l 135 674 l 135 828 l 390 828 l 390 674 l 529 674 l 529 592 z "},"ˆ":{"ha":926,"x_min":92,"x_max":833,"o":"m 92 703 l 342 919 l 583 919 l 833 703 l 588 703 l 463 828 l 339 703 l 92 703 z "},"ˇ":{"ha":926,"x_min":92,"x_max":833,"o":"m 342 694 l 92 910 l 339 910 l 463 785 l 588 910 l 833 910 l 583 694 l 342 694 z "},"ˉ":{"ha":840,"x_min":110,"x_max":729,"o":"m 110 764 l 110 844 l 729 844 l 729 764 l 110 764 z "},"˘":{"ha":926,"x_min":118,"x_max":807,"o":"m 582 910 l 807 910 l 807 821 q 697 711 807 711 l 228 711 q 118 821 118 711 l 118 910 l 344 910 l 344 835 q 353 800 344 808 q 388 792 361 792 l 539 792 q 574 800 567 792 q 582 835 582 808 l 582 910 z "},"˙":{"ha":926,"x_min":335,"x_max":600,"o":"m 335 725 l 335 896 l 600 896 l 600 725 l 335 725 z "},"˚":{"ha":926,"x_min":204,"x_max":721,"o":"m 721 843 l 721 796 q 618 692 721 692 l 307 692 q 204 796 204 692 l 204 843 q 307 946 204 946 l 618 946 q 721 843 721 946 m 558 810 l 558 828 q 551 862 558 854 q 517 869 543 869 l 408 869 q 374 862 382 869 q 367 828 367 854 l 367 810 q 374 776 367 783 q 408 768 382 768 l 517 768 q 551 776 543 768 q 558 810 558 783 z "},"˛":{"ha":926,"x_min":238,"x_max":686,"o":"m 464 -271 l 686 -271 l 686 -350 l 347 -350 q 238 -240 238 -350 l 238 -156 q 347 -46 238 -46 l 400 -46 l 400 19 l 654 19 l 654 -125 l 464 -125 q 428 -133 436 -125 q 421 -167 421 -140 l 421 -228 q 428 -263 421 -256 q 464 -271 436 -271 z "},"˜":{"ha":926,"x_min":114,"x_max":811,"o":"m 346 825 q 319 796 319 825 l 319 718 l 114 718 l 114 807 q 219 915 114 915 l 304 915 q 462 863 364 915 q 579 810 560 810 q 607 839 607 810 l 607 915 l 811 915 l 811 828 q 706 718 811 718 l 619 718 q 517 745 574 718 q 413 799 460 772 q 346 825 367 825 z "},"˝":{"ha":926,"x_min":96,"x_max":867,"o":"m 633 922 l 867 922 l 614 703 l 428 703 l 633 922 m 292 922 l 525 922 l 281 703 l 96 703 l 292 922 z "},"π":{"ha":1156,"x_min":57,"x_max":1107,"o":"m 1107 674 l 1107 592 l 961 592 l 961 0 l 707 0 l 707 592 l 453 592 l 453 110 q 343 0 453 0 l 69 0 l 69 85 l 154 85 q 189 92 181 85 q 197 128 197 100 l 197 592 l 57 592 l 57 674 l 1107 674 z "},"ँ":{"ha":0,"x_min":-618,"x_max":185,"o":"m -517 951 q -595 978 -572 951 q -618 1060 -618 1006 l -618 1183 l -390 1183 l -390 1078 q -381 1043 -390 1053 q -344 1033 -371 1033 l -89 1033 q -53 1043 -62 1033 q -44 1078 -44 1053 l -44 1183 l 185 1183 l 185 1060 q 162 978 185 1006 q 83 951 139 951 l -517 951 m -292 1125 l -292 1263 l -142 1263 l -142 1125 l -292 1125 z "},"ं":{"ha":0,"x_min":-394,"x_max":-124,"o":"m -394 954 l -394 1133 l -124 1133 l -124 954 l -394 954 z "},"ः":{"ha":558,"x_min":192,"x_max":453,"o":"m 192 572 l 192 789 l 453 789 l 453 572 l 192 572 m 192 90 l 192 307 l 453 307 l 453 90 l 192 90 z "},"अ":{"ha":1499,"x_min":78,"x_max":1526,"o":"m 1526 864 l 1526 782 l 1379 782 l 1379 0 l 1101 0 l 1101 415 l 896 415 l 896 214 q 871 133 896 158 q 790 108 846 108 l 185 108 q 103 133 129 108 q 78 214 78 158 l 78 350 l 356 350 l 356 235 q 365 199 356 208 q 401 189 375 189 l 572 189 q 609 199 600 189 q 618 235 618 208 l 618 396 q 608 433 618 422 q 571 443 597 443 l 392 443 l 392 525 l 571 525 q 608 535 597 525 q 618 572 618 544 l 618 736 q 609 773 618 764 q 572 782 600 782 l 401 782 q 365 773 375 782 q 356 736 356 764 l 356 621 l 78 621 l 78 758 q 103 839 78 814 q 185 864 129 864 l 790 864 q 871 839 846 864 q 896 758 896 814 l 896 593 q 810 503 896 504 l 810 497 l 1101 497 l 1101 864 l 1526 864 z "},"आ":{"ha":2006,"x_min":78,"x_max":2033,"o":"m 2033 864 l 2033 782 l 1886 782 l 1886 0 l 1608 0 l 1608 782 l 1379 782 l 1379 0 l 1101 0 l 1101 415 l 896 415 l 896 214 q 871 133 896 158 q 790 108 846 108 l 185 108 q 103 133 129 108 q 78 214 78 158 l 78 350 l 356 350 l 356 235 q 365 199 356 208 q 401 189 375 189 l 572 189 q 609 199 600 189 q 618 235 618 208 l 618 396 q 608 433 618 422 q 571 443 597 443 l 392 443 l 392 525 l 571 525 q 608 535 597 525 q 618 572 618 544 l 618 736 q 609 773 618 764 q 572 782 600 782 l 401 782 q 365 773 375 782 q 356 736 356 764 l 356 621 l 78 621 l 78 758 q 103 839 78 814 q 185 864 129 864 l 790 864 q 871 839 846 864 q 896 758 896 814 l 896 593 q 810 503 896 504 l 810 497 l 1101 497 l 1101 864 l 2033 864 z "},"इ":{"ha":1021,"x_min":-28,"x_max":1049,"o":"m 910 592 l 415 592 q 379 582 389 592 q 369 546 369 572 l 369 496 q 379 460 369 469 q 415 450 389 450 l 826 450 q 908 425 882 450 q 933 344 933 400 l 933 214 q 908 133 933 158 q 826 108 882 108 l 388 108 l 388 0 l 97 0 l 97 264 l 388 264 l 388 190 l 610 190 q 646 199 636 190 q 656 236 656 208 l 656 322 q 646 359 656 350 q 610 368 636 368 l 197 368 q 117 393 142 368 q 92 474 92 418 l 92 568 q 117 649 92 624 q 197 674 142 674 l 631 674 l 631 782 l -28 782 l -28 864 l 1049 864 l 1049 782 l 910 782 l 910 592 z "},"ई":{"ha":1022,"x_min":-26,"x_max":1050,"o":"m 911 592 l 417 592 q 380 582 389 592 q 371 546 371 572 l 371 496 q 380 460 371 469 q 417 450 389 450 l 828 450 q 909 425 883 450 q 935 344 935 400 l 935 214 q 909 133 935 158 q 828 108 883 108 l 389 108 l 389 0 l 99 0 l 99 264 l 389 264 l 389 190 l 611 190 q 648 199 639 190 q 657 236 657 208 l 657 322 q 648 359 657 350 q 611 368 639 368 l 199 368 q 118 393 143 368 q 93 474 93 418 l 93 568 q 118 649 93 624 q 199 674 143 674 l 632 674 l 632 782 l -26 782 l -26 864 l 606 864 l 606 1060 q 631 1140 606 1115 q 711 1165 656 1165 l 1033 1165 l 1033 1083 l 929 1083 q 893 1074 903 1083 q 883 1039 883 1065 l 883 864 l 1050 864 l 1050 782 l 911 782 l 911 592 z "},"उ":{"ha":996,"x_min":-28,"x_max":1024,"o":"m 1024 864 l 1024 782 l 856 782 q 876 732 876 769 l 876 564 q 789 474 876 475 l 789 468 q 876 378 876 467 l 876 106 q 851 25 876 50 q 769 0 825 0 l 169 0 q 88 25 114 0 q 63 106 63 50 l 63 286 l 340 286 l 340 126 q 350 92 340 101 q 386 82 360 82 l 553 82 q 589 92 579 82 q 599 126 599 101 l 599 385 q 590 421 599 411 q 553 431 581 431 l 369 431 l 369 513 l 553 513 q 590 522 581 513 q 599 558 599 531 l 599 736 q 590 773 599 764 q 553 782 581 782 l -28 782 l -28 864 l 1024 864 z "},"ऊ":{"ha":1476,"x_min":-28,"x_max":1504,"o":"m 1504 864 l 1504 782 l 865 782 q 885 732 885 771 l 885 568 q 799 478 885 478 l 799 472 q 817 471 811 472 l 1307 471 q 1388 446 1363 471 q 1414 365 1414 421 l 1414 106 q 1388 25 1414 50 q 1307 0 1363 0 l 950 0 l 950 82 l 1090 82 q 1126 92 1117 82 q 1136 126 1136 101 l 1136 344 q 1126 379 1136 369 q 1090 389 1117 389 l 885 389 l 885 106 q 860 25 885 50 q 779 0 835 0 l 178 0 q 97 25 122 0 q 72 106 72 50 l 72 286 l 350 286 l 350 126 q 360 92 350 101 q 396 82 369 82 l 561 82 q 597 92 588 82 q 607 126 607 101 l 607 385 q 598 421 607 411 q 561 431 589 431 l 378 431 l 378 513 l 561 513 q 598 522 589 513 q 607 558 607 531 l 607 736 q 598 773 607 764 q 561 782 589 782 l -28 782 l -28 864 l 1504 864 z "},"ऋ":{"ha":1929,"x_min":-28,"x_max":1957,"o":"m 1368 546 l 1368 401 q 1378 365 1368 375 q 1411 356 1388 356 l 1535 356 q 1567 365 1558 356 q 1576 401 1576 375 l 1576 546 q 1567 582 1576 572 q 1532 592 1558 592 l 1414 592 q 1378 582 1388 592 q 1368 546 1368 572 m 971 782 l 971 356 l 1124 356 q 1097 432 1097 371 l 1097 568 q 1122 648 1097 622 q 1203 674 1147 674 l 1733 674 q 1814 648 1789 674 q 1839 568 1839 622 l 1839 418 q 1824 348 1839 369 q 1775 324 1808 326 l 1775 318 q 1824 297 1808 315 q 1839 233 1839 279 l 1839 106 q 1814 26 1839 51 q 1732 0 1789 0 l 1199 0 q 1097 106 1097 0 l 1097 186 l 1371 186 l 1371 121 q 1381 90 1371 97 q 1418 82 1392 82 l 1533 82 q 1569 92 1561 83 q 1576 128 1576 101 l 1576 228 q 1567 263 1576 254 q 1532 272 1557 272 l 971 272 l 971 0 l 694 0 l 694 272 l 633 272 l 365 0 l 53 0 l 374 326 l 239 514 q 167 575 204 560 q 71 590 131 590 l 32 590 l 32 674 l 249 674 q 390 655 343 674 q 482 576 438 636 l 646 356 l 694 356 l 694 782 l -28 782 l -28 864 l 1957 864 l 1957 782 l 971 782 z "},"ऌ":{"ha":1549,"x_min":-28,"x_max":1576,"o":"m 1432 47 l 1193 47 q 1156 37 1167 47 q 1146 1 1146 26 l 1146 -119 q 1156 -155 1146 -144 q 1193 -165 1167 -165 l 1472 -165 l 1472 -247 l 986 -247 q 906 -223 931 -247 q 882 -143 882 -199 l 882 25 q 906 105 882 81 q 986 129 931 129 l 1153 129 l 1153 592 l 950 592 q 914 582 924 592 q 904 547 904 572 l 904 254 l 628 254 l 628 547 q 617 582 628 572 q 581 592 607 592 l 424 592 q 388 582 397 592 q 379 547 379 572 l 379 126 q 388 92 379 101 q 424 82 397 82 l 647 82 l 647 0 l 207 0 q 126 25 151 0 q 100 106 100 50 l 100 568 q 126 649 100 624 q 207 674 151 674 l 668 674 q 738 654 717 674 q 763 590 760 635 l 768 590 q 792 653 771 633 q 857 674 813 674 l 1153 674 l 1153 782 l -28 782 l -28 864 l 1576 864 l 1576 782 l 1432 782 l 1432 47 z "},"ऍ":{"ha":1072,"x_min":-28,"x_max":1100,"o":"m 851 951 l 249 951 q 167 976 193 951 q 142 1057 142 1001 l 142 1183 l 408 1183 l 408 1078 q 418 1043 408 1053 q 454 1033 428 1033 l 646 1033 q 681 1043 672 1033 q 690 1078 690 1053 l 690 1183 l 957 1183 l 957 1057 q 932 976 957 1001 q 851 951 907 951 m 1100 864 l 1100 782 l 971 782 l 971 500 q 946 419 971 444 q 865 394 921 394 l 540 394 l 540 476 l 647 476 q 683 486 674 476 q 693 521 693 496 l 693 782 l 397 782 l 397 126 q 407 92 397 101 q 443 82 417 82 l 640 82 q 676 92 667 82 q 686 126 686 101 l 686 272 l 964 272 l 964 106 q 939 25 964 50 q 858 0 914 0 l 225 0 q 144 25 169 0 q 119 106 119 50 l 119 782 l -28 782 l -28 864 l 1100 864 z "},"ऎ":{"ha":1072,"x_min":-28,"x_max":1100,"o":"m 1100 864 l 1100 782 l 971 782 l 971 500 q 946 419 971 444 q 865 394 921 394 l 540 394 l 540 476 l 647 476 q 683 486 674 476 q 693 521 693 496 l 693 782 l 397 782 l 397 126 q 407 92 397 101 q 443 82 417 82 l 640 82 q 676 92 667 82 q 686 126 686 101 l 686 272 l 964 272 l 964 106 q 939 25 964 50 q 858 0 914 0 l 225 0 q 144 25 169 0 q 119 106 119 50 l 119 782 l -28 782 l -28 864 l 694 864 l 694 904 q 685 940 694 931 q 649 950 675 950 l 265 950 q 185 975 210 950 q 160 1056 160 1000 l 160 1164 l 438 1164 l 438 1076 q 447 1042 438 1051 q 483 1032 457 1032 l 867 1032 q 947 1007 922 1032 q 972 926 972 982 l 972 864 l 1100 864 z "},"ए":{"ha":1072,"x_min":-28,"x_max":1100,"o":"m 1100 864 l 1100 782 l 971 782 l 971 500 q 946 419 971 444 q 865 394 921 394 l 540 394 l 540 476 l 647 476 q 683 486 674 476 q 693 521 693 496 l 693 782 l 397 782 l 397 126 q 407 92 397 101 q 443 82 417 82 l 640 82 q 676 92 667 82 q 686 126 686 101 l 686 272 l 964 272 l 964 106 q 939 25 964 50 q 858 0 914 0 l 225 0 q 144 25 169 0 q 119 106 119 50 l 119 782 l -28 782 l -28 864 l 1100 864 z "},"ऐ":{"ha":1072,"x_min":-28,"x_max":1100,"o":"m 1100 864 l 1100 782 l 971 782 l 971 500 q 946 419 971 444 q 865 394 921 394 l 540 394 l 540 476 l 647 476 q 683 486 674 476 q 693 521 693 496 l 693 782 l 397 782 l 397 126 q 407 92 397 101 q 443 82 417 82 l 640 82 q 676 92 667 82 q 686 126 686 101 l 686 272 l 964 272 l 964 106 q 939 25 964 50 q 858 0 914 0 l 225 0 q 144 25 169 0 q 119 106 119 50 l 119 782 l -28 782 l -28 864 l 707 864 q 550 1013 643 907 l 417 1165 l 715 1165 l 969 864 l 1100 864 z "},"ऑ":{"ha":2000,"x_min":78,"x_max":2028,"o":"m 1797 951 l 1194 951 q 1113 976 1139 951 q 1088 1057 1088 1001 l 1088 1183 l 1354 1183 l 1354 1078 q 1364 1043 1354 1053 q 1400 1033 1374 1033 l 1592 1033 q 1627 1043 1618 1033 q 1636 1078 1636 1053 l 1636 1183 l 1903 1183 l 1903 1057 q 1878 976 1903 1001 q 1797 951 1853 951 m 2028 864 l 2028 782 l 1881 782 l 1881 0 l 1603 0 l 1603 782 l 1379 782 l 1379 0 l 1101 0 l 1101 415 l 896 415 l 896 214 q 871 133 896 158 q 790 108 846 108 l 185 108 q 103 133 129 108 q 78 214 78 158 l 78 350 l 356 350 l 356 235 q 365 199 356 208 q 401 189 375 189 l 572 189 q 609 199 600 189 q 618 235 618 208 l 618 396 q 608 433 618 422 q 571 443 597 443 l 392 443 l 392 525 l 571 525 q 608 535 597 525 q 618 572 618 544 l 618 736 q 609 773 618 764 q 572 782 600 782 l 401 782 q 365 773 375 782 q 356 736 356 764 l 356 621 l 78 621 l 78 758 q 103 839 78 814 q 185 864 129 864 l 790 864 q 871 839 846 864 q 896 758 896 814 l 896 593 q 810 503 896 504 l 810 497 l 1101 497 l 1101 864 l 2028 864 z "},"ऒ":{"ha":2000,"x_min":78,"x_max":2028,"o":"m 2028 864 l 2028 782 l 1881 782 l 1881 0 l 1603 0 l 1603 782 l 1379 782 l 1379 0 l 1101 0 l 1101 415 l 896 415 l 896 214 q 871 133 896 158 q 790 108 846 108 l 185 108 q 103 133 129 108 q 78 214 78 158 l 78 350 l 356 350 l 356 235 q 365 199 356 208 q 401 189 375 189 l 572 189 q 609 199 600 189 q 618 235 618 208 l 618 396 q 608 433 618 422 q 571 443 597 443 l 392 443 l 392 525 l 571 525 q 608 535 597 525 q 618 572 618 544 l 618 736 q 609 773 618 764 q 572 782 600 782 l 401 782 q 365 773 375 782 q 356 736 356 764 l 356 621 l 78 621 l 78 758 q 103 839 78 814 q 185 864 129 864 l 790 864 q 871 839 846 864 q 896 758 896 814 l 896 593 q 810 503 896 504 l 810 497 l 1101 497 l 1101 864 l 1603 864 l 1603 904 q 1593 940 1603 931 q 1557 950 1583 950 l 1174 950 q 1093 975 1118 950 q 1068 1056 1068 1000 l 1068 1164 l 1346 1164 l 1346 1076 q 1356 1042 1346 1051 q 1392 1032 1365 1032 l 1775 1032 q 1856 1007 1831 1032 q 1881 926 1881 982 l 1881 864 l 2028 864 z "},"ओ":{"ha":2001,"x_min":78,"x_max":2029,"o":"m 2029 864 l 2029 782 l 1882 782 l 1882 0 l 1604 0 l 1604 782 l 1379 782 l 1379 0 l 1101 0 l 1101 415 l 896 415 l 896 214 q 871 133 896 158 q 790 108 846 108 l 185 108 q 103 133 129 108 q 78 214 78 158 l 78 350 l 356 350 l 356 235 q 365 199 356 208 q 401 189 375 189 l 572 189 q 609 199 600 189 q 618 235 618 208 l 618 396 q 608 433 618 422 q 571 443 597 443 l 392 443 l 392 525 l 571 525 q 608 535 597 525 q 618 572 618 544 l 618 736 q 609 773 618 764 q 572 782 600 782 l 401 782 q 365 773 375 782 q 356 736 356 764 l 356 621 l 78 621 l 78 758 q 103 839 78 814 q 185 864 129 864 l 790 864 q 871 839 846 864 q 896 758 896 814 l 896 593 q 810 503 896 504 l 810 497 l 1101 497 l 1101 864 l 1618 864 q 1461 1013 1554 907 l 1328 1165 l 1626 1165 l 1881 864 l 2029 864 z "},"औ":{"ha":2031,"x_min":108,"x_max":2058,"o":"m 2058 864 l 2058 782 l 1911 782 l 1911 0 l 1633 0 l 1633 782 l 1410 782 l 1410 0 l 1132 0 l 1132 415 l 926 415 l 926 214 q 901 133 926 158 q 821 108 876 108 l 215 108 q 134 133 160 108 q 108 214 108 158 l 108 350 l 386 350 l 386 235 q 396 199 386 208 q 432 189 406 189 l 603 189 q 640 199 631 189 q 649 235 649 208 l 649 396 q 638 433 649 422 q 601 443 628 443 l 422 443 l 422 525 l 601 525 q 638 535 628 525 q 649 572 649 544 l 649 736 q 640 773 649 764 q 603 782 631 782 l 432 782 q 396 773 406 782 q 386 736 386 764 l 386 621 l 108 621 l 108 758 q 134 839 108 814 q 215 864 160 864 l 821 864 q 901 839 876 864 q 926 758 926 814 l 926 593 q 840 503 926 504 l 840 497 l 1132 497 l 1132 864 l 1629 864 q 1486 986 1581 899 l 1296 1165 l 1549 1165 l 1610 1092 q 1771 864 1706 981 l 1781 864 q 1694 1090 1758 907 l 1668 1165 l 1856 1165 l 1911 864 l 2058 864 z "},"क":{"ha":1511,"x_min":-28,"x_max":1539,"o":"m 1539 782 l 894 782 l 894 661 q 939 674 908 674 l 1315 674 q 1396 649 1371 674 q 1421 568 1421 624 l 1421 214 q 1396 133 1421 158 q 1315 108 1371 108 l 964 108 l 964 190 l 1097 190 q 1133 200 1124 190 q 1143 235 1143 210 l 1143 547 q 1133 582 1143 572 q 1097 592 1124 592 l 942 592 q 904 582 914 592 q 894 544 894 572 l 894 0 l 617 0 l 617 121 q 572 108 603 108 l 197 108 q 116 133 142 108 q 90 214 90 158 l 90 568 q 116 649 90 624 q 197 674 142 674 l 547 674 l 547 592 l 414 592 q 378 582 388 592 q 368 547 368 572 l 368 235 q 378 200 368 210 q 414 190 388 190 l 569 190 q 607 201 597 190 q 617 238 617 211 l 617 782 l -28 782 l -28 864 l 1539 864 l 1539 782 z "},"ख":{"ha":1881,"x_min":-28,"x_max":1908,"o":"m 1908 864 l 1908 782 l 1761 782 l 1761 0 l 1488 0 l 1488 182 q 1440 167 1474 167 l 1078 167 q 997 192 1022 167 q 972 272 972 217 l 972 526 q 997 607 972 582 q 1078 632 1022 632 l 1425 632 l 1425 550 l 1267 550 q 1231 540 1240 550 q 1221 506 1221 531 l 1221 293 q 1231 258 1221 268 q 1267 249 1240 249 l 1438 249 q 1476 259 1465 249 q 1488 297 1488 269 l 1488 782 l 839 782 l 839 415 q 813 335 839 360 q 732 310 788 310 l 379 310 l 379 126 q 389 92 379 101 q 425 82 399 82 l 950 82 l 950 0 l 206 0 q 125 25 150 0 q 100 106 100 50 l 100 621 l 379 621 l 379 392 l 519 392 q 555 401 546 392 q 564 436 564 410 l 564 782 l -28 782 l -28 864 l 1908 864 z "},"ग":{"ha":1508,"x_min":-28,"x_max":1536,"o":"m 376 190 l 589 190 q 624 200 615 190 q 633 235 633 210 l 633 510 l 376 510 q 340 500 350 510 q 331 465 331 490 l 331 235 q 340 200 331 210 q 376 190 350 190 m 1536 864 l 1536 782 l 1389 782 l 1389 0 l 1111 0 l 1111 782 l 911 782 l 911 214 q 886 133 911 158 q 806 108 861 108 l 183 108 q 102 133 128 108 q 76 214 76 158 l 76 486 q 102 567 76 542 q 183 592 128 592 l 633 592 l 633 782 l -28 782 l -28 864 l 1536 864 z "},"घ":{"ha":1215,"x_min":-28,"x_max":1243,"o":"m 818 238 l 818 782 l 426 782 q 390 773 400 782 q 381 736 381 764 l 381 571 q 390 535 381 544 q 426 525 400 525 l 618 525 l 618 443 l 426 443 q 390 434 400 443 q 381 397 381 425 l 381 235 q 390 200 381 210 q 426 190 400 190 l 771 190 q 808 201 797 190 q 818 238 818 211 m 1243 864 l 1243 782 l 1096 782 l 1096 0 l 818 0 l 818 121 q 774 108 803 108 l 210 108 q 128 133 154 108 q 103 214 103 158 l 103 389 q 190 479 103 479 l 190 486 q 124 508 144 488 q 103 576 103 529 l 103 732 q 124 782 103 769 l -28 782 l -28 864 l 1243 864 z "},"ङ":{"ha":1183,"x_min":-28,"x_max":1211,"o":"m 956 411 l 956 564 l 1139 564 l 1139 411 l 956 411 m -28 864 l 1211 864 l 1211 782 l 865 782 l 865 592 l 417 592 q 380 582 389 592 q 371 546 371 572 l 371 467 q 380 430 371 439 q 417 421 389 421 l 793 421 q 874 396 849 421 q 899 315 899 371 l 899 111 q 874 31 899 56 q 793 6 849 6 l 203 6 q 122 31 147 6 q 97 111 97 56 l 97 228 l 375 228 l 375 132 q 385 97 375 106 q 421 88 394 88 l 575 88 q 612 97 603 88 q 621 133 621 106 l 621 293 q 612 329 621 319 q 575 339 603 339 l 199 339 q 118 364 143 339 q 93 444 93 389 l 93 568 q 118 649 93 624 q 199 674 143 674 l 589 674 l 589 782 l -28 782 l -28 864 z "},"च":{"ha":1175,"x_min":-28,"x_max":1203,"o":"m 1203 864 l 1203 782 l 1056 782 l 1056 0 l 778 0 l 778 121 q 733 108 764 108 l 246 108 q 165 133 190 108 q 139 214 139 158 l 139 542 q 160 592 139 579 l 22 592 l 22 674 l 597 674 l 597 592 l 457 592 q 426 581 435 590 q 417 547 417 571 l 417 235 q 426 200 417 210 q 463 190 436 190 l 731 190 q 768 201 758 190 q 778 238 778 211 l 778 782 l -28 782 l -28 864 l 1203 864 z "},"छ":{"ha":1456,"x_min":-28,"x_max":1483,"o":"m 861 674 l 861 782 l 433 782 q 397 773 406 782 q 388 736 388 764 l 388 517 q 397 480 388 489 q 433 471 406 471 l 567 471 l 567 389 l 433 389 q 397 379 406 389 q 388 343 388 369 l 388 126 q 397 92 388 101 q 433 82 407 82 l 1065 82 q 1101 92 1092 82 q 1111 126 1111 101 l 1111 547 q 1101 582 1111 572 q 1065 592 1092 592 l 922 592 q 886 582 896 592 q 876 547 876 572 l 876 367 q 886 332 876 342 q 922 322 896 322 l 1000 322 l 1000 240 l 738 240 q 656 265 682 240 q 631 346 631 290 l 631 568 q 656 649 631 624 q 738 674 682 674 l 861 674 m 1483 782 l 1121 782 l 1121 674 l 1249 674 q 1329 649 1304 674 q 1354 568 1354 624 l 1354 106 q 1329 25 1354 50 q 1249 0 1304 0 l 217 0 q 135 25 161 0 q 110 106 110 50 l 110 335 q 197 424 110 424 l 197 431 q 110 521 110 432 l 110 732 q 129 782 110 769 l -28 782 l -28 864 l 1483 864 l 1483 782 z "},"ज":{"ha":1493,"x_min":-28,"x_max":1521,"o":"m 1521 864 l 1521 782 l 1374 782 l 1374 0 l 1096 0 l 1096 592 l 901 592 l 901 214 q 876 133 901 158 q 796 108 851 108 l 207 108 q 126 133 151 108 q 100 214 100 158 l 100 674 l 369 674 l 369 235 q 379 200 369 210 q 415 190 389 190 l 588 190 q 624 200 614 190 q 633 235 633 210 l 633 674 l 1096 674 l 1096 782 l -28 782 l -28 864 l 1521 864 z "},"झ":{"ha":1532,"x_min":-28,"x_max":1560,"o":"m 1135 460 l 1135 782 l 914 782 l 914 592 l 424 592 q 388 582 397 592 q 378 546 378 572 l 378 506 q 388 469 378 478 q 424 460 397 460 l 1135 460 m 1560 864 l 1560 782 l 1413 782 l 1413 0 l 1135 0 l 1135 378 l 913 378 q 914 354 914 371 l 914 214 q 889 133 914 158 q 808 108 864 108 l 379 108 l 379 0 l 93 0 l 93 264 l 379 264 l 379 190 l 590 190 q 628 200 618 190 q 638 236 638 210 l 638 332 q 628 368 638 358 q 590 378 618 378 l 206 378 q 125 403 150 378 q 100 483 100 428 l 100 568 q 125 649 100 624 q 206 674 150 674 l 638 674 l 638 782 l -28 782 l -28 864 l 1560 864 z "},"ञ":{"ha":1464,"x_min":-28,"x_max":1492,"o":"m 1492 864 l 1492 782 l 1344 782 l 1344 0 l 1067 0 l 1067 360 l 865 360 l 865 214 q 840 133 865 158 q 760 108 815 108 l 157 108 q 76 133 101 108 q 50 214 50 158 l 50 374 l 329 374 l 329 235 q 338 200 329 210 q 374 190 347 190 l 542 190 q 578 200 568 190 q 588 235 588 210 l 588 547 q 578 582 588 572 q 542 592 568 592 l 293 592 l 293 674 l 760 674 q 840 649 815 674 q 865 568 865 624 l 865 442 l 1067 442 l 1067 782 l -28 782 l -28 864 l 1492 864 z "},"ट":{"ha":1017,"x_min":-28,"x_max":1044,"o":"m 881 592 l 426 592 q 390 582 400 592 q 381 547 381 572 l 381 126 q 390 92 381 101 q 426 82 400 82 l 599 82 q 635 92 625 82 q 644 126 644 101 l 644 339 l 922 339 l 922 106 q 897 25 922 50 q 815 0 871 0 l 210 0 q 128 25 154 0 q 103 106 103 50 l 103 568 q 128 649 103 624 q 210 674 154 674 l 603 674 l 603 782 l -28 782 l -28 864 l 1044 864 l 1044 782 l 881 782 l 881 592 z "},"ठ":{"ha":1053,"x_min":-28,"x_max":1081,"o":"m 682 126 l 682 547 q 672 582 682 572 q 635 592 661 592 l 418 592 q 382 582 392 592 q 372 547 372 572 l 372 126 q 382 92 372 101 q 418 82 392 82 l 635 82 q 672 92 661 82 q 682 126 682 101 m 1081 782 l 665 782 l 665 674 l 844 674 q 925 649 900 674 q 950 568 950 624 l 950 106 q 925 25 950 50 q 844 0 900 0 l 210 0 q 128 25 154 0 q 103 106 103 50 l 103 568 q 128 649 103 624 q 210 674 154 674 l 388 674 l 388 782 l -28 782 l -28 864 l 1081 864 l 1081 782 z "},"ड":{"ha":993,"x_min":-28,"x_max":1021,"o":"m 869 592 l 419 592 q 383 582 392 592 q 374 546 374 572 l 374 478 q 383 441 374 450 q 419 432 392 432 l 796 432 q 877 407 851 432 q 903 326 903 382 l 903 106 q 877 25 903 50 q 796 0 851 0 l 206 0 q 125 25 150 0 q 100 106 100 50 l 100 236 l 378 236 l 378 126 q 388 92 378 101 q 424 82 397 82 l 578 82 q 615 91 606 82 q 624 128 624 100 l 624 304 q 615 340 624 331 q 578 350 606 350 l 201 350 q 121 375 146 350 q 96 456 96 400 l 96 568 q 121 649 96 624 q 201 674 146 674 l 592 674 l 592 782 l -28 782 l -28 864 l 1021 864 l 1021 782 l 869 782 l 869 592 z "},"ढ":{"ha":1050,"x_min":-28,"x_max":1078,"o":"m 883 592 l 426 592 q 390 582 400 592 q 381 547 381 572 l 381 126 q 390 92 381 101 q 426 82 400 82 l 654 82 q 690 92 681 82 q 700 126 700 101 l 700 276 q 690 311 700 301 q 654 321 681 321 l 514 321 l 514 403 l 849 403 q 929 378 904 403 q 954 297 954 353 l 954 106 q 929 25 954 50 q 849 0 904 0 l 210 0 q 128 25 154 0 q 103 106 103 50 l 103 568 q 128 649 103 624 q 210 674 154 674 l 606 674 l 606 782 l -28 782 l -28 864 l 1078 864 l 1078 782 l 883 782 l 883 592 z "},"ण":{"ha":1510,"x_min":-28,"x_max":1538,"o":"m 632 235 l 632 782 l 363 782 l 363 235 q 372 200 363 210 q 408 190 382 190 l 586 190 q 622 200 613 190 q 632 235 632 210 m 1538 864 l 1538 782 l 1390 782 l 1390 0 l 1113 0 l 1113 782 l 892 782 l 892 214 q 867 133 892 158 q 786 108 842 108 l 210 108 q 128 133 154 108 q 103 214 103 158 l 103 782 l -28 782 l -28 864 l 1538 864 z "},"त":{"ha":1086,"x_min":-28,"x_max":1114,"o":"m 1114 864 l 1114 782 l 967 782 l 967 0 l 692 0 l 692 592 l 424 592 q 388 582 397 592 q 379 547 379 572 l 379 126 q 388 92 379 101 q 424 82 397 82 l 526 82 l 526 0 l 207 0 q 126 25 151 0 q 100 106 100 50 l 100 568 q 126 649 100 624 q 207 674 151 674 l 692 674 l 692 782 l -28 782 l -28 864 l 1114 864 z "},"थ":{"ha":1463,"x_min":100,"x_max":1490,"o":"m 1490 864 l 1490 782 l 1343 782 l 1343 0 l 1065 0 l 1065 121 q 1021 108 1051 108 l 207 108 q 126 133 151 108 q 100 214 100 158 l 100 488 l 565 488 q 601 497 592 488 q 611 532 611 506 l 611 738 q 601 772 611 763 q 565 782 592 782 l 428 782 q 392 772 401 782 q 382 738 382 763 l 382 601 l 110 601 l 110 758 q 135 839 110 814 q 215 864 160 864 l 778 864 q 859 839 833 864 q 885 758 885 814 l 885 511 q 859 431 885 456 q 778 406 833 406 l 379 406 l 379 235 q 388 200 379 210 q 424 190 397 190 l 1018 190 q 1055 201 1044 190 q 1065 238 1065 211 l 1065 864 l 1490 864 z "},"द":{"ha":1015,"x_min":-28,"x_max":1043,"o":"m 892 592 l 414 592 q 378 582 388 592 q 368 547 368 572 l 368 235 q 378 200 368 210 q 414 190 388 190 l 579 190 q 616 201 606 190 q 626 238 626 211 l 626 369 l 906 369 l 906 0 l 626 0 l 626 121 q 582 108 611 108 l 197 108 q 116 133 142 108 q 90 214 90 158 l 90 568 q 116 649 90 624 q 197 674 142 674 l 614 674 l 614 782 l -28 782 l -28 864 l 1043 864 l 1043 782 l 892 782 l 892 592 z "},"ध":{"ha":1389,"x_min":101,"x_max":1417,"o":"m 1417 864 l 1417 782 l 1269 782 l 1269 0 l 992 0 l 992 121 q 947 108 978 108 l 207 108 q 126 133 151 108 q 101 214 101 158 l 101 361 q 188 451 101 450 l 188 457 q 101 547 101 458 l 101 758 q 126 839 101 814 q 207 864 151 864 l 731 864 q 811 839 786 864 q 836 758 836 814 l 836 592 l 606 592 l 606 738 q 597 772 606 763 q 561 782 588 782 l 425 782 q 389 772 399 782 q 379 738 379 763 l 379 543 q 388 507 379 517 q 425 497 397 497 l 594 497 l 594 415 l 425 415 q 388 406 397 415 q 379 369 379 397 l 379 235 q 389 200 379 210 q 425 190 399 190 l 944 190 q 982 201 972 190 q 992 238 992 211 l 992 864 l 1417 864 z "},"न":{"ha":1472,"x_min":-28,"x_max":1500,"o":"m 613 235 l 613 592 l 390 592 q 354 582 364 592 q 344 547 344 572 l 344 235 q 354 200 344 210 q 390 190 364 190 l 567 190 q 603 200 593 190 q 613 235 613 210 m 1500 864 l 1500 782 l 1353 782 l 1353 0 l 1075 0 l 1075 592 l 881 592 l 881 214 q 856 133 881 158 q 775 108 831 108 l 183 108 q 102 133 128 108 q 76 214 76 158 l 76 568 q 102 649 76 624 q 183 674 128 674 l 1075 674 l 1075 782 l -28 782 l -28 864 l 1500 864 z "},"ऩ":{"ha":1472,"x_min":-28,"x_max":1500,"o":"m 363 -161 l 363 18 l 633 18 l 633 -161 l 363 -161 m 613 235 l 613 592 l 390 592 q 354 582 364 592 q 344 547 344 572 l 344 235 q 354 200 344 210 q 390 190 364 190 l 567 190 q 603 200 593 190 q 613 235 613 210 m 1500 864 l 1500 782 l 1353 782 l 1353 0 l 1075 0 l 1075 592 l 881 592 l 881 214 q 856 133 881 158 q 775 108 831 108 l 183 108 q 102 133 128 108 q 76 214 76 158 l 76 568 q 102 649 76 624 q 183 674 128 674 l 1075 674 l 1075 782 l -28 782 l -28 864 l 1500 864 z "},"प":{"ha":1042,"x_min":-28,"x_max":1069,"o":"m 644 238 l 644 782 l 372 782 l 372 235 q 382 200 372 210 q 418 190 392 190 l 597 190 q 635 201 625 190 q 644 238 644 211 m 1069 864 l 1069 782 l 921 782 l 921 0 l 644 0 l 644 121 q 600 108 629 108 l 210 108 q 128 133 154 108 q 103 214 103 158 l 103 782 l -28 782 l -28 864 l 1069 864 z "},"फ":{"ha":1538,"x_min":-28,"x_max":1567,"o":"m 644 238 l 644 782 l 372 782 l 372 235 q 382 200 372 210 q 418 190 392 190 l 597 190 q 635 201 625 190 q 644 238 644 211 m 1567 782 l 921 782 l 921 661 q 965 674 936 674 l 1342 674 q 1422 649 1397 674 q 1447 568 1447 624 l 1447 214 q 1422 133 1447 158 q 1342 108 1397 108 l 983 108 l 983 190 l 1124 190 q 1160 200 1150 190 q 1169 235 1169 210 l 1169 547 q 1160 582 1169 572 q 1124 592 1150 592 l 968 592 q 931 582 942 592 q 921 544 921 572 l 921 0 l 644 0 l 644 121 q 600 108 629 108 l 210 108 q 128 133 154 108 q 103 214 103 158 l 103 782 l -28 782 l -28 864 l 1567 864 l 1567 782 z "},"ब":{"ha":1138,"x_min":-28,"x_max":1165,"o":"m 413 190 l 693 190 q 724 196 714 190 l 358 525 q 367 372 367 450 l 367 235 q 376 200 367 210 q 413 190 386 190 m 1165 864 l 1165 782 l 1018 782 l 1018 0 l 740 0 l 740 121 q 696 108 725 108 l 197 108 q 116 133 142 108 q 90 214 90 158 l 90 568 q 116 649 90 624 q 197 674 142 674 l 675 674 l 675 592 l 388 592 l 753 260 q 740 443 740 318 l 740 782 l -28 782 l -28 864 l 1165 864 z "},"भ":{"ha":1513,"x_min":100,"x_max":1540,"o":"m 628 235 l 628 435 l 404 435 q 368 425 378 435 q 358 389 358 415 l 358 235 q 368 200 358 210 q 404 190 378 190 l 582 190 q 618 200 608 190 q 628 235 628 210 m 1540 864 l 1540 782 l 1393 782 l 1393 0 l 1115 0 l 1115 435 l 906 435 l 906 214 q 881 133 906 158 q 800 108 856 108 l 206 108 q 125 133 150 108 q 100 214 100 158 l 100 410 q 125 491 100 465 q 206 517 150 517 l 628 517 l 628 738 q 618 772 628 763 q 582 782 608 782 l 432 782 q 396 772 406 782 q 386 738 386 763 l 386 615 l 108 615 l 108 758 q 134 839 108 814 q 215 864 160 864 l 800 864 q 881 839 856 864 q 906 758 906 814 l 906 517 l 1115 517 l 1115 864 l 1540 864 z "},"म":{"ha":1513,"x_min":-28,"x_max":1540,"o":"m 1118 674 l 1118 782 l 907 782 l 907 674 l 1118 674 m 628 235 l 628 592 l 406 592 q 369 582 379 592 q 360 547 360 572 l 360 235 q 369 200 360 210 q 406 190 379 190 l 583 190 q 619 200 610 190 q 628 235 628 210 m 1540 864 l 1540 782 l 1393 782 l 1393 0 l 1118 0 l 1118 592 l 907 592 l 907 214 q 881 133 907 158 q 800 108 856 108 l 207 108 q 126 133 151 108 q 100 214 100 158 l 100 568 q 126 649 100 624 q 207 674 151 674 l 628 674 l 628 782 l -28 782 l -28 864 l 1540 864 z "},"य":{"ha":1343,"x_min":-28,"x_max":1371,"o":"m 946 240 l 946 782 l 717 782 q 738 732 738 769 l 738 535 q 712 454 738 479 q 631 429 686 429 l 350 429 l 350 235 q 359 200 350 210 q 394 190 368 190 l 894 190 q 935 201 924 190 q 946 240 946 213 m 1371 864 l 1371 782 l 1224 782 l 1224 0 l 946 0 l 946 124 q 899 108 932 108 l 178 108 q 97 133 122 108 q 71 214 71 158 l 71 511 l 414 511 q 450 521 440 511 q 460 557 460 531 l 460 736 q 451 773 460 764 q 414 782 442 782 l -28 782 l -28 864 l 1371 864 z "},"र":{"ha":1013,"x_min":-28,"x_max":1040,"o":"m 1040 864 l 1040 782 l 886 782 q 907 732 907 769 l 907 501 q 881 421 907 446 q 800 396 856 396 l 379 396 l 379 126 q 388 92 379 101 q 424 82 397 82 l 572 82 q 608 92 599 82 q 618 126 618 101 l 618 293 l 896 293 l 896 106 q 870 25 896 50 q 789 0 844 0 l 207 0 q 126 25 151 0 q 100 106 100 50 l 100 600 l 379 600 l 379 478 l 583 478 q 619 488 610 478 q 628 522 628 497 l 628 736 q 619 773 628 764 q 583 782 610 782 l -28 782 l -28 864 l 1040 864 z "},"ऱ":{"ha":1013,"x_min":-28,"x_max":1040,"o":"m 140 -269 l 140 -90 l 411 -90 l 411 -269 l 140 -269 m 1040 864 l 1040 782 l 886 782 q 907 732 907 769 l 907 501 q 881 421 907 446 q 800 396 856 396 l 379 396 l 379 126 q 388 92 379 101 q 424 82 397 82 l 572 82 q 608 92 599 82 q 618 126 618 101 l 618 293 l 896 293 l 896 106 q 870 25 896 50 q 789 0 844 0 l 207 0 q 126 25 151 0 q 100 106 100 50 l 100 600 l 379 600 l 379 478 l 583 478 q 619 488 610 478 q 628 522 628 497 l 628 736 q 619 773 628 764 q 583 782 610 782 l -28 782 l -28 864 l 1040 864 z "},"ल":{"ha":1551,"x_min":-28,"x_max":1579,"o":"m 1579 864 l 1579 782 l 1432 782 l 1432 0 l 1153 0 l 1153 592 l 950 592 q 914 582 924 592 q 904 547 904 572 l 904 254 l 628 254 l 628 547 q 617 582 628 572 q 581 592 607 592 l 424 592 q 388 582 397 592 q 379 547 379 572 l 379 126 q 388 92 379 101 q 424 82 397 82 l 647 82 l 647 0 l 207 0 q 126 25 151 0 q 100 106 100 50 l 100 568 q 126 649 100 624 q 207 674 151 674 l 668 674 q 738 654 717 674 q 763 590 760 635 l 768 590 q 792 653 771 633 q 857 674 813 674 l 1153 674 l 1153 782 l -28 782 l -28 864 l 1579 864 z "},"ळ":{"ha":1451,"x_min":-28,"x_max":1479,"o":"m 1097 235 l 1097 547 q 1088 582 1097 572 q 1051 592 1078 592 l 888 592 q 851 582 861 592 q 842 547 842 572 l 842 235 q 851 200 842 210 q 888 190 861 190 l 1051 190 q 1088 200 1078 190 q 1097 235 1097 210 m 610 235 l 610 547 q 600 582 610 572 q 564 592 590 592 l 400 592 q 364 582 374 592 q 354 547 354 572 l 354 235 q 364 200 354 210 q 400 190 374 190 l 564 190 q 600 200 590 190 q 610 235 610 210 m 1479 782 l 1167 782 l 1167 674 l 1254 674 q 1335 649 1310 674 q 1361 568 1361 624 l 1361 214 q 1335 133 1361 158 q 1254 108 1310 108 l 817 108 q 751 128 771 108 q 729 192 731 147 l 722 192 q 698 128 719 147 q 628 108 676 108 l 197 108 q 117 133 142 108 q 92 214 92 158 l 92 568 q 117 649 92 624 q 197 674 142 674 l 628 674 q 698 654 676 674 q 722 590 719 635 l 729 590 q 751 654 731 635 q 817 674 771 674 l 889 674 l 889 782 l -28 782 l -28 864 l 1479 864 l 1479 782 z "},"ऴ":{"ha":1451,"x_min":-28,"x_max":1479,"o":"m 333 -161 l 333 18 l 604 18 l 604 -161 l 333 -161 m 1097 235 l 1097 547 q 1088 582 1097 572 q 1051 592 1078 592 l 888 592 q 851 582 861 592 q 842 547 842 572 l 842 235 q 851 200 842 210 q 888 190 861 190 l 1051 190 q 1088 200 1078 190 q 1097 235 1097 210 m 610 235 l 610 547 q 600 582 610 572 q 564 592 590 592 l 400 592 q 364 582 374 592 q 354 547 354 572 l 354 235 q 364 200 354 210 q 400 190 374 190 l 564 190 q 600 200 590 190 q 610 235 610 210 m 1479 782 l 1167 782 l 1167 674 l 1254 674 q 1335 649 1310 674 q 1361 568 1361 624 l 1361 214 q 1335 133 1361 158 q 1254 108 1310 108 l 817 108 q 751 128 771 108 q 729 192 731 147 l 722 192 q 698 128 719 147 q 628 108 676 108 l 197 108 q 117 133 142 108 q 92 214 92 158 l 92 568 q 117 649 92 624 q 197 674 142 674 l 628 674 q 698 654 676 674 q 722 590 719 635 l 729 590 q 751 654 731 635 q 817 674 771 674 l 889 674 l 889 782 l -28 782 l -28 864 l 1479 864 l 1479 782 z "},"व":{"ha":1047,"x_min":-28,"x_max":1075,"o":"m 1075 864 l 1075 782 l 928 782 l 928 0 l 650 0 l 650 121 q 606 108 636 108 l 201 108 q 121 133 146 108 q 96 214 96 158 l 96 568 q 121 649 96 624 q 201 674 146 674 l 581 674 l 581 592 l 419 592 q 383 582 393 592 q 374 547 374 572 l 374 235 q 383 200 374 210 q 419 190 393 190 l 603 190 q 640 201 631 190 q 650 238 650 211 l 650 782 l -28 782 l -28 864 l 1075 864 z "},"श":{"ha":1528,"x_min":114,"x_max":1556,"o":"m 224 864 l 814 864 q 894 839 869 864 q 919 758 919 814 l 919 474 q 894 393 919 418 q 814 368 869 368 l 392 368 l 392 126 q 401 92 392 101 q 438 82 411 82 l 589 82 q 625 92 615 82 q 635 126 635 101 l 635 276 l 913 276 l 913 106 q 887 25 913 50 q 806 0 861 0 l 219 0 q 139 25 164 0 q 114 106 114 50 l 114 518 l 392 518 l 392 450 l 596 450 q 632 460 622 450 q 642 494 642 469 l 642 738 q 632 772 642 763 q 596 782 622 782 l 442 782 q 406 772 415 782 q 396 738 396 763 l 396 621 l 118 621 l 118 758 q 143 839 118 814 q 224 864 168 864 m 1556 864 l 1556 782 l 1408 782 l 1408 0 l 1131 0 l 1131 864 l 1556 864 z "},"ष":{"ha":1126,"x_min":-28,"x_max":1154,"o":"m 735 522 l 735 782 l 369 782 l 746 296 q 735 522 735 406 m 426 190 l 686 190 q 728 207 721 190 l 365 676 q 381 478 381 578 l 381 235 q 390 200 381 210 q 426 190 400 190 m 1154 864 l 1154 782 l 1007 782 l 1007 0 l 733 0 l 733 121 q 689 108 719 108 l 210 108 q 128 133 154 108 q 103 214 103 158 l 103 782 l -28 782 l -28 864 l 1154 864 z "},"स":{"ha":1522,"x_min":-28,"x_max":1550,"o":"m 1125 471 l 1125 782 l 893 782 q 913 732 913 771 l 913 494 q 911 471 913 478 l 1125 471 m 1550 864 l 1550 782 l 1403 782 l 1403 0 l 1125 0 l 1125 389 l 381 389 l 381 126 q 390 92 381 101 q 426 82 400 82 l 588 82 q 624 92 614 82 q 633 126 633 101 l 633 297 l 911 297 l 911 106 q 886 25 911 50 q 806 0 861 0 l 210 0 q 128 25 154 0 q 103 106 103 50 l 103 661 l 381 661 l 381 471 l 589 471 q 625 481 615 471 q 635 515 635 490 l 635 736 q 626 773 635 764 q 589 782 617 782 l -28 782 l -28 864 l 1550 864 z "},"ह":{"ha":1039,"x_min":-28,"x_max":1067,"o":"m 911 592 l 431 592 q 394 582 404 592 q 385 547 385 572 l 385 496 q 394 460 385 469 q 431 450 403 450 l 815 450 q 938 335 938 450 l 938 197 l 676 197 l 676 322 q 667 358 676 347 q 631 368 657 368 l 431 368 q 394 359 403 368 q 385 322 385 350 l 385 126 q 394 92 385 101 q 431 82 404 82 l 935 82 l 935 0 l 214 0 q 133 25 158 0 q 107 106 107 50 l 107 307 q 128 375 107 354 q 194 397 149 396 l 194 404 q 107 493 107 404 l 107 568 q 133 649 107 624 q 214 674 158 674 l 635 674 l 635 782 l -28 782 l -28 864 l 1067 864 l 1067 782 l 911 782 l 911 592 z "},"़":{"ha":0,"x_min":-482,"x_max":-211,"o":"m -482 -269 l -482 -90 l -211 -90 l -211 -269 l -482 -269 z "},"ऽ":{"ha":983,"x_min":100,"x_max":890,"o":"m 424 524 l 785 524 q 865 498 840 524 q 890 417 890 472 l 890 106 q 865 25 890 50 q 785 0 840 0 l 210 0 q 129 26 154 0 q 104 107 104 51 l 104 242 l 381 242 l 381 128 q 391 92 381 101 q 428 82 401 82 l 567 82 q 603 91 594 82 q 613 128 613 100 l 613 394 q 603 432 613 422 q 567 442 593 442 l 206 442 q 125 467 150 442 q 100 547 100 492 l 100 758 q 125 839 100 814 q 206 864 150 864 l 888 864 l 888 782 l 424 782 q 386 772 396 782 q 376 736 376 763 l 376 568 q 386 533 376 542 q 424 524 396 524 z "},"ा":{"ha":517,"x_min":-28,"x_max":544,"o":"m 544 864 l 544 782 l 397 782 l 397 0 l 119 0 l 119 782 l -28 782 l -28 864 l 544 864 z "},"ि":{"ha":517,"x_min":-28,"x_max":1397,"o":"m 225 1165 l 1292 1165 q 1372 1140 1347 1165 q 1397 1060 1397 1115 l 1397 931 l 1119 931 l 1119 1039 q 1110 1074 1119 1065 q 1074 1083 1100 1083 l 443 1083 q 407 1074 417 1083 q 397 1039 397 1065 l 397 864 l 544 864 l 544 782 l 397 782 l 397 0 l 119 0 l 119 782 l -28 782 l -28 864 l 119 864 l 119 1060 q 144 1140 119 1115 q 225 1165 169 1165 z "},"ी":{"ha":517,"x_min":-401,"x_max":544,"o":"m 544 864 l 544 782 l 397 782 l 397 0 l 119 0 l 119 782 l -28 782 l -28 864 l 119 864 l 119 1039 q 110 1074 119 1065 q 74 1083 100 1083 l -78 1083 q -114 1074 -104 1083 q -124 1039 -124 1065 l -124 931 l -401 931 l -401 1060 q -376 1140 -401 1115 q -296 1165 -351 1165 l 292 1165 q 372 1140 347 1165 q 397 1060 397 1115 l 397 864 l 544 864 z "},"ु":{"ha":0,"x_min":-810,"x_max":40,"o":"m -412 0 l -64 0 q 16 -24 -8 0 q 40 -104 40 -49 l 40 -271 q 16 -351 40 -326 q -64 -375 -8 -375 l -537 -375 q -644 -360 -612 -375 q -712 -286 -676 -344 l -810 -125 l -550 -125 l -475 -254 q -450 -285 -461 -276 q -417 -293 -439 -293 l -272 -293 q -235 -283 -246 -293 q -225 -247 -225 -272 l -225 -128 q -235 -92 -225 -103 q -272 -82 -246 -82 l -412 -82 l -412 0 z "},"ू":{"ha":0,"x_min":-633,"x_max":251,"o":"m -214 -82 l -322 -82 q -359 -92 -349 -82 q -369 -128 -369 -103 l -369 -247 q -359 -283 -369 -272 q -322 -293 -349 -293 l -193 -293 l -193 -375 l -529 -375 q -609 -351 -585 -375 q -633 -271 -633 -326 l -633 -104 q -609 -24 -633 -49 q -529 0 -585 0 l -93 0 q 15 -15 -17 0 q 82 -89 47 -31 l 251 -375 l -8 -375 l -156 -121 q -181 -90 -169 -99 q -214 -82 -192 -82 z "},"ृ":{"ha":0,"x_min":-572,"x_max":-14,"o":"m -261 -293 l -14 -293 l -14 -375 l -468 -375 q -548 -351 -524 -375 q -572 -271 -572 -326 l -572 -104 q -548 -24 -572 -49 q -468 0 -524 0 l -76 0 l -76 -82 l -261 -82 q -298 -92 -287 -82 q -308 -128 -308 -103 l -308 -247 q -298 -283 -308 -272 q -261 -293 -287 -293 z "},"ॄ":{"ha":0,"x_min":-572,"x_max":13,"o":"m -261 -590 l 13 -590 l 13 -672 l -468 -672 q -548 -648 -524 -672 q -572 -568 -572 -624 l -572 -418 q -540 -336 -572 -365 q -572 -253 -572 -304 l -572 -104 q -548 -24 -572 -49 q -468 0 -524 0 l -28 0 l -28 -82 l -261 -82 q -298 -92 -287 -82 q -308 -128 -308 -103 l -308 -247 q -298 -283 -308 -272 q -261 -293 -287 -293 l -12 -293 l -12 -378 l -261 -378 q -298 -388 -287 -378 q -308 -424 -308 -399 l -308 -544 q -298 -580 -308 -569 q -261 -590 -287 -590 z "},"ॅ":{"ha":0,"x_min":-625,"x_max":190,"o":"m -76 1183 l 190 1183 l 190 1057 q 165 976 190 1001 q 85 951 140 951 l -518 951 q -599 976 -574 951 q -625 1057 -625 1001 l -625 1183 l -358 1183 l -358 1078 q -349 1043 -358 1053 q -312 1033 -339 1033 l -121 1033 q -85 1043 -94 1033 q -76 1078 -76 1053 l -76 1183 z "},"ॆ":{"ha":0,"x_min":-889,"x_max":-76,"o":"m -565 1032 l -182 1032 q -101 1007 -126 1032 q -76 926 -76 982 l -76 815 l -354 815 l -354 904 q -364 940 -354 931 q -400 950 -374 950 l -783 950 q -864 975 -839 950 q -889 1056 -889 1000 l -889 1164 l -611 1164 l -611 1076 q -601 1042 -611 1051 q -565 1032 -592 1032 z "},"े":{"ha":0,"x_min":-674,"x_max":-107,"o":"m -107 847 l -357 847 q -540 1013 -432 889 l -674 1165 l -375 1165 l -107 847 z "},"ै":{"ha":0,"x_min":-736,"x_max":-118,"o":"m -261 864 l -251 864 q -337 1090 -274 907 l -364 1165 l -176 1165 l -118 849 l -381 849 q -546 986 -431 878 l -736 1165 l -483 1165 l -422 1092 q -261 864 -326 981 z "},"ॉ":{"ha":517,"x_min":-157,"x_max":658,"o":"m -28 782 l -28 864 l 544 864 l 544 782 l 397 782 l 397 0 l 119 0 l 119 782 l -28 782 m 392 1183 l 658 1183 l 658 1057 q 633 976 658 1001 q 553 951 608 951 l -50 951 q -131 976 -106 951 q -157 1057 -157 1001 l -157 1183 l 110 1183 l 110 1078 q 119 1043 110 1053 q 156 1033 129 1033 l 347 1033 q 383 1043 374 1033 q 392 1078 392 1053 l 392 1183 z "},"ॊ":{"ha":517,"x_min":-415,"x_max":544,"o":"m 544 864 l 544 782 l 397 782 l 397 0 l 119 0 l 119 782 l -28 782 l -28 864 l 119 864 l 119 904 q 110 940 119 931 q 74 950 100 950 l -310 950 q -390 975 -365 950 q -415 1056 -415 1000 l -415 1164 l -137 1164 l -137 1076 q -128 1042 -137 1051 q -92 1032 -118 1032 l 292 1032 q 372 1007 347 1032 q 397 926 397 982 l 397 864 l 544 864 z "},"ो":{"ha":517,"x_min":-156,"x_max":544,"o":"m 544 864 l 544 782 l 397 782 l 397 0 l 119 0 l 119 782 l -28 782 l -28 864 l 135 864 q -22 1013 71 907 l -156 1165 l 143 1165 l 397 864 l 544 864 z "},"ौ":{"ha":517,"x_min":-218,"x_max":544,"o":"m 544 864 l 544 782 l 397 782 l 397 0 l 119 0 l 119 782 l -28 782 l -28 864 l 115 864 q -28 986 67 899 l -218 1165 l 35 1165 l 96 1092 q 257 864 192 981 l 267 864 q 181 1090 244 907 l 154 1165 l 342 1165 l 397 864 l 544 864 z "},"्":{"ha":0,"x_min":-399,"x_max":64,"o":"m -399 -83 l -119 -83 l 64 -332 l -217 -332 l -399 -83 z "},"ॐ":{"ha":1788,"x_min":72,"x_max":1775,"o":"m 1449 1050 l 1449 914 l 1299 914 l 1299 1050 l 1449 1050 m 885 560 l 1661 560 q 1742 534 1717 560 q 1767 453 1767 508 l 1767 106 q 1742 25 1767 50 q 1661 0 1717 0 l 1092 0 q 1011 25 1036 0 q 986 106 986 50 l 986 285 l 1264 285 l 1264 126 q 1274 92 1264 101 q 1310 82 1283 82 l 1443 82 q 1479 92 1469 82 q 1489 126 1489 101 l 1489 432 q 1479 468 1489 458 q 1443 478 1469 478 l 799 478 l 799 471 q 865 449 844 469 q 885 382 885 428 l 885 106 q 860 25 885 50 q 779 0 835 0 l 178 0 q 97 25 122 0 q 72 106 72 50 l 72 286 l 350 286 l 350 126 q 360 92 350 101 q 396 82 369 82 l 561 82 q 597 92 588 82 q 607 126 607 101 l 607 385 q 598 421 607 411 q 561 431 589 431 l 378 431 l 378 513 l 561 513 q 598 522 589 513 q 607 558 607 531 l 607 736 q 598 773 607 764 q 561 782 589 782 l 396 782 q 360 773 369 782 q 350 736 350 764 l 350 621 l 72 621 l 72 758 q 97 839 72 814 q 178 864 122 864 l 779 864 q 860 839 835 864 q 885 758 885 814 l 885 560 m 1547 971 l 1775 971 l 1775 847 q 1752 766 1775 793 q 1675 739 1729 739 l 1075 739 q 996 766 1019 739 q 972 847 972 793 l 972 971 l 1201 971 l 1201 867 q 1211 831 1201 840 q 1247 821 1221 821 l 1501 821 q 1538 831 1528 821 q 1547 867 1547 840 l 1547 971 z "},"॑":{"ha":0,"x_min":-375,"x_max":-107,"o":"m -375 988 l -375 1349 l -107 1349 l -107 988 l -375 988 z "},"॒":{"ha":0,"x_min":-697,"x_max":-76,"o":"m -76 -264 l -697 -264 l -697 -182 l -76 -182 l -76 -264 z "},"॓":{"ha":0,"x_min":-531,"x_max":-129,"o":"m -531 1243 l -361 1383 l -129 1106 l -299 965 l -531 1243 z "},"॔":{"ha":0,"x_min":-350,"x_max":51,"o":"m -118 1383 l 51 1243 l -181 965 l -350 1106 l -118 1383 z "},"क़":{"ha":1511,"x_min":-28,"x_max":1539,"o":"m 142 -161 l 142 18 l 413 18 l 413 -161 l 142 -161 m 1539 782 l 894 782 l 894 661 q 939 674 908 674 l 1315 674 q 1396 649 1371 674 q 1421 568 1421 624 l 1421 214 q 1396 133 1421 158 q 1315 108 1371 108 l 964 108 l 964 190 l 1097 190 q 1133 200 1124 190 q 1143 235 1143 210 l 1143 547 q 1133 582 1143 572 q 1097 592 1124 592 l 942 592 q 904 582 914 592 q 894 544 894 572 l 894 0 l 617 0 l 617 121 q 572 108 603 108 l 197 108 q 116 133 142 108 q 90 214 90 158 l 90 568 q 116 649 90 624 q 197 674 142 674 l 547 674 l 547 592 l 414 592 q 378 582 388 592 q 368 547 368 572 l 368 235 q 378 200 368 210 q 414 190 388 190 l 569 190 q 607 201 597 190 q 617 238 617 211 l 617 782 l -28 782 l -28 864 l 1539 864 l 1539 782 z "},"ख़":{"ha":1881,"x_min":-28,"x_max":1908,"o":"m 588 -269 l 588 -90 l 858 -90 l 858 -269 l 588 -269 m 1908 864 l 1908 782 l 1761 782 l 1761 0 l 1488 0 l 1488 182 q 1440 167 1474 167 l 1078 167 q 997 192 1022 167 q 972 272 972 217 l 972 526 q 997 607 972 582 q 1078 632 1022 632 l 1425 632 l 1425 550 l 1267 550 q 1231 540 1240 550 q 1221 506 1221 531 l 1221 293 q 1231 258 1221 268 q 1267 249 1240 249 l 1438 249 q 1476 259 1465 249 q 1488 297 1488 269 l 1488 782 l 839 782 l 839 415 q 813 335 839 360 q 732 310 788 310 l 379 310 l 379 126 q 389 92 379 101 q 425 82 399 82 l 950 82 l 950 0 l 206 0 q 125 25 150 0 q 100 106 100 50 l 100 621 l 379 621 l 379 392 l 519 392 q 555 401 546 392 q 564 436 564 410 l 564 782 l -28 782 l -28 864 l 1908 864 z "},"ग़":{"ha":1508,"x_min":-28,"x_max":1536,"o":"m 349 -161 l 349 18 l 619 18 l 619 -161 l 349 -161 m 376 190 l 589 190 q 624 200 615 190 q 633 235 633 210 l 633 510 l 376 510 q 340 500 350 510 q 331 465 331 490 l 331 235 q 340 200 331 210 q 376 190 350 190 m 1536 864 l 1536 782 l 1389 782 l 1389 0 l 1111 0 l 1111 782 l 911 782 l 911 214 q 886 133 911 158 q 806 108 861 108 l 183 108 q 102 133 128 108 q 76 214 76 158 l 76 486 q 102 567 76 542 q 183 592 128 592 l 633 592 l 633 782 l -28 782 l -28 864 l 1536 864 z "},"ज़":{"ha":1493,"x_min":-28,"x_max":1521,"o":"m 361 -161 l 361 18 l 632 18 l 632 -161 l 361 -161 m 1521 864 l 1521 782 l 1374 782 l 1374 0 l 1096 0 l 1096 592 l 901 592 l 901 214 q 876 133 901 158 q 796 108 851 108 l 207 108 q 126 133 151 108 q 100 214 100 158 l 100 674 l 369 674 l 369 235 q 379 200 369 210 q 415 190 389 190 l 588 190 q 624 200 614 190 q 633 235 633 210 l 633 674 l 1096 674 l 1096 782 l -28 782 l -28 864 l 1521 864 z "},"ड़":{"ha":993,"x_min":-28,"x_max":1021,"o":"m 385 -269 l 385 -90 l 656 -90 l 656 -269 l 385 -269 m 869 592 l 419 592 q 383 582 392 592 q 374 546 374 572 l 374 478 q 383 441 374 450 q 419 432 392 432 l 796 432 q 877 407 851 432 q 903 326 903 382 l 903 106 q 877 25 903 50 q 796 0 851 0 l 206 0 q 125 25 150 0 q 100 106 100 50 l 100 236 l 378 236 l 378 126 q 388 92 378 101 q 424 82 397 82 l 578 82 q 615 91 606 82 q 624 128 624 100 l 624 304 q 615 340 624 331 q 578 350 606 350 l 201 350 q 121 375 146 350 q 96 456 96 400 l 96 568 q 121 649 96 624 q 201 674 146 674 l 592 674 l 592 782 l -28 782 l -28 864 l 1021 864 l 1021 782 l 869 782 l 869 592 z "},"ढ़":{"ha":1050,"x_min":-28,"x_max":1078,"o":"m 411 -269 l 411 -90 l 682 -90 l 682 -269 l 411 -269 m 883 592 l 426 592 q 390 582 400 592 q 381 547 381 572 l 381 126 q 390 92 381 101 q 426 82 400 82 l 654 82 q 690 92 681 82 q 700 126 700 101 l 700 276 q 690 311 700 301 q 654 321 681 321 l 514 321 l 514 403 l 849 403 q 929 378 904 403 q 954 297 954 353 l 954 106 q 929 25 954 50 q 849 0 904 0 l 210 0 q 128 25 154 0 q 103 106 103 50 l 103 568 q 128 649 103 624 q 210 674 154 674 l 606 674 l 606 782 l -28 782 l -28 864 l 1078 864 l 1078 782 l 883 782 l 883 592 z "},"फ़":{"ha":1538,"x_min":-28,"x_max":1567,"o":"m 110 -161 l 110 18 l 381 18 l 381 -161 l 110 -161 m 644 238 l 644 782 l 372 782 l 372 235 q 382 200 372 210 q 418 190 392 190 l 597 190 q 635 201 625 190 q 644 238 644 211 m 1567 782 l 921 782 l 921 661 q 965 674 936 674 l 1342 674 q 1422 649 1397 674 q 1447 568 1447 624 l 1447 214 q 1422 133 1447 158 q 1342 108 1397 108 l 983 108 l 983 190 l 1124 190 q 1160 200 1150 190 q 1169 235 1169 210 l 1169 547 q 1160 582 1169 572 q 1124 592 1150 592 l 968 592 q 931 582 942 592 q 921 544 921 572 l 921 0 l 644 0 l 644 121 q 600 108 629 108 l 210 108 q 128 133 154 108 q 103 214 103 158 l 103 782 l -28 782 l -28 864 l 1567 864 l 1567 782 z "},"य़":{"ha":1343,"x_min":-28,"x_max":1371,"o":"m 288 -161 l 288 18 l 558 18 l 558 -161 l 288 -161 m 946 240 l 946 782 l 717 782 q 738 732 738 769 l 738 535 q 712 454 738 479 q 631 429 686 429 l 350 429 l 350 235 q 359 200 350 210 q 394 190 368 190 l 894 190 q 935 201 924 190 q 946 240 946 213 m 1371 864 l 1371 782 l 1224 782 l 1224 0 l 946 0 l 946 124 q 899 108 932 108 l 178 108 q 97 133 122 108 q 71 214 71 158 l 71 511 l 414 511 q 450 521 440 511 q 460 557 460 531 l 460 736 q 451 773 460 764 q 414 782 442 782 l -28 782 l -28 864 l 1371 864 z "},"ॠ":{"ha":1929,"x_min":-28,"x_max":1957,"o":"m 1368 546 l 1368 401 q 1378 365 1368 375 q 1411 356 1388 356 l 1535 356 q 1567 365 1558 356 q 1576 401 1576 375 l 1576 546 q 1567 582 1576 572 q 1532 592 1558 592 l 1414 592 q 1378 582 1388 592 q 1368 546 1368 572 m 971 782 l 971 356 l 1124 356 q 1097 432 1097 371 l 1097 568 q 1122 648 1097 622 q 1203 674 1147 674 l 1733 674 q 1814 648 1789 674 q 1839 568 1839 622 l 1839 378 q 1814 298 1839 324 q 1733 272 1789 272 l 1406 272 q 1370 263 1379 272 q 1361 228 1361 254 l 1361 128 q 1369 92 1361 101 q 1403 82 1376 83 l 1519 82 q 1556 90 1546 82 q 1567 121 1567 97 l 1567 186 l 1839 186 l 1839 106 q 1738 0 1839 0 l 1204 0 q 1097 106 1097 0 l 1097 197 q 1126 272 1097 256 l 971 272 l 971 0 l 694 0 l 694 272 l 633 272 l 365 0 l 53 0 l 374 326 l 239 514 q 167 575 204 560 q 71 590 131 590 l 32 590 l 32 674 l 249 674 q 390 655 343 674 q 482 576 438 636 l 646 356 l 694 356 l 694 782 l -28 782 l -28 864 l 1957 864 l 1957 782 l 971 782 z "},"ॡ":{"ha":1549,"x_min":-28,"x_max":1576,"o":"m 1432 93 l 1204 93 q 1167 83 1178 93 q 1157 47 1157 72 l 1157 -74 q 1167 -109 1157 -99 q 1204 -119 1178 -119 l 1446 -119 l 1446 -203 l 1204 -203 q 1167 -213 1178 -203 q 1157 -249 1157 -224 l 1157 -369 q 1167 -405 1157 -394 q 1204 -415 1178 -415 l 1472 -415 l 1472 -497 l 996 -497 q 916 -473 940 -497 q 892 -393 892 -449 l 892 -243 q 924 -161 892 -190 q 892 -78 892 -129 l 892 71 q 916 151 892 126 q 996 175 940 175 l 1153 175 l 1153 592 l 950 592 q 914 582 924 592 q 904 547 904 572 l 904 274 l 628 274 l 628 547 q 617 582 628 572 q 581 592 607 592 l 424 592 q 388 582 397 592 q 379 547 379 572 l 379 126 q 388 92 379 101 q 424 82 397 82 l 647 82 l 647 0 l 207 0 q 126 25 151 0 q 100 106 100 50 l 100 568 q 126 649 100 624 q 207 674 151 674 l 668 674 q 738 654 717 674 q 763 590 760 635 l 768 590 q 792 653 771 633 q 857 674 813 674 l 1153 674 l 1153 782 l -28 782 l -28 864 l 1576 864 l 1576 782 l 1432 782 l 1432 93 z "},"।":{"ha":582,"x_min":207,"x_max":476,"o":"m 207 0 l 207 864 l 476 864 l 476 0 l 207 0 z "},"॥":{"ha":1090,"x_min":207,"x_max":983,"o":"m 207 0 l 207 864 l 476 864 l 476 0 l 207 0 m 715 0 l 715 864 l 983 864 l 983 0 l 715 0 z "},"०":{"ha":1031,"x_min":114,"x_max":917,"o":"m 426 82 l 606 82 q 640 92 632 82 q 649 128 649 101 l 649 736 q 640 772 649 763 q 606 782 632 782 l 426 782 q 391 772 400 782 q 382 736 382 763 l 382 128 q 391 92 382 101 q 426 82 400 82 m 215 864 l 817 864 q 894 837 872 864 q 917 756 917 810 l 917 108 q 894 27 917 54 q 817 0 872 0 l 215 0 q 136 27 158 0 q 114 108 114 54 l 114 756 q 136 837 114 810 q 215 864 158 864 z "},"१":{"ha":651,"x_min":42,"x_max":524,"o":"m 524 864 l 524 0 l 246 0 l 246 782 l 42 782 l 42 864 l 524 864 z "},"२":{"ha":1021,"x_min":106,"x_max":917,"o":"m 917 82 l 917 0 l 106 0 l 106 82 l 483 421 q 597 540 556 485 q 639 657 639 596 l 639 736 q 630 772 639 763 q 594 782 621 782 l 436 782 q 401 772 410 782 q 392 736 392 763 l 392 560 l 114 560 l 114 756 q 137 836 114 808 q 215 864 160 864 l 815 864 q 915 751 915 864 l 915 657 q 889 510 915 564 q 797 394 863 457 l 464 82 l 917 82 z "},"३":{"ha":1018,"x_min":93,"x_max":911,"o":"m 589 83 q 625 94 615 83 q 635 129 635 104 l 635 344 q 586 392 635 392 l 419 392 l 419 474 l 586 474 q 624 485 613 474 q 635 521 635 496 l 635 735 q 625 770 635 760 q 589 781 615 781 l 415 781 q 380 771 389 781 q 371 735 371 761 l 371 607 l 93 607 l 93 756 q 116 836 93 808 q 194 864 139 864 l 810 864 q 911 751 911 864 l 911 547 q 810 440 911 447 l 810 435 q 911 328 911 431 l 911 114 q 810 0 911 0 l 194 0 q 116 28 139 0 q 93 108 93 56 l 93 260 l 371 260 l 371 129 q 380 93 371 103 q 415 83 389 83 l 589 83 z "},"४":{"ha":1007,"x_min":58,"x_max":960,"o":"m 960 226 l 960 144 l 847 144 l 847 0 l 590 0 l 590 144 l 58 144 l 58 256 l 365 864 l 640 864 l 322 226 l 590 226 l 590 453 l 847 453 l 847 226 l 960 226 z "},"५":{"ha":1017,"x_min":111,"x_max":917,"o":"m 389 543 l 817 543 q 894 516 872 543 q 917 435 917 489 l 917 114 q 817 0 917 0 l 214 0 q 135 28 158 0 q 113 108 113 56 l 113 290 l 390 290 l 390 128 q 399 92 390 101 q 435 82 408 82 l 596 82 q 631 92 622 82 q 640 128 640 101 l 640 415 q 631 452 640 442 q 596 463 622 463 l 389 463 l 389 461 l 111 461 l 111 864 l 903 864 l 903 782 l 389 782 l 389 543 z "},"६":{"ha":1044,"x_min":114,"x_max":938,"o":"m 661 128 l 661 382 q 651 417 661 407 q 615 428 642 428 l 390 428 l 390 128 q 399 92 390 101 q 435 82 408 82 l 615 82 q 651 92 642 82 q 661 128 661 103 m 390 508 l 838 508 q 915 481 893 508 q 938 401 938 454 l 938 108 q 915 27 938 54 q 838 0 893 0 l 214 0 q 136 27 158 0 q 114 108 114 54 l 114 756 q 136 836 114 808 q 214 864 158 864 l 835 864 q 913 837 890 864 q 935 756 935 810 l 935 614 l 658 614 l 658 736 q 649 772 658 763 q 614 782 640 782 l 435 782 q 399 772 408 782 q 390 736 390 763 l 390 508 z "},"७":{"ha":821,"x_min":56,"x_max":763,"o":"m 763 864 l 763 771 l 450 0 l 175 0 l 493 782 l 56 782 l 56 864 l 763 864 z "},"८":{"ha":985,"x_min":88,"x_max":896,"o":"m 629 517 l 629 736 q 619 772 629 761 q 583 782 610 782 l 400 782 q 365 772 374 782 q 356 736 356 763 l 356 517 q 366 481 356 492 q 403 471 376 471 l 583 471 q 619 481 608 471 q 629 517 629 492 m 629 128 l 629 343 q 619 378 629 368 q 583 389 610 389 l 400 389 q 365 378 375 389 q 356 343 356 368 l 356 128 q 365 92 356 101 q 400 82 374 82 l 583 82 q 619 92 610 82 q 629 128 629 101 m 896 751 l 896 546 q 785 435 896 438 l 785 431 q 896 322 896 428 l 896 114 q 794 0 896 0 l 189 0 q 88 114 88 0 l 88 322 q 199 431 88 428 l 199 435 q 88 546 88 438 l 88 751 q 189 864 88 864 l 794 864 q 896 751 896 864 z "},"९":{"ha":1044,"x_min":107,"x_max":931,"o":"m 428 428 l 654 428 l 654 736 q 644 772 654 761 q 608 782 635 782 l 428 782 q 392 772 401 782 q 383 736 383 763 l 383 472 q 392 438 383 447 q 428 428 401 428 m 207 864 l 831 864 q 908 837 886 864 q 931 756 931 810 l 931 108 q 908 28 931 56 q 831 0 886 0 l 210 0 q 132 27 154 0 q 110 108 110 54 l 110 242 l 386 242 l 386 128 q 395 92 386 101 q 431 82 404 82 l 608 82 q 644 92 635 82 q 654 128 654 103 l 654 346 l 207 346 q 129 373 151 346 q 107 454 107 400 l 107 756 q 129 837 107 810 q 207 864 151 864 z "},"॰":{"ha":919,"x_min":99,"x_max":813,"o":"m 575 304 l 575 476 q 565 511 575 501 q 529 521 556 521 l 382 521 q 346 511 356 521 q 336 476 336 501 l 336 304 q 346 269 336 279 q 382 260 356 260 l 529 260 q 565 269 556 260 q 575 304 575 279 m 206 600 l 707 600 q 788 575 763 600 q 813 494 813 550 l 813 286 q 788 206 813 231 q 707 181 763 181 l 206 181 q 124 206 150 181 q 99 286 99 231 l 99 494 q 124 575 99 550 q 206 600 150 600 z "},"ॲ":{"ha":1499,"x_min":78,"x_max":1650,"o":"m 1526 864 l 1526 782 l 1379 782 l 1379 0 l 1101 0 l 1101 415 l 896 415 l 896 214 q 871 133 896 158 q 790 108 846 108 l 185 108 q 103 133 129 108 q 78 214 78 158 l 78 350 l 356 350 l 356 235 q 365 199 356 208 q 401 189 375 189 l 572 189 q 609 199 600 189 q 618 235 618 208 l 618 396 q 608 433 618 422 q 571 443 597 443 l 392 443 l 392 525 l 571 525 q 608 535 597 525 q 618 572 618 544 l 618 736 q 609 773 618 764 q 572 782 600 782 l 401 782 q 365 773 375 782 q 356 736 356 764 l 356 621 l 78 621 l 78 758 q 103 839 78 814 q 185 864 129 864 l 790 864 q 871 839 846 864 q 896 758 896 814 l 896 593 q 810 503 896 504 l 810 497 l 1101 497 l 1101 864 l 1526 864 m 1383 1183 l 1650 1183 l 1650 1057 q 1625 976 1650 1001 q 1544 951 1600 951 l 942 951 q 860 976 886 951 q 835 1057 835 1001 l 835 1183 l 1101 1183 l 1101 1078 q 1111 1043 1101 1053 q 1147 1033 1121 1033 l 1339 1033 q 1374 1043 1365 1033 q 1383 1078 1383 1053 l 1383 1183 z "},"ॽ":{"ha":1006,"x_min":149,"x_max":886,"o":"m 254 950 l 781 950 q 861 924 836 950 q 886 844 886 899 l 886 486 q 861 406 886 432 q 781 381 836 381 l 625 381 l 625 0 l 357 0 l 357 463 l 583 463 q 617 472 608 463 q 626 510 626 482 l 626 822 q 617 859 626 849 q 583 869 608 869 l 468 869 q 433 859 442 869 q 424 822 424 849 l 424 669 l 149 669 l 149 844 q 174 924 149 899 q 254 950 199 950 z "},"​":{"ha":0,"x_min":0,"x_max":0,"o":""},"‌":{"ha":0,"x_min":-33,"x_max":38,"o":"m -33 1103 l 38 1103 l 38 -481 l -33 -481 l -33 1103 z "},"‍":{"ha":0,"x_min":-207,"x_max":185,"o":"m 25 -481 l -46 -481 l -46 839 l -149 738 l -207 792 l -62 924 l -207 1057 l -150 1110 l -10 972 l 129 1110 l 185 1057 l 40 924 l 185 792 l 128 738 l 25 840 l 25 -481 z "},"–":{"ha":1047,"x_min":88,"x_max":828,"o":"m 88 364 l 88 446 l 828 446 l 828 364 l 88 364 z "},"—":{"ha":1385,"x_min":88,"x_max":1288,"o":"m 88 364 l 88 446 l 1288 446 l 1288 364 l 88 364 z "},"‘":{"ha":422,"x_min":75,"x_max":349,"o":"m 349 864 l 349 481 l 75 481 l 75 578 l 258 864 l 349 864 z "},"’":{"ha":422,"x_min":79,"x_max":354,"o":"m 79 481 l 79 864 l 354 864 l 354 765 l 171 481 l 79 481 z "},"‚":{"ha":419,"x_min":79,"x_max":354,"o":"m 79 -175 l 79 208 l 354 208 l 354 111 l 171 -175 l 79 -175 z "},"“":{"ha":758,"x_min":75,"x_max":697,"o":"m 349 864 l 349 481 l 75 481 l 75 578 l 258 864 l 349 864 m 697 864 l 697 481 l 422 481 l 422 578 l 607 864 l 697 864 z "},"”":{"ha":758,"x_min":79,"x_max":701,"o":"m 428 481 l 428 864 l 701 864 l 701 765 l 518 481 l 428 481 m 79 481 l 79 864 l 354 864 l 354 765 l 171 481 l 79 481 z "},"„":{"ha":758,"x_min":79,"x_max":701,"o":"m 428 -175 l 428 208 l 701 208 l 701 111 l 518 -175 l 428 -175 m 79 -175 l 79 208 l 354 208 l 354 111 l 171 -175 l 79 -175 z "},"†":{"ha":867,"x_min":58,"x_max":808,"o":"m 808 653 l 808 571 l 571 571 l 571 -182 l 303 -182 l 303 571 l 58 571 l 58 653 l 303 653 l 303 864 l 571 864 l 571 653 l 808 653 z "},"‡":{"ha":904,"x_min":75,"x_max":826,"o":"m 826 533 l 588 533 l 588 136 l 826 136 l 826 54 l 588 54 l 588 -203 l 319 -203 l 319 54 l 75 54 l 75 136 l 319 136 l 319 533 l 75 533 l 75 615 l 319 615 l 319 864 l 588 864 l 588 615 l 826 615 l 826 533 z "},"•":{"ha":710,"x_min":103,"x_max":608,"o":"m 103 437 q 103 476 103 437 q 177 572 103 515 q 355 628 251 628 q 533 572 458 628 q 608 437 608 515 q 533 301 608 358 q 355 244 458 244 q 177 301 251 244 q 103 437 103 358 z "},"…":{"ha":1292,"x_min":79,"x_max":1229,"o":"m 79 0 l 79 188 l 358 188 l 358 0 l 79 0 m 519 0 l 519 188 l 799 188 l 799 0 l 519 0 m 950 0 l 950 188 l 1229 188 l 1229 0 l 950 0 z "},"‰":{"ha":2354,"x_min":60,"x_max":2288,"o":"m 1607 419 l 1607 79 q 1531 1 1607 1 l 1104 1 q 1029 79 1029 1 l 1029 419 q 1104 497 1029 497 l 1531 497 q 1607 419 1607 497 m 1410 99 l 1410 399 q 1404 424 1410 418 q 1379 429 1399 429 l 1257 429 q 1233 424 1238 429 q 1228 399 1228 418 l 1228 99 q 1233 74 1228 79 q 1257 68 1239 68 l 1379 68 q 1404 74 1399 68 q 1410 99 1410 79 m 1058 864 l 1257 864 l 604 0 l 408 0 l 1058 864 m 638 786 l 638 446 q 563 368 638 368 l 136 368 q 60 446 60 368 l 60 786 q 136 864 60 864 l 563 864 q 638 786 638 864 m 440 465 l 440 765 q 435 790 440 785 q 410 796 429 796 l 289 796 q 264 790 269 796 q 258 765 258 785 l 258 465 q 264 440 258 446 q 289 435 269 435 l 410 435 q 435 440 429 435 q 440 465 440 446 m 2288 419 l 2288 79 q 2213 1 2288 1 l 1785 1 q 1710 79 1710 1 l 1710 419 q 1785 497 1710 497 l 2213 497 q 2288 419 2288 497 m 2090 99 l 2090 399 q 2085 424 2090 418 q 2060 429 2079 429 l 1938 429 q 1913 424 1918 429 q 1908 399 1908 418 l 1908 99 q 1914 74 1908 79 q 1938 68 1919 68 l 2060 68 q 2085 74 2079 68 q 2090 99 2090 79 z "},"‹":{"ha":533,"x_min":49,"x_max":507,"o":"m 239 135 l 49 344 l 239 553 l 507 553 l 318 344 l 507 135 l 239 135 z "},"›":{"ha":531,"x_min":39,"x_max":497,"o":"m 497 344 l 306 135 l 39 135 l 228 344 l 39 553 l 306 553 l 497 344 z "},"⁄":{"ha":757,"x_min":18,"x_max":807,"o":"m 606 864 l 807 864 l 218 0 l 18 0 l 606 864 z "},"€":{"ha":994,"x_min":35,"x_max":932,"o":"m 932 553 l 664 553 l 664 739 q 656 774 664 767 q 621 782 647 782 l 451 782 q 417 774 425 782 q 408 739 408 767 l 408 563 l 571 563 l 571 481 l 408 481 l 408 385 l 571 385 l 571 303 l 408 303 l 408 125 q 417 90 408 97 q 451 82 425 82 l 621 82 q 656 90 647 82 q 664 125 664 97 l 664 308 l 932 308 l 932 110 q 822 0 932 0 l 250 0 q 140 110 140 0 l 140 303 l 35 303 l 35 385 l 140 385 l 140 481 l 35 481 l 35 563 l 140 563 l 140 754 q 250 864 140 864 l 822 864 q 932 754 932 864 l 932 553 z "},"™":{"ha":1350,"x_min":35,"x_max":1283,"o":"m 35 774 l 35 864 l 519 864 l 519 774 l 371 774 l 371 385 l 183 385 l 183 774 l 35 774 m 1283 864 l 1283 385 l 1110 385 l 1110 685 l 1000 469 l 875 469 l 768 686 l 768 385 l 594 385 l 594 864 l 793 864 l 938 579 l 1085 864 l 1283 864 z "},"Ω":{"ha":1044,"x_min":42,"x_max":1000,"o":"m 1000 82 l 1000 0 l 571 0 l 571 82 l 615 82 q 650 90 642 82 q 658 125 658 97 l 658 739 q 650 774 658 767 q 615 782 642 782 l 432 782 q 397 774 406 782 q 389 739 389 767 l 389 125 q 397 90 389 97 q 432 82 406 82 l 474 82 l 474 0 l 42 0 l 42 82 l 161 82 q 119 169 119 103 l 119 754 q 229 864 119 864 l 815 864 q 925 754 925 864 l 925 169 q 883 82 925 103 l 1000 82 z "},"∏":{"ha":1053,"x_min":24,"x_max":950,"o":"m 950 864 l 950 782 l 949 782 l 949 0 l 694 0 l 694 782 l 418 782 l 418 110 q 308 0 418 0 l 24 0 l 24 85 l 119 85 q 155 92 147 85 q 163 128 163 100 l 163 864 l 950 864 z "},"−":{"ha":1153,"x_min":58,"x_max":904,"o":"m 58 351 l 58 510 l 904 510 l 904 351 l 58 351 z "},"∕":{"ha":682,"x_min":-37,"x_max":775,"o":"m 551 971 l 775 971 l 186 -189 l -37 -189 l 551 971 z "},"∙":{"ha":396,"x_min":67,"x_max":340,"o":"m 67 522 l 340 522 l 340 333 l 67 333 l 67 522 z "},"∞":{"ha":1347,"x_min":69,"x_max":1278,"o":"m 425 246 l 179 246 q 69 353 69 246 l 69 593 q 179 701 69 701 l 440 701 q 540 683 507 701 q 617 613 572 664 l 667 556 l 700 599 q 785 682 751 663 q 896 701 819 701 l 1168 701 q 1278 593 1278 701 l 1278 353 q 1168 246 1278 246 l 919 246 q 794 263 836 246 q 703 338 753 281 l 669 374 l 647 346 q 557 264 599 282 q 425 246 515 246 m 904 343 l 1035 343 q 1078 352 1068 343 q 1088 389 1088 361 l 1088 558 q 1078 594 1088 585 q 1035 604 1068 604 l 894 604 q 813 556 850 604 l 743 468 l 819 388 q 904 343 861 343 m 429 603 l 313 603 q 269 594 279 603 q 260 558 260 585 l 260 389 q 269 352 260 361 q 313 343 279 343 l 436 343 q 538 394 494 343 l 592 464 l 513 554 q 467 594 486 586 q 429 603 449 603 z "},"∫":{"ha":682,"x_min":51,"x_max":622,"o":"m 469 832 l 469 -75 q 360 -185 469 -185 l 51 -185 l 51 -100 l 160 -100 q 194 -92 186 -100 q 203 -57 201 -85 l 203 850 q 313 960 203 960 l 622 960 l 622 875 l 513 875 q 478 867 486 875 q 469 832 469 858 z "},"≈":{"ha":1124,"x_min":81,"x_max":1044,"o":"m 790 571 l 1044 571 l 1044 357 q 935 249 1044 249 l 733 249 q 559 316 649 249 q 389 383 469 383 q 345 374 357 383 q 333 335 333 364 l 333 249 l 81 249 l 81 463 q 189 571 81 571 l 392 571 q 497 549 446 571 q 579 503 547 528 q 735 435 667 435 q 778 445 767 435 q 790 485 790 456 l 790 571 z "},"≠":{"ha":1007,"x_min":81,"x_max":926,"o":"m 926 493 l 619 493 l 524 372 l 926 372 l 926 214 l 397 214 l 328 126 l 192 126 l 261 214 l 81 214 l 81 372 l 388 372 l 483 493 l 81 493 l 81 650 l 608 650 l 676 735 l 813 735 l 744 650 l 926 650 l 926 493 z "},"≤":{"ha":1019,"x_min":61,"x_max":944,"o":"m 944 274 l 944 142 l 61 142 l 61 274 l 944 274 m 944 571 l 247 508 l 944 443 l 944 296 l 61 424 l 61 594 l 944 717 l 944 571 z "},"≥":{"ha":1019,"x_min":75,"x_max":958,"o":"m 75 142 l 75 274 l 958 274 l 958 142 l 75 142 m 772 508 l 75 571 l 75 717 l 958 594 l 958 424 l 75 296 l 75 443 l 772 508 z "},"◊":{"ha":1092,"x_min":63,"x_max":1029,"o":"m 1029 435 l 667 0 l 413 0 l 63 435 l 413 864 l 667 864 l 1029 435 m 763 435 l 539 715 l 331 435 l 539 149 l 763 435 z "},"◌":{"ha":586,"x_min":99,"x_max":479,"o":"m 190 210 l 190 108 q 124 136 150 108 q 99 210 99 164 l 190 210 m 99 263 l 99 364 l 190 364 l 190 263 l 99 263 m 99 418 l 99 519 l 190 519 l 190 418 l 99 418 m 190 572 l 99 572 q 124 647 99 619 q 190 674 149 674 l 190 572 m 388 108 l 388 210 l 479 210 q 454 138 479 168 q 388 108 429 108 m 388 263 l 388 364 l 479 364 l 479 263 l 388 263 m 388 418 l 388 519 l 479 519 l 479 418 l 388 418 m 388 572 l 388 674 q 479 572 479 674 l 388 572 m 243 572 l 243 674 l 335 674 l 335 572 l 243 572 m 243 108 l 243 210 l 335 210 l 335 108 l 243 108 z "},"":{"ha":926,"x_min":335,"x_max":590,"o":"m 335 -367 l 335 -65 l 590 -65 l 590 -161 l 415 -367 l 335 -367 z "},"ﬁ":{"ha":957,"x_min":44,"x_max":868,"o":"m 864 674 l 864 0 l 608 0 l 608 592 l 400 592 l 400 0 l 144 0 l 144 592 l 44 592 l 44 674 l 144 674 l 144 819 q 254 929 144 929 l 539 929 l 539 846 l 443 846 q 408 838 417 846 q 400 803 400 831 l 400 674 l 864 674 m 604 929 l 868 929 l 868 782 l 604 782 l 604 929 z "},"ﬂ":{"ha":963,"x_min":44,"x_max":864,"o":"m 608 929 l 864 929 l 864 0 l 608 0 l 608 592 l 400 592 l 400 0 l 144 0 l 144 592 l 44 592 l 44 674 l 144 674 l 144 819 q 254 929 144 929 l 544 929 l 544 846 l 443 846 q 408 838 417 846 q 400 803 400 831 l 400 674 l 608 674 l 608 929 z "}}}
